<svg width="172" height="92" viewBox="0 0 172 92" fill="none" xmlns="http://www.w3.org/2000/svg">
<path fill-rule="evenodd" clip-rule="evenodd" d="M84.5 38.2097L68.1334 66.9438H44.8516L72.8595 17.7607L84.5 38.2097Z" fill="black"/>
<path fill-rule="evenodd" clip-rule="evenodd" d="M124.148 66.9439H102.2L85.8672 38.351L96.8416 19.127L124.148 66.9439Z" fill="black"/>
<path fill-rule="evenodd" clip-rule="evenodd" d="M93.4489 8.27376C93.4489 12.8431 89.7484 16.5475 85.1839 16.5475C80.6194 16.5475 76.9189 12.8431 76.9189 8.27376C76.9189 3.70436 80.6194 0 85.1839 0C89.7484 0 93.4489 3.70436 93.4489 8.27376Z" fill="black"/>
<mask id="mask0_0_74" style="mask-type:alpha" maskUnits="userSpaceOnUse" x="101" y="0" width="66" height="69">
<path fill-rule="evenodd" clip-rule="evenodd" d="M101.063 0H166.531V68.3099H101.063V0Z" fill="white"/>
</mask>
<g mask="url(#mask0_0_74)">
<path fill-rule="evenodd" clip-rule="evenodd" d="M127.136 0H108.048L101.063 12.1104L133.472 68.3099H166.532L127.136 0Z" fill="black"/>
</g>
<mask id="mask1_0_74" style="mask-type:alpha" maskUnits="userSpaceOnUse" x="3" y="0" width="66" height="69">
<path fill-rule="evenodd" clip-rule="evenodd" d="M3.83594 0H68.6536V68.3099H3.83594V0Z" fill="white"/>
</mask>
<g mask="url(#mask1_0_74)">
<path fill-rule="evenodd" clip-rule="evenodd" d="M43.2317 0L3.83594 68.3099H35.5939L68.6537 10.9835L62.3187 0H43.2317Z" fill="black"/>
</g>
<path d="M31.5741 88.6988C30.6861 88.6988 29.8861 88.5148 29.1741 88.1468C28.4621 87.7708 27.9021 87.2508 27.4941 86.5868C27.0941 85.9148 26.8941 85.1548 26.8941 84.3068C26.8941 83.4588 27.0941 82.7028 27.4941 82.0388C27.9021 81.3668 28.4621 80.8468 29.1741 80.4788C29.8861 80.1028 30.6861 79.9148 31.5741 79.9148C32.3901 79.9148 33.1181 80.0588 33.7581 80.3468C34.3981 80.6348 34.9261 81.0508 35.3421 81.5948L33.5541 83.1908C33.0341 82.5348 32.4221 82.2068 31.7181 82.2068C31.1261 82.2068 30.6501 82.3988 30.2901 82.7828C29.9301 83.1588 29.7501 83.6668 29.7501 84.3068C29.7501 84.9468 29.9301 85.4588 30.2901 85.8428C30.6501 86.2188 31.1261 86.4068 31.7181 86.4068C32.4221 86.4068 33.0341 86.0788 33.5541 85.4228L35.3421 87.0188C34.9261 87.5628 34.3981 87.9788 33.7581 88.2668C33.1181 88.5548 32.3901 88.6988 31.5741 88.6988ZM39.7598 86.3948H38.9918V88.5068H36.1598V80.1068H40.2038C40.9798 80.1068 41.6558 80.2348 42.2318 80.4908C42.8078 80.7468 43.2518 81.1148 43.5638 81.5948C43.8758 82.0748 44.0318 82.6348 44.0318 83.2748C44.0318 83.8748 43.8958 84.3988 43.6238 84.8468C43.3518 85.2948 42.9598 85.6508 42.4478 85.9148L44.2118 88.5068H41.1878L39.7598 86.3948ZM41.1758 83.2748C41.1758 82.9628 41.0798 82.7228 40.8878 82.5548C40.6958 82.3788 40.4078 82.2908 40.0238 82.2908H38.9918V84.2588H40.0238C40.4078 84.2588 40.6958 84.1748 40.8878 84.0068C41.0798 83.8308 41.1758 83.5868 41.1758 83.2748ZM52.0852 86.3708V88.5068H45.1012V80.1068H51.9292V82.2428H47.8852V83.2268H51.4372V85.2668H47.8852V86.3708H52.0852ZM58.8994 87.0428H55.7074L55.1434 88.5068H52.2634L55.9354 80.1068H58.7194L62.3914 88.5068H59.4634L58.8994 87.0428ZM58.1194 85.0028L57.3034 82.8908L56.4874 85.0028H58.1194ZM64.2474 82.3028H61.7874V80.1068H69.5394V82.3028H67.0794V88.5068H64.2474V82.3028ZM70.2749 80.1068H73.1069V88.5068H70.2749V80.1068ZM83.4463 80.1068L79.8943 88.5068H77.1103L73.5583 80.1068H76.6063L78.6103 85.0148L80.6623 80.1068H83.4463ZM90.7078 86.3708V88.5068H83.7238V80.1068H90.5518V82.2428H86.5078V83.2268H90.0598V85.2668H86.5078V86.3708H90.7078ZM96.0702 80.1068H99.3942C100.266 80.1068 101.038 80.2868 101.71 80.6468C102.39 81.0068 102.918 81.5068 103.294 82.1468C103.67 82.7788 103.858 83.4988 103.858 84.3068C103.858 85.1148 103.67 85.8388 103.294 86.4788C102.918 87.1108 102.39 87.6068 101.71 87.9668C101.038 88.3268 100.266 88.5068 99.3942 88.5068H96.0702V80.1068ZM99.3462 87.9548C100.122 87.9548 100.806 87.8028 101.398 87.4988C101.99 87.1868 102.446 86.7548 102.766 86.2028C103.086 85.6508 103.246 85.0188 103.246 84.3068C103.246 83.5948 103.086 82.9628 102.766 82.4108C102.446 81.8588 101.99 81.4308 101.398 81.1268C100.806 80.8148 100.122 80.6588 99.3462 80.6588H96.6822V87.9548H99.3462ZM111.78 87.9548V88.5068H105.984V80.1068H111.6V80.6588H106.596V83.9708H111.072V84.5108H106.596V87.9548H111.78ZM116.22 88.5668C115.604 88.5668 115.016 88.4628 114.456 88.2548C113.904 88.0388 113.472 87.7628 113.16 87.4268L113.436 86.9708C113.732 87.2828 114.128 87.5388 114.624 87.7388C115.128 87.9308 115.656 88.0268 116.208 88.0268C117.008 88.0268 117.612 87.8748 118.02 87.5708C118.428 87.2668 118.632 86.8708 118.632 86.3828C118.632 86.0068 118.524 85.7068 118.308 85.4828C118.092 85.2588 117.824 85.0868 117.504 84.9668C117.184 84.8468 116.752 84.7228 116.208 84.5948C115.592 84.4428 115.096 84.2948 114.72 84.1508C114.352 84.0068 114.036 83.7868 113.772 83.4908C113.516 83.1868 113.388 82.7828 113.388 82.2788C113.388 81.8708 113.496 81.4988 113.712 81.1628C113.928 80.8188 114.256 80.5468 114.696 80.3468C115.144 80.1468 115.7 80.0468 116.364 80.0468C116.828 80.0468 117.284 80.1148 117.732 80.2508C118.18 80.3868 118.568 80.5708 118.896 80.8028L118.668 81.2948C118.332 81.0628 117.96 80.8868 117.552 80.7668C117.152 80.6468 116.756 80.5868 116.364 80.5868C115.588 80.5868 115 80.7428 114.6 81.0548C114.2 81.3668 114 81.7708 114 82.2668C114 82.6428 114.108 82.9428 114.324 83.1668C114.54 83.3908 114.808 83.5628 115.128 83.6828C115.448 83.8028 115.884 83.9308 116.436 84.0668C117.052 84.2188 117.544 84.3668 117.912 84.5108C118.28 84.6548 118.592 84.8748 118.848 85.1708C119.112 85.4588 119.244 85.8508 119.244 86.3468C119.244 86.7548 119.132 87.1268 118.908 87.4628C118.692 87.7988 118.356 88.0668 117.9 88.2668C117.444 88.4668 116.884 88.5668 116.22 88.5668ZM121.324 80.1068H121.936V88.5068H121.324V80.1068ZM130.863 84.3428H131.451V87.4868C131.083 87.8388 130.635 88.1068 130.107 88.2908C129.587 88.4748 129.035 88.5668 128.451 88.5668C127.619 88.5668 126.867 88.3828 126.195 88.0148C125.531 87.6468 125.007 87.1388 124.623 86.4908C124.247 85.8428 124.059 85.1148 124.059 84.3068C124.059 83.4988 124.247 82.7708 124.623 82.1228C125.007 81.4748 125.531 80.9668 126.195 80.5988C126.867 80.2308 127.623 80.0468 128.463 80.0468C129.079 80.0468 129.643 80.1468 130.155 80.3468C130.675 80.5388 131.119 80.8228 131.487 81.1988L131.103 81.6068C130.751 81.2548 130.355 81.0028 129.915 80.8508C129.483 80.6908 129.003 80.6108 128.475 80.6108C127.755 80.6108 127.103 80.7708 126.519 81.0908C125.943 81.4108 125.491 81.8548 125.163 82.4228C124.835 82.9828 124.671 83.6108 124.671 84.3068C124.671 84.9948 124.835 85.6228 125.163 86.1908C125.499 86.7508 125.955 87.1948 126.531 87.5228C127.107 87.8428 127.755 88.0028 128.475 88.0028C129.435 88.0028 130.231 87.7468 130.863 87.2348V84.3428ZM140.984 80.1068V88.5068H140.48L134.756 81.2108V88.5068H134.144V80.1068H134.66L140.372 87.4028V80.1068H140.984Z" fill="black"/>
</svg>
