<svg width="208" height="112" viewBox="0 0 208 112" fill="none" xmlns="http://www.w3.org/2000/svg">
<path fill-rule="evenodd" clip-rule="evenodd" d="M105.277 54.1439C104.425 52.9064 104 51.1555 104 48.8911V41.2818C104 38.947 104.421 37.1744 105.265 35.9632C106.108 34.7521 107.56 34.1465 109.62 34.1465C111.55 34.1465 112.92 34.6731 113.731 35.7263C114.542 36.7795 114.947 38.2981 114.947 40.2813V42.0717H111.492V40.2286C111.492 39.4744 111.461 38.882 111.396 38.4514C111.33 38.0216 111.164 37.6708 110.897 37.3982C110.629 37.1264 110.211 36.9901 109.643 36.9901C109.06 36.9901 108.622 37.1349 108.33 37.4245C108.038 37.7142 107.848 38.1006 107.759 38.583C107.669 39.0663 107.625 39.6935 107.625 40.4656V49.7073C107.625 50.9185 107.771 51.792 108.062 52.3271C108.355 52.863 108.881 53.1302 109.643 53.1302C110.195 53.1302 110.605 52.99 110.873 52.7089C111.14 52.4286 111.31 52.0553 111.383 51.5899C111.456 51.1253 111.492 50.5065 111.492 49.7337V47.8116H114.947V49.523C114.947 51.5768 114.55 53.1697 113.755 54.3019C112.96 55.4341 111.582 56.0001 109.62 56.0001C107.576 56.0001 106.129 55.3814 105.277 54.1439Z" fill="black"/>
<path fill-rule="evenodd" clip-rule="evenodd" d="M125.596 52.314C125.894 51.7704 126.044 50.9805 126.044 49.9443V40.1233C126.044 39.088 125.899 38.3066 125.609 37.78C125.319 37.2534 124.734 36.9901 123.855 36.9901C122.976 36.9901 122.387 37.258 122.087 37.7931C121.789 38.329 121.64 39.1058 121.64 40.1233V49.9443C121.64 50.9805 121.789 51.7704 122.087 52.314C122.387 52.8584 122.976 53.1302 123.855 53.1302C124.716 53.1302 125.296 52.8584 125.596 52.314ZM119.108 54.2229C118.159 53.038 117.684 51.3049 117.684 49.0228V41.0185C117.684 38.7542 118.159 37.0428 119.108 35.8842C120.058 34.7257 121.64 34.1465 123.855 34.1465C126.053 34.1465 127.626 34.7257 128.576 35.8842C129.525 37.0428 130 38.7542 130 41.0185V49.0228C130 51.2871 129.521 53.0164 128.563 54.2097C127.604 55.4039 126.035 56.0001 123.855 56.0001C121.64 56.0001 120.058 55.4077 119.108 54.2229Z" fill="black"/>
<path fill-rule="evenodd" clip-rule="evenodd" d="M135.813 34.1465H139.518L142.304 49.2822L145.186 34.1465H148.795L149.158 56.0001H146.494L146.204 40.8105L143.418 56.0001H141.262L138.429 40.7565L138.163 56.0001H135.474L135.813 34.1465Z" fill="black"/>
<path fill-rule="evenodd" clip-rule="evenodd" d="M158.282 43.4813C159.266 43.4813 159.93 43.2519 160.274 42.7933C160.619 42.3346 160.791 41.5117 160.791 40.3246C160.791 39.4613 160.734 38.8003 160.619 38.3416C160.504 37.883 160.27 37.537 159.918 37.3029C159.565 37.0688 159.02 36.9521 158.282 36.9521H156.88V43.4813H158.282ZM153.263 34.1465H159.118C162.514 34.1465 164.211 36.2152 164.211 40.3518C164.211 44.3084 162.431 46.2874 158.872 46.2874H156.88V56.0001H153.263V34.1465Z" fill="black"/>
<path fill-rule="evenodd" clip-rule="evenodd" d="M173.168 48.4188L171.763 39.2457L170.358 48.4188H173.168ZM169.719 34.1465H173.755L177.895 56.0001H174.395L173.577 50.9549H169.974L169.131 56.0001H165.579L169.719 34.1465Z" fill="black"/>
<path fill-rule="evenodd" clip-rule="evenodd" d="M180.632 34.1465H183.304L188.414 46.6112V34.1465H191.579V56.0001H189.037L183.9 42.9419V56.0001H180.632V34.1465Z" fill="black"/>
<path fill-rule="evenodd" clip-rule="evenodd" d="M198.641 47.6634L194.316 34.1465H197.955L200.592 42.807L203.071 34.1465H206.632L202.359 47.6634V56.0001H198.641V47.6634Z" fill="black"/>
<path fill-rule="evenodd" clip-rule="evenodd" d="M110.842 64.1953V65.2833H107.455V73.7563H106.035V65.2833H102.632V64.1953H110.842Z" fill="black"/>
<path fill-rule="evenodd" clip-rule="evenodd" d="M113.313 70.2064H116.583L115.207 66.3166C115.118 66.0766 115.031 65.7768 114.944 65.4165C114.9 65.5989 114.856 65.7662 114.813 65.9199C114.771 66.0736 114.728 66.2076 114.687 66.3234L113.313 70.2064ZM119.053 73.7563H118.136C118.03 73.7563 117.944 73.7268 117.879 73.6692C117.814 73.6117 117.765 73.5383 117.732 73.4489L116.913 71.1406H112.982L112.163 73.4489C112.135 73.5292 112.085 73.6003 112.017 73.6624C111.947 73.7252 111.861 73.7563 111.76 73.7563H110.842L114.345 64.1953H115.55L119.053 73.7563Z" fill="black"/>
<path fill-rule="evenodd" clip-rule="evenodd" d="M125.155 72.7314C125.408 72.7314 125.64 72.7195 125.853 72.6959C126.064 72.6722 126.264 72.6359 126.451 72.5877C126.639 72.5403 126.816 72.4826 126.981 72.4152C127.148 72.3478 127.313 72.2708 127.479 72.1834V70.121H126.026C125.943 70.121 125.877 70.0973 125.826 70.0492C125.775 70.0018 125.751 69.9426 125.751 69.873V69.1554H128.631V72.7447C128.396 72.9143 128.15 73.0624 127.895 73.1883C127.64 73.3149 127.367 73.4201 127.076 73.5052C126.786 73.5897 126.475 73.6526 126.143 73.6941C125.812 73.7356 125.452 73.7563 125.063 73.7563C124.382 73.7563 123.758 73.64 123.19 73.4068C122.623 73.1742 122.134 72.8477 121.724 72.4278C121.313 72.0079 120.994 71.5043 120.765 70.9171C120.535 70.3299 120.421 69.6841 120.421 68.9791C120.421 68.2653 120.533 67.6151 120.758 67.0278C120.983 66.4406 121.304 65.937 121.72 65.5172C122.138 65.0973 122.642 64.7722 123.233 64.5419C123.824 64.3108 124.487 64.1953 125.22 64.1953C125.591 64.1953 125.936 64.2227 126.255 64.2775C126.573 64.3316 126.869 64.4101 127.142 64.5115C127.414 64.6145 127.667 64.7381 127.898 64.884C128.13 65.0299 128.345 65.1935 128.546 65.3765L128.186 65.9511C128.112 66.0689 128.016 66.1274 127.898 66.1274C127.828 66.1274 127.752 66.1029 127.669 66.0555C127.559 65.9941 127.437 65.9207 127.303 65.8334C127.167 65.7467 127.002 65.663 126.808 65.5823C126.614 65.5016 126.385 65.4335 126.121 65.3765C125.856 65.3202 125.544 65.292 125.181 65.292C124.653 65.292 124.175 65.3779 123.747 65.5497C123.319 65.7215 122.955 65.9674 122.654 66.2873C122.352 66.6072 122.121 66.9945 121.96 67.4485C121.798 67.9031 121.717 68.4134 121.717 68.9791C121.717 69.5708 121.801 70.0981 121.969 70.5616C122.138 71.0252 122.374 71.4177 122.68 71.7398C122.986 72.0612 123.347 72.3071 123.767 72.4767C124.186 72.647 124.648 72.7314 125.155 72.7314Z" fill="black"/>
<path fill-rule="evenodd" clip-rule="evenodd" d="M138.147 72.6691H142.316V73.7563H136.842V64.1953H138.147V72.6691Z" fill="black"/>
<mask id="mask0_0_86" style="mask-type:alpha" maskUnits="userSpaceOnUse" x="0" y="0" width="208" height="112">
<path fill-rule="evenodd" clip-rule="evenodd" d="M0 112H208V0H0V112Z" fill="white"/>
</mask>
<g mask="url(#mask0_0_86)">
<path fill-rule="evenodd" clip-rule="evenodd" d="M143.684 73.7563H145.053V64.1953H143.684V73.7563Z" fill="black"/>
<path fill-rule="evenodd" clip-rule="evenodd" d="M151.505 64.2385C151.564 64.268 151.631 64.3263 151.707 64.4149L157.57 71.622C157.557 71.5061 157.547 71.3933 157.542 71.2843C157.538 71.1752 157.535 71.07 157.535 70.9678V64.1953H158.737V73.7563H158.044C157.936 73.7563 157.845 73.7389 157.772 73.7033C157.699 73.6677 157.627 73.6071 157.557 73.5231L151.699 66.3236C151.709 66.4349 151.716 66.5439 151.721 66.6507C151.725 66.7574 151.727 66.8551 151.727 66.9444V73.7563H150.526V64.1953H151.233C151.355 64.1953 151.447 64.2097 151.505 64.2385Z" fill="black"/>
<path fill-rule="evenodd" clip-rule="evenodd" d="M166.947 64.1953V65.2492H162.682V68.4254H166.135V69.4399H162.682V72.7024H166.947V73.7563H161.474V64.1953H166.947Z" fill="black"/>
<path fill-rule="evenodd" clip-rule="evenodd" d="M28.7368 0V64.8807L93.0526 83.3171V18.4364L28.7368 0ZM32.3923 4.88118L89.3971 21.222V78.4359L32.3923 62.0951V4.88118Z" fill="black"/>
<path fill-rule="evenodd" clip-rule="evenodd" d="M64.3158 113.366L0 94.9287V30.0488L64.3158 48.4852V113.366Z" fill="black"/>
<path fill-rule="evenodd" clip-rule="evenodd" d="M28.561 0L-1.36865 30.4969L63.122 49.1707L93.0524 18.6731L28.561 0ZM29.63 4.1921L86.049 20.5279L62.053 44.9786L5.63478 28.6428L29.63 4.1921Z" fill="black"/>
<path fill-rule="evenodd" clip-rule="evenodd" d="M67.0527 109.268L93.0527 82.6783L67.0527 75.1221V109.268Z" fill="black"/>
</g>
</svg>
