<svg width="173" height="135" viewBox="0 0 173 135" fill="none" xmlns="http://www.w3.org/2000/svg">
<mask id="mask0_0_118" style="mask-type:alpha" maskUnits="userSpaceOnUse" x="18" y="0" width="53" height="76">
<path fill-rule="evenodd" clip-rule="evenodd" d="M18.5557 0H70.2595V75.7861H18.5557V0Z" fill="white"/>
</mask>
<g mask="url(#mask0_0_118)">
<path fill-rule="evenodd" clip-rule="evenodd" d="M26.1346 74.3408C19.3651 70.9648 16.6204 62.7558 20.0056 56.0037L44.2944 7.55792C47.6787 0.806786 55.9109 -1.92954 62.6804 1.44557C69.4509 4.8216 72.1946 13.0315 68.8094 19.7826L44.5206 68.2284C41.1363 74.9796 32.9041 77.7159 26.1346 74.3408Z" fill="black"/>
</g>
<mask id="mask1_0_118" style="mask-type:alpha" maskUnits="userSpaceOnUse" x="61" y="0" width="53" height="76">
<path fill-rule="evenodd" clip-rule="evenodd" d="M61.9546 0H113.658V75.7861H61.9546V0Z" fill="white"/>
</mask>
<g mask="url(#mask1_0_118)">
<path fill-rule="evenodd" clip-rule="evenodd" d="M69.5335 74.3408C62.764 70.9648 60.0193 62.7558 63.4045 56.0037L87.6933 7.55792C91.0776 0.806786 99.3098 -1.92954 106.079 1.44557C112.85 4.8216 115.594 13.0315 112.208 19.7826L87.9195 68.2284C84.5352 74.9796 76.303 77.7159 69.5335 74.3408Z" fill="black"/>
</g>
<path fill-rule="evenodd" clip-rule="evenodd" d="M144.91 56.1169C144.91 66.1812 136.729 74.3402 126.637 74.3402C116.545 74.3402 108.363 66.1812 108.363 56.1169C108.363 46.0526 116.545 37.8936 126.637 37.8936C136.729 37.8936 144.91 46.0526 144.91 56.1169Z" fill="black"/>
<path d="M20.0121 94.1941V95.9741H14.1921V88.9741H19.8821V90.7541H16.5121V91.5741H19.4721V93.2741H16.5121V94.1941H20.0121ZM25.3006 95.9741L24.0906 94.1041L22.9106 95.9741H20.2206L22.7506 92.4441L20.3106 88.9741H22.9606L24.1506 90.7341L25.3106 88.9741H27.8506L25.4206 92.3541L28.0006 95.9741H25.3006ZM31.8578 96.1341C31.1178 96.1341 30.4511 95.9808 29.8578 95.6741C29.2644 95.3608 28.7978 94.9275 28.4578 94.3741C28.1244 93.8141 27.9578 93.1808 27.9578 92.4741C27.9578 91.7675 28.1244 91.1375 28.4578 90.5841C28.7978 90.0241 29.2644 89.5908 29.8578 89.2841C30.4511 88.9708 31.1178 88.8141 31.8578 88.8141C32.5378 88.8141 33.1444 88.9341 33.6778 89.1741C34.2111 89.4141 34.6511 89.7608 34.9978 90.2141L33.5078 91.5441C33.0744 90.9975 32.5644 90.7241 31.9778 90.7241C31.4844 90.7241 31.0878 90.8841 30.7878 91.2041C30.4878 91.5175 30.3378 91.9408 30.3378 92.4741C30.3378 93.0075 30.4878 93.4341 30.7878 93.7541C31.0878 94.0675 31.4844 94.2241 31.9778 94.2241C32.5644 94.2241 33.0744 93.9508 33.5078 93.4041L34.9978 94.7341C34.6511 95.1875 34.2111 95.5341 33.6778 95.7741C33.1444 96.0141 32.5378 96.1341 31.8578 96.1341ZM35.6292 88.9741H37.9892V94.1441H41.1492V95.9741H35.6292V88.9741ZM45.1011 96.1341C44.0277 96.1341 43.1911 95.8441 42.5911 95.2641C41.9911 94.6841 41.6911 93.8708 41.6911 92.8241V88.9741H44.0511V92.7541C44.0511 93.2675 44.1411 93.6408 44.3211 93.8741C44.5077 94.1075 44.7744 94.2241 45.1211 94.2241C45.4677 94.2241 45.7311 94.1075 45.9111 93.8741C46.0977 93.6408 46.1911 93.2675 46.1911 92.7541V88.9741H48.5111V92.8241C48.5111 93.8708 48.2111 94.6841 47.6111 95.2641C47.0111 95.8441 46.1744 96.1341 45.1011 96.1341ZM52.1529 96.1341C51.5729 96.1341 51.0062 96.0708 50.4529 95.9441C49.9062 95.8108 49.4562 95.6341 49.1029 95.4141L49.8629 93.6941C50.1962 93.8875 50.5695 94.0441 50.9829 94.1641C51.3962 94.2775 51.7929 94.3341 52.1729 94.3341C52.4995 94.3341 52.7329 94.3041 52.8729 94.2441C53.0129 94.1775 53.0829 94.0808 53.0829 93.9541C53.0829 93.8075 52.9895 93.6975 52.8029 93.6241C52.6229 93.5508 52.3229 93.4708 51.9029 93.3841C51.3629 93.2708 50.9129 93.1508 50.5529 93.0241C50.1929 92.8908 49.8795 92.6775 49.6129 92.3841C49.3462 92.0841 49.2129 91.6808 49.2129 91.1741C49.2129 90.7341 49.3362 90.3341 49.5829 89.9741C49.8295 89.6141 50.1962 89.3308 50.6829 89.1241C51.1762 88.9175 51.7729 88.8141 52.4729 88.8141C52.9529 88.8141 53.4229 88.8675 53.8829 88.9741C54.3495 89.0741 54.7595 89.2241 55.1129 89.4241L54.4029 91.1341C53.7162 90.7875 53.0662 90.6141 52.4529 90.6141C51.8462 90.6141 51.5429 90.7608 51.5429 91.0541C51.5429 91.1941 51.6329 91.3008 51.8129 91.3741C51.9929 91.4408 52.2895 91.5141 52.7029 91.5941C53.2362 91.6941 53.6862 91.8108 54.0529 91.9441C54.4195 92.0708 54.7362 92.2808 55.0029 92.5741C55.2762 92.8675 55.4129 93.2675 55.4129 93.7741C55.4129 94.2141 55.2895 94.6141 55.0429 94.9741C54.7962 95.3275 54.4262 95.6108 53.9329 95.8241C53.4462 96.0308 52.8529 96.1341 52.1529 96.1341ZM56.0651 88.9741H58.4251V95.9741H56.0651V88.9741ZM66.9912 88.9741L64.0312 95.9741H61.7112L58.7512 88.9741H61.2912L62.9612 93.0641L64.6712 88.9741H66.9912ZM73.0425 94.1941V95.9741H67.2225V88.9741H72.9125V90.7541H69.5425V91.5741H72.5025V93.2741H69.5425V94.1941H73.0425Z" fill="black"/>
<path d="M103.459 93.6629C103.959 93.7563 104.339 93.9529 104.599 94.2529C104.865 94.5529 104.999 94.9429 104.999 95.4229C104.999 96.0163 104.782 96.4729 104.349 96.7929C103.915 97.1129 103.272 97.2729 102.419 97.2729H99.2986V90.2729H102.219C102.979 90.2729 103.569 90.4296 103.989 90.7429C104.415 91.0496 104.629 91.4896 104.629 92.0629C104.629 92.4629 104.522 92.7996 104.309 93.0729C104.102 93.3463 103.819 93.5429 103.459 93.6629ZM99.8086 90.7129V93.5029H102.199C102.812 93.5029 103.282 93.3863 103.609 93.1529C103.942 92.9129 104.109 92.5629 104.109 92.1029C104.109 91.6496 103.942 91.3063 103.609 91.0729C103.282 90.8329 102.812 90.7129 102.199 90.7129H99.8086ZM102.419 96.8329C103.099 96.8329 103.612 96.7163 103.959 96.4829C104.312 96.2429 104.489 95.8763 104.489 95.3829C104.489 94.8896 104.312 94.5263 103.959 94.2929C103.612 94.0596 103.099 93.9429 102.419 93.9429H99.8086V96.8329H102.419ZM111.678 97.2729L110.008 94.9329C109.761 94.9663 109.535 94.9829 109.328 94.9829H107.328V97.2729H106.818V90.2729H109.328C110.208 90.2729 110.898 90.4829 111.398 90.9029C111.898 91.3163 112.148 91.8929 112.148 92.6329C112.148 93.1863 112.005 93.6529 111.718 94.0329C111.438 94.4063 111.035 94.6696 110.508 94.8229L112.258 97.2729H111.678ZM109.328 94.5329C110.075 94.5329 110.645 94.3696 111.038 94.0429C111.431 93.7096 111.628 93.2396 111.628 92.6329C111.628 92.0263 111.431 91.5596 111.038 91.2329C110.645 90.8996 110.075 90.7329 109.328 90.7329H107.328V94.5329H109.328ZM118.345 95.3029H114.285L113.395 97.2729H112.845L116.065 90.2729H116.575L119.795 97.2729H119.245L118.345 95.3029ZM118.155 94.8729L116.315 90.8329L114.485 94.8729H118.155ZM126.766 90.2729V97.2729H126.346L121.576 91.1929V97.2729H121.066V90.2729H121.496L126.256 96.3529V90.2729H126.766ZM129.211 90.2729H131.981C132.707 90.2729 133.351 90.4229 133.911 90.7229C134.477 91.0229 134.917 91.4396 135.231 91.9729C135.544 92.4996 135.701 93.0996 135.701 93.7729C135.701 94.4463 135.544 95.0496 135.231 95.5829C134.917 96.1096 134.477 96.5229 133.911 96.8229C133.351 97.1229 132.707 97.2729 131.981 97.2729H129.211V90.2729ZM131.941 96.8129C132.587 96.8129 133.157 96.6863 133.651 96.4329C134.144 96.1729 134.524 95.8129 134.791 95.3529C135.057 94.8929 135.191 94.3663 135.191 93.7729C135.191 93.1796 135.057 92.6529 134.791 92.1929C134.524 91.7329 134.144 91.3763 133.651 91.1229C133.157 90.8629 132.587 90.7329 131.941 90.7329H129.721V96.8129H131.941Z" fill="black"/>
</svg>
