<svg width="135" height="134" viewBox="0 0 135 134" fill="none" xmlns="http://www.w3.org/2000/svg">
<path fill-rule="evenodd" clip-rule="evenodd" d="M98.1816 73.8366H107.727V21.8774H98.1816V73.8366Z" fill="black"/>
<path fill-rule="evenodd" clip-rule="evenodd" d="M46.3638 73.8366H55.9092V21.8774H46.3638V73.8366Z" fill="black"/>
<path fill-rule="evenodd" clip-rule="evenodd" d="M66.8184 0V8.85542H115.28V84.1242H88.8468V41.6821L105.178 25.2688L102.064 22.1385H95.8322L80.0354 38.0143V92.9796H124.091V0H66.8184Z" fill="black"/>
<path fill-rule="evenodd" clip-rule="evenodd" d="M10.9092 0V92.9796H19.6757V8.85542H63.5074V84.1242H37.2077V41.6821L53.4564 25.2688L50.3576 22.1385H44.1599L28.4423 38.0143V92.9796H72.2728V0H10.9092Z" fill="black"/>
<path d="M36.7542 103.416V111.816H34.4262L31.2342 108V111.816H28.4742V103.416H30.8022L33.9942 107.232V103.416H36.7542ZM45.1027 109.68V111.816H38.1187V103.416H44.9467V105.552H40.9027V106.536H44.4547V108.576H40.9027V109.68H45.1027ZM59.7409 103.416L57.0529 111.816H54.0169L52.6609 107.328L51.2329 111.816H48.1969L45.5089 103.416H48.4249L49.8889 108.192L51.4369 103.416H54.0409L55.5049 108.252L57.0529 103.416H59.7409ZM70.8632 107.424C71.3592 107.608 71.7432 107.876 72.0152 108.228C72.2872 108.58 72.4232 109.004 72.4232 109.5C72.4232 110.236 72.1192 110.808 71.5112 111.216C70.9032 111.616 70.0232 111.816 68.8712 111.816H64.1432V103.416H68.6312C69.7512 103.416 70.5952 103.616 71.1632 104.016C71.7392 104.416 72.0272 104.948 72.0272 105.612C72.0272 106.004 71.9272 106.356 71.7272 106.668C71.5352 106.98 71.2472 107.232 70.8632 107.424ZM66.9272 105.396V106.644H68.2472C68.8632 106.644 69.1712 106.436 69.1712 106.02C69.1712 105.604 68.8632 105.396 68.2472 105.396H66.9272ZM68.6312 109.836C69.2552 109.836 69.5672 109.616 69.5672 109.176C69.5672 108.736 69.2552 108.516 68.6312 108.516H66.9272V109.836H68.6312ZM77.0245 109.704H76.2565V111.816H73.4245V103.416H77.4685C78.2445 103.416 78.9205 103.544 79.4965 103.8C80.0725 104.056 80.5165 104.424 80.8285 104.904C81.1405 105.384 81.2965 105.944 81.2965 106.584C81.2965 107.184 81.1605 107.708 80.8885 108.156C80.6165 108.604 80.2245 108.96 79.7125 109.224L81.4765 111.816H78.4525L77.0245 109.704ZM78.4405 106.584C78.4405 106.272 78.3445 106.032 78.1525 105.864C77.9605 105.688 77.6725 105.6 77.2885 105.6H76.2565V107.568H77.2885C77.6725 107.568 77.9605 107.484 78.1525 107.316C78.3445 107.14 78.4405 106.896 78.4405 106.584ZM88.0899 110.352H84.8979L84.3339 111.816H81.4539L85.1259 103.416H87.9099L91.5819 111.816H88.6539L88.0899 110.352ZM87.3099 108.312L86.4939 106.2L85.6779 108.312H87.3099ZM100.314 103.416V111.816H97.9859L94.7939 108V111.816H92.0339V103.416H94.3619L97.5539 107.232V103.416H100.314ZM101.678 103.416H105.818C106.754 103.416 107.578 103.588 108.29 103.932C109.01 104.268 109.566 104.752 109.958 105.384C110.358 106.016 110.558 106.76 110.558 107.616C110.558 108.472 110.358 109.216 109.958 109.848C109.566 110.48 109.01 110.968 108.29 111.312C107.578 111.648 106.754 111.816 105.818 111.816H101.678V103.416ZM105.698 109.608C106.306 109.608 106.79 109.436 107.15 109.092C107.518 108.74 107.702 108.248 107.702 107.616C107.702 106.984 107.518 106.496 107.15 106.152C106.79 105.8 106.306 105.624 105.698 105.624H104.51V109.608H105.698Z" fill="black"/>
</svg>
