<svg width="176" height="108" viewBox="0 0 176 108" fill="none" xmlns="http://www.w3.org/2000/svg">
<path fill-rule="evenodd" clip-rule="evenodd" d="M91.0667 94.9186C91.5769 94.5074 91.832 93.9069 91.832 93.1184C91.832 92.33 91.5722 91.7217 91.0542 91.2936C90.5355 90.8655 89.7999 90.6515 88.8482 90.6515H85.4565V95.5353H88.8732C89.8256 95.5353 90.5573 95.3297 91.0667 94.9186ZM85.4565 88.1091H88.6953C89.5963 88.1091 90.2804 87.912 90.7485 87.5178C91.2149 87.1235 91.4497 86.5576 91.4497 85.8185C91.4497 85.0808 91.2196 84.5095 90.7609 84.1068C90.3023 83.7034 89.5963 83.5024 88.6446 83.5024H85.4565V88.1091ZM94.5232 90.7901C95.1761 91.5877 95.5038 92.5232 95.5038 93.5966C95.5038 95.0911 94.9983 96.2691 93.9873 97.1337C92.9748 97.9976 91.5082 98.4304 89.5877 98.4304H81.8604V80.6582H89.4348C91.2539 80.6582 92.6518 81.0524 93.63 81.8416C94.6075 82.6301 95.0966 83.738 95.0966 85.164C95.0966 86.272 94.8033 87.1774 94.2166 87.8827C93.63 88.5872 92.8609 89.0492 91.9084 89.2671C92.9966 89.485 93.868 89.9924 94.5232 90.7901Z" fill="black"/>
<path fill-rule="evenodd" clip-rule="evenodd" d="M104.633 89.0663H107.653C109.753 89.0663 110.804 88.1685 110.804 86.373C110.804 85.5176 110.547 84.8492 110.035 84.3711C109.524 83.893 108.73 83.6543 107.653 83.6543H104.633V89.0663ZM110.543 98.4304L106.246 91.5077H104.633V98.4304H100.961V80.6582H107.966C110.1 80.6582 111.727 81.1618 112.847 82.1689C113.968 83.176 114.527 84.5018 114.527 86.1465C114.527 87.4885 114.141 88.6126 113.369 89.5196C112.595 90.4259 111.48 91.0295 110.023 91.3313L114.605 98.4304H110.543Z" fill="black"/>
<path fill-rule="evenodd" clip-rule="evenodd" d="M128.915 92.0904L126.203 84.503L123.489 92.0904H128.915ZM129.906 94.8146H122.525L121.22 98.4304H117.333L124.115 80.6582H128.315L135.07 98.4304H131.184L129.906 94.8146Z" fill="black"/>
<path fill-rule="evenodd" clip-rule="evenodd" d="M154.17 98.4304H150.632L142.702 86.3474V98.4304H139.163V80.6582H142.702L150.632 92.842V80.6582H154.17V98.4304Z" fill="black"/>
<mask id="mask0_0_140" style="mask-type:alpha" maskUnits="userSpaceOnUse" x="159" y="80" width="17" height="19">
<path fill-rule="evenodd" clip-rule="evenodd" d="M159.628 80.6582H176V98.4304H159.628V80.6582Z" fill="white"/>
</mask>
<g mask="url(#mask0_0_140)">
<path fill-rule="evenodd" clip-rule="evenodd" d="M170.582 93.7482C171.679 92.7411 172.229 91.3313 172.229 89.5196C172.229 87.6902 171.679 86.272 170.582 85.2649C169.484 84.2585 167.932 83.755 165.928 83.755H163.345V95.2589H165.928C167.932 95.2589 169.484 94.7554 170.582 93.7482ZM174.84 94.1763C174.066 95.5191 172.945 96.5632 171.478 97.3101C170.01 98.0569 168.266 98.4304 166.245 98.4304H159.628V80.6582H166.245C168.266 80.6582 170.01 81.0239 171.478 81.7539C172.945 82.4838 174.066 83.5155 174.84 84.8491C175.612 86.1842 176 87.7403 176 89.5196C176 91.2813 175.612 92.8343 174.84 94.1763Z" fill="black"/>
</g>
<path fill-rule="evenodd" clip-rule="evenodd" d="M58.2434 80.6582C51.2078 80.6582 44.2772 78.779 38.2017 75.2231L45.9474 61.7622C49.6726 63.9422 53.9247 65.0953 58.2434 65.0953C71.7841 65.0953 82.8003 53.9853 82.8003 40.3295C82.8003 26.6737 71.7841 15.5637 58.2434 15.5637C53.9254 15.5637 49.6734 16.716 45.9474 18.8968L38.2017 5.43589C44.278 1.88002 51.2078 0 58.2434 0C80.2935 0 98.2327 18.0918 98.2327 40.3295C98.2327 62.5672 80.2935 80.6582 58.2434 80.6582Z" fill="black"/>
<path fill-rule="evenodd" clip-rule="evenodd" d="M24.5581 68.3543C24.5581 59.2942 31.8885 51.9492 40.9306 51.9492C49.9727 51.9492 57.3023 59.2942 57.3023 68.3543C57.3023 77.4144 49.9727 84.7593 40.9306 84.7593C31.8885 84.7593 24.5581 77.4144 24.5581 68.3543Z" fill="black"/>
<path fill-rule="evenodd" clip-rule="evenodd" d="M40.0468 108C17.9651 108 0 89.9091 0 67.6709C0 45.4335 17.9651 27.3418 40.0468 27.3418C52.0415 27.3418 63.3039 32.6897 70.9457 42.0144L59.0072 51.9371C54.3167 46.2128 47.4056 42.9308 40.0468 42.9308C26.4999 42.9308 15.4791 54.0293 15.4791 67.6709C15.4791 81.3133 26.4999 92.4118 40.0468 92.4118C46.8995 92.4118 53.2583 89.6411 57.9527 84.6092L69.2328 95.2849C61.6924 103.366 51.0546 108 40.0468 108Z" fill="black"/>
</svg>
