<svg width="127" height="140" viewBox="0 0 127 140" fill="none" xmlns="http://www.w3.org/2000/svg">
<mask id="mask0_0_160" style="mask-type:alpha" maskUnits="userSpaceOnUse" x="10" y="128" width="10" height="12">
<path fill-rule="evenodd" clip-rule="evenodd" d="M10 128H20V140H10V128Z" fill="white"/>
<path fill-rule="evenodd" clip-rule="evenodd" d="M10 128H20V140H10V128Z" stroke="white"/>
</mask>
<g mask="url(#mask0_0_160)">
<path fill-rule="evenodd" clip-rule="evenodd" d="M19.1243 137.444C19.2129 137.444 19.2944 137.48 19.3664 137.551L20 138.231C19.5104 138.788 18.9171 139.222 18.2202 139.533C17.5218 139.844 16.6809 140 15.6969 140C14.8347 140 14.0539 139.854 13.3531 139.562C12.6523 139.27 12.0543 138.861 11.5599 138.333C11.0655 137.806 10.6811 137.174 10.409 136.437C10.1368 135.7 10 134.889 10 134.004C10 133.12 10.1463 132.309 10.4382 131.571C10.7301 130.834 11.1399 130.201 11.6682 129.671C12.1966 129.141 12.8287 128.731 13.5659 128.438C14.3023 128.146 15.1155 128 16.0054 128C16.8834 128 17.6412 128.134 18.278 128.402C18.9139 128.67 19.4803 129.032 19.9747 129.491L19.4495 130.22C19.4107 130.275 19.3664 130.32 19.3158 130.355C19.2667 130.391 19.194 130.408 19.0998 130.408C19.0271 130.408 18.9503 130.383 18.8704 130.331C18.789 130.279 18.6932 130.215 18.5817 130.138C18.471 130.062 18.3405 129.98 18.1902 129.892C18.0399 129.805 17.8619 129.723 17.657 129.646C17.4506 129.57 17.2117 129.506 16.9388 129.454C16.6675 129.402 16.3526 129.377 15.9967 129.377C15.3567 129.377 14.7722 129.484 14.2414 129.7C13.7099 129.916 13.2527 130.223 12.8698 130.621C12.4854 131.02 12.1864 131.506 11.9728 132.079C11.7584 132.653 11.6516 133.294 11.6516 134.004C11.6516 134.736 11.7584 135.389 11.9728 135.962C12.1864 136.535 12.479 137.02 12.8484 137.416C13.2178 137.812 13.6561 138.113 14.1623 138.321C14.6678 138.529 15.2128 138.632 15.7966 138.632C16.1525 138.632 16.4729 138.612 16.7561 138.571C17.0392 138.53 17.3019 138.465 17.5439 138.378C17.786 138.291 18.0114 138.18 18.2202 138.046C18.4283 137.913 18.6379 137.753 18.8491 137.567C18.9432 137.486 19.0358 137.444 19.1243 137.444Z" fill="#F6B217"/>
<path fill-rule="evenodd" clip-rule="evenodd" d="M19.1243 137.444C19.2129 137.444 19.2944 137.48 19.3664 137.551L20 138.231C19.5104 138.788 18.9171 139.222 18.2202 139.533C17.5218 139.844 16.6809 140 15.6969 140C14.8347 140 14.0539 139.854 13.3531 139.562C12.6523 139.27 12.0543 138.861 11.5599 138.333C11.0655 137.806 10.6811 137.174 10.409 136.437C10.1368 135.7 10 134.889 10 134.004C10 133.12 10.1463 132.309 10.4382 131.571C10.7301 130.834 11.1399 130.201 11.6682 129.671C12.1966 129.141 12.8287 128.731 13.5659 128.438C14.3023 128.146 15.1155 128 16.0054 128C16.8834 128 17.6412 128.134 18.278 128.402C18.9139 128.67 19.4803 129.032 19.9747 129.491L19.4495 130.22C19.4107 130.275 19.3664 130.32 19.3158 130.355C19.2667 130.391 19.194 130.408 19.0998 130.408C19.0271 130.408 18.9503 130.383 18.8704 130.331C18.789 130.279 18.6932 130.215 18.5817 130.138C18.471 130.062 18.3405 129.98 18.1902 129.892C18.0399 129.805 17.8619 129.723 17.657 129.646C17.4506 129.57 17.2117 129.506 16.9388 129.454C16.6675 129.402 16.3526 129.377 15.9967 129.377C15.3567 129.377 14.7722 129.484 14.2414 129.7C13.7099 129.916 13.2527 130.223 12.8698 130.621C12.4854 131.02 12.1864 131.506 11.9728 132.079C11.7584 132.653 11.6516 133.294 11.6516 134.004C11.6516 134.736 11.7584 135.389 11.9728 135.962C12.1864 136.535 12.479 137.02 12.8484 137.416C13.2178 137.812 13.6561 138.113 14.1623 138.321C14.6678 138.529 15.2128 138.632 15.7966 138.632C16.1525 138.632 16.4729 138.612 16.7561 138.571C17.0392 138.53 17.3019 138.465 17.5439 138.378C17.786 138.291 18.0114 138.18 18.2202 138.046C18.4283 137.913 18.6379 137.753 18.8491 137.567C18.9432 137.486 19.0358 137.444 19.1243 137.444Z" fill="black"/>
</g>
<path fill-rule="evenodd" clip-rule="evenodd" d="M36.3094 134.008C36.3094 133.287 36.2079 132.639 36.0042 132.066C35.7996 131.492 35.5112 131.008 35.1375 130.611C34.7638 130.215 34.3104 129.91 33.7788 129.697C33.2464 129.484 32.652 129.377 31.9964 129.377C31.3448 129.377 30.7528 129.484 30.2204 129.697C29.688 129.91 29.2346 130.215 28.8576 130.611C28.4807 131.008 28.1916 131.492 27.987 132.066C27.7832 132.639 27.6817 133.287 27.6817 134.008C27.6817 134.73 27.7832 135.376 27.987 135.947C28.1916 136.517 28.4807 137.001 28.8576 137.397C29.2346 137.794 29.688 138.097 30.2204 138.307C30.7528 138.518 31.3448 138.623 31.9964 138.623C32.652 138.623 33.2464 138.518 33.7788 138.307C34.3104 138.097 34.7638 137.794 35.1375 137.397C35.5112 137.001 35.7996 136.517 36.0042 135.947C36.2079 135.376 36.3094 134.73 36.3094 134.008ZM38 134.008C38 134.888 37.855 135.695 37.5667 136.43C37.2775 137.165 36.87 137.798 36.3432 138.328C35.8173 138.857 35.185 139.269 34.4457 139.562C33.7063 139.854 32.8904 140 31.9964 140C31.1007 140 30.2857 139.854 29.5495 139.562C28.8133 139.269 28.1827 138.857 27.656 138.328C27.1292 137.798 26.7225 137.165 26.4333 136.43C26.145 135.695 26 134.888 26 134.008C26 133.129 26.145 132.321 26.4333 131.586C26.7225 130.851 27.1292 130.218 27.656 129.685C28.1827 129.152 28.8133 128.738 29.5495 128.443C30.2857 128.148 31.1007 128 31.9964 128C32.8904 128 33.7063 128.148 34.4457 128.443C35.185 128.738 35.8173 129.152 36.3432 129.685C36.87 130.218 37.2775 130.851 37.5667 131.586C37.855 132.321 38 133.129 38 134.008Z" fill="#F6B217"/>
<path fill-rule="evenodd" clip-rule="evenodd" d="M36.3094 134.008C36.3094 133.287 36.2079 132.639 36.0042 132.066C35.7996 131.492 35.5112 131.008 35.1375 130.611C34.7638 130.215 34.3104 129.91 33.7788 129.697C33.2464 129.484 32.652 129.377 31.9964 129.377C31.3448 129.377 30.7528 129.484 30.2204 129.697C29.688 129.91 29.2346 130.215 28.8576 130.611C28.4807 131.008 28.1916 131.492 27.987 132.066C27.7832 132.639 27.6817 133.287 27.6817 134.008C27.6817 134.73 27.7832 135.376 27.987 135.947C28.1916 136.517 28.4807 137.001 28.8576 137.397C29.2346 137.794 29.688 138.097 30.2204 138.307C30.7528 138.518 31.3448 138.623 31.9964 138.623C32.652 138.623 33.2464 138.518 33.7788 138.307C34.3104 138.097 34.7638 137.794 35.1375 137.397C35.5112 137.001 35.7996 136.517 36.0042 135.947C36.2079 135.376 36.3094 134.73 36.3094 134.008ZM38 134.008C38 134.888 37.855 135.695 37.5667 136.43C37.2775 137.165 36.87 137.798 36.3432 138.328C35.8173 138.857 35.185 139.269 34.4457 139.562C33.7063 139.854 32.8904 140 31.9964 140C31.1007 140 30.2857 139.854 29.5495 139.562C28.8133 139.269 28.1827 138.857 27.656 138.328C27.1292 137.798 26.7225 137.165 26.4333 136.43C26.145 135.695 26 134.888 26 134.008C26 133.129 26.145 132.321 26.4333 131.586C26.7225 130.851 27.1292 130.218 27.656 129.685C28.1827 129.152 28.8133 128.738 29.5495 128.443C30.2857 128.148 31.1007 128 31.9964 128C32.8904 128 33.7063 128.148 34.4457 128.443C35.185 128.738 35.8173 129.152 36.3432 129.685C36.87 130.218 37.2775 130.851 37.5667 131.586C37.855 132.321 38 133.129 38 134.008Z" fill="black"/>
<path fill-rule="evenodd" clip-rule="evenodd" d="M50.3602 136.085C50.4214 136.234 50.481 136.382 50.5389 136.533C50.5968 136.377 50.658 136.227 50.7216 136.085C50.7861 135.943 50.8589 135.799 50.9399 135.654L55.1683 128.276C55.2443 128.148 55.3229 128.07 55.4048 128.042C55.4858 128.014 55.6024 128 55.7529 128H57V140H55.5172V131.182C55.5172 131.065 55.5205 130.939 55.5263 130.805C55.5321 130.672 55.5412 130.534 55.5528 130.395L51.2716 137.898C51.126 138.149 50.9226 138.275 50.6613 138.275H50.4165C50.1552 138.275 49.9517 138.149 49.8062 137.898L45.4298 130.37C45.4472 130.515 45.4596 130.657 45.4687 130.797C45.4778 130.937 45.4819 131.065 45.4819 131.182V140H44V128H45.2462C45.3976 128 45.5142 128.014 45.5952 128.042C45.6763 128.07 45.7557 128.148 45.8309 128.276L50.1469 135.663C50.2279 135.796 50.2999 135.938 50.3602 136.085Z" fill="#F6B217"/>
<path fill-rule="evenodd" clip-rule="evenodd" d="M50.3602 136.085C50.4214 136.234 50.481 136.382 50.5389 136.533C50.5968 136.377 50.658 136.227 50.7216 136.085C50.7861 135.943 50.8589 135.799 50.9399 135.654L55.1683 128.276C55.2443 128.148 55.3229 128.07 55.4048 128.042C55.4858 128.014 55.6024 128 55.7529 128H57V140H55.5172V131.182C55.5172 131.065 55.5205 130.939 55.5263 130.805C55.5321 130.672 55.5412 130.534 55.5528 130.395L51.2716 137.898C51.126 138.149 50.9226 138.275 50.6613 138.275H50.4165C50.1552 138.275 49.9517 138.149 49.8062 137.898L45.4298 130.37C45.4472 130.515 45.4596 130.657 45.4687 130.797C45.4778 130.937 45.4819 131.065 45.4819 131.182V140H44V128H45.2462C45.3976 128 45.5142 128.014 45.5952 128.042C45.6763 128.07 45.7557 128.148 45.8309 128.276L50.1469 135.663C50.2279 135.796 50.2999 135.938 50.3602 136.085Z" fill="black"/>
<path fill-rule="evenodd" clip-rule="evenodd" d="M65.6135 134.222H67.5362C67.9984 134.222 68.4059 134.16 68.7611 134.038C69.1148 133.915 69.4113 133.743 69.6507 133.522C69.891 133.302 70.0718 133.039 70.1939 132.731C70.3167 132.424 70.3786 132.086 70.3786 131.718C70.3786 130.953 70.1431 130.356 69.6714 129.926C69.2004 129.496 68.4892 129.281 67.5362 129.281H65.6135V134.222ZM65.6135 135.512V140H64V128H67.5362C68.2942 128 68.953 128.087 69.5128 128.264C70.0733 128.439 70.5372 128.689 70.9051 129.013C71.2729 129.337 71.5465 129.727 71.728 130.186C71.9088 130.643 72 131.154 72 131.718C72 132.276 71.9025 132.787 71.7074 133.251C71.5116 133.714 71.227 134.113 70.8503 134.448C70.4745 134.783 70.0075 135.044 69.4501 135.231C68.8928 135.418 68.2545 135.512 67.5362 135.512H65.6135Z" fill="#F6B217"/>
<path fill-rule="evenodd" clip-rule="evenodd" d="M65.6135 134.222H67.5362C67.9984 134.222 68.4059 134.16 68.7611 134.038C69.1148 133.915 69.4113 133.743 69.6507 133.522C69.891 133.302 70.0718 133.039 70.1939 132.731C70.3167 132.424 70.3786 132.086 70.3786 131.718C70.3786 130.953 70.1431 130.356 69.6714 129.926C69.2004 129.496 68.4892 129.281 67.5362 129.281H65.6135V134.222ZM65.6135 135.512V140H64V128H67.5362C68.2942 128 68.953 128.087 69.5128 128.264C70.0733 128.439 70.5372 128.689 70.9051 129.013C71.2729 129.337 71.5465 129.727 71.728 130.186C71.9088 130.643 72 131.154 72 131.718C72 132.276 71.9025 132.787 71.7074 133.251C71.5116 133.714 71.227 134.113 70.8503 134.448C70.4745 134.783 70.0075 135.044 69.4501 135.231C68.8928 135.418 68.2545 135.512 67.5362 135.512H65.6135Z" fill="black"/>
<path fill-rule="evenodd" clip-rule="evenodd" d="M79.3093 135.545H83.6915L81.8488 130.663C81.7276 130.362 81.6103 129.985 81.4953 129.533C81.4355 129.761 81.3773 129.972 81.3198 130.165C81.2631 130.357 81.2064 130.526 81.152 130.672L79.3093 135.545ZM87 140H85.771C85.6297 140 85.5147 139.964 85.4277 139.891C85.3407 139.819 85.2746 139.727 85.2311 139.615L84.1335 136.717H78.8673L77.7696 139.615C77.7308 139.716 77.6655 139.805 77.5731 139.883C77.4799 139.961 77.3649 140 77.2282 140H76L80.6929 128H82.3064L87 140Z" fill="#F6B217"/>
<path fill-rule="evenodd" clip-rule="evenodd" d="M79.3093 135.545H83.6915L81.8488 130.663C81.7276 130.362 81.6103 129.985 81.4953 129.533C81.4355 129.761 81.3773 129.972 81.3198 130.165C81.2631 130.357 81.2064 130.526 81.152 130.672L79.3093 135.545ZM87 140H85.771C85.6297 140 85.5147 139.964 85.4277 139.891C85.3407 139.819 85.2746 139.727 85.2311 139.615L84.1335 136.717H78.8673L77.7696 139.615C77.7308 139.716 77.6655 139.805 77.5731 139.883C77.4799 139.961 77.3649 140 77.2282 140H76L80.6929 128H82.3064L87 140Z" fill="black"/>
<path fill-rule="evenodd" clip-rule="evenodd" d="M94.1916 128.054C94.2635 128.091 94.3451 128.164 94.4373 128.276L101.58 137.321C101.563 137.176 101.551 137.035 101.546 136.898C101.54 136.761 101.537 136.628 101.537 136.5V128H103V140H102.157C102.025 140 101.914 139.979 101.825 139.933C101.736 139.889 101.649 139.813 101.563 139.707L94.4283 130.671C94.4398 130.811 94.4479 130.948 94.4545 131.081C94.4602 131.215 94.4626 131.338 94.4626 131.45V140H93V128H93.8611C94.0096 128 94.1198 128.018 94.1916 128.054Z" fill="#F6B217"/>
<path fill-rule="evenodd" clip-rule="evenodd" d="M94.1916 128.054C94.2635 128.091 94.3451 128.164 94.4373 128.276L101.58 137.321C101.563 137.176 101.551 137.035 101.546 136.898C101.54 136.761 101.537 136.628 101.537 136.5V128H103V140H102.157C102.025 140 101.914 139.979 101.825 139.933C101.736 139.889 101.649 139.813 101.563 139.707L94.4283 130.671C94.4398 130.811 94.4479 130.948 94.4545 131.081C94.4602 131.215 94.4626 131.338 94.4626 131.45V140H93V128H93.8611C94.0096 128 94.1198 128.018 94.1916 128.054Z" fill="black"/>
<path fill-rule="evenodd" clip-rule="evenodd" d="M115.349 135.227V140H113.642V135.227L109 128H110.503C110.656 128 110.777 128.036 110.865 128.109C110.954 128.181 111.03 128.271 111.095 128.376L113.996 133.041C114.113 133.236 114.212 133.421 114.291 133.594C114.372 133.767 114.444 133.937 114.508 134.104C114.573 133.931 114.643 133.758 114.721 133.585C114.798 133.412 114.894 133.231 115.012 133.041L117.904 128.376C117.957 128.288 118.029 128.203 118.121 128.122C118.212 128.041 118.332 128 118.479 128H120L115.349 135.227Z" fill="#F6B217"/>
<path fill-rule="evenodd" clip-rule="evenodd" d="M115.349 135.227V140H113.642V135.227L109 128H110.503C110.656 128 110.777 128.036 110.865 128.109C110.954 128.181 111.03 128.271 111.095 128.376L113.996 133.041C114.113 133.236 114.212 133.421 114.291 133.594C114.372 133.767 114.444 133.937 114.508 134.104C114.573 133.931 114.643 133.758 114.721 133.585C114.798 133.412 114.894 133.231 115.012 133.041L117.904 128.376C117.957 128.288 118.029 128.203 118.121 128.122C118.212 128.041 118.332 128 118.479 128H120L115.349 135.227Z" fill="black"/>
<path fill-rule="evenodd" clip-rule="evenodd" d="M50 106.779C50.7062 106.867 51.4173 106.939 52.1308 107C63.1219 102.162 72.4022 94.1904 78.8825 83.8378C85.1637 73.8017 88.2595 62.4228 87.983 50.8849L75.9962 39C80.8666 64.091 71.3106 90.6502 50 106.779Z" fill="#F6B217"/>
<path fill-rule="evenodd" clip-rule="evenodd" d="M50 106.779C50.7062 106.867 51.4173 106.939 52.1308 107C63.1219 102.162 72.4022 94.1904 78.8825 83.8378C85.1637 73.8017 88.2595 62.4228 87.983 50.8849L75.9962 39C80.8666 64.091 71.3106 90.6502 50 106.779Z" fill="black"/>
<path fill-rule="evenodd" clip-rule="evenodd" d="M46 106.937C46.1071 106.958 46.2141 106.98 46.322 107C68.7995 90.7012 78.4394 62.2528 72.0773 36.0871L55.2838 19C68.7725 46.911 66.0475 81.3386 46 106.937Z" fill="#F6B217"/>
<path fill-rule="evenodd" clip-rule="evenodd" d="M46 106.937C46.1071 106.958 46.2141 106.98 46.322 107C68.7995 90.7012 78.4394 62.2528 72.0773 36.0871L55.2838 19C68.7725 46.911 66.0475 81.3386 46 106.937Z" fill="black"/>
<path fill-rule="evenodd" clip-rule="evenodd" d="M103.176 65C100.333 77.8588 93.497 89.4286 83.3997 98.2316C80.4493 100.804 77.3004 103.059 74 105C90.499 100.184 103.855 87.7759 110 71.8408L103.176 65Z" fill="#F6B217"/>
<path fill-rule="evenodd" clip-rule="evenodd" d="M103.176 65C100.333 77.8588 93.497 89.4286 83.3997 98.2316C80.4493 100.804 77.3004 103.059 74 105C90.499 100.184 103.855 87.7759 110 71.8408L103.176 65Z" fill="black"/>
<path fill-rule="evenodd" clip-rule="evenodd" d="M100 62.7627L90.1972 53C90.0441 64.1615 86.8548 75.1099 80.7921 84.839C74.869 94.3446 66.6753 101.908 57 106.999C57.0152 106.999 57.0305 107 57.0449 107H57.0457C59.2721 107 61.4688 106.866 63.6295 106.609C81.9739 99.1448 96.0018 82.8804 100 62.7627Z" fill="#F6B217"/>
<path fill-rule="evenodd" clip-rule="evenodd" d="M100 62.7627L90.1972 53C90.0441 64.1615 86.8548 75.1099 80.7921 84.839C74.869 94.3446 66.6753 101.908 57 106.999C57.0152 106.999 57.0305 107 57.0449 107H57.0457C59.2721 107 61.4688 106.866 63.6295 106.609C81.9739 99.1448 96.0018 82.8804 100 62.7627Z" fill="black"/>
<mask id="mask1_0_160" style="mask-type:alpha" maskUnits="userSpaceOnUse" x="0" y="0" width="60" height="106">
<path fill-rule="evenodd" clip-rule="evenodd" d="M0 0H60V106H0V0Z" fill="white"/>
<path fill-rule="evenodd" clip-rule="evenodd" d="M0 0H60V106H0V0Z" stroke="white"/>
</mask>
<g mask="url(#mask1_0_160)">
<path fill-rule="evenodd" clip-rule="evenodd" d="M47.1395 11.761L35.4682 0C14.7769 8.06008 0 28.3535 0 51.9584C0 77.9839 17.9617 99.9833 42.0094 106C64.4184 78.6003 65.6202 40.2401 47.1395 11.761Z" fill="#F6B217"/>
<path fill-rule="evenodd" clip-rule="evenodd" d="M47.1395 11.761L35.4682 0C14.7769 8.06008 0 28.3535 0 51.9584C0 77.9839 17.9617 99.9833 42.0094 106C64.4184 78.6003 65.6202 40.2401 47.1395 11.761Z" fill="black"/>
</g>
<path fill-rule="evenodd" clip-rule="evenodd" d="M127 61.2278C127 30.8526 102.147 6 71.7716 6C64.8136 6 58.1462 7.30761 52 9.68414L123.317 81C125.692 74.8531 127 68.1865 127 61.2278Z" fill="#F6B217"/>
<path fill-rule="evenodd" clip-rule="evenodd" d="M127 61.2278C127 30.8526 102.147 6 71.7716 6C64.8136 6 58.1462 7.30761 52 9.68414L123.317 81C125.692 74.8531 127 68.1865 127 61.2278Z" fill="black"/>
</svg>
