<svg width="226" height="81" viewBox="0 0 226 81" fill="none" xmlns="http://www.w3.org/2000/svg">
<g clip-path="url(#clip0_0_226)">
<path fill-rule="evenodd" clip-rule="evenodd" d="M0 74.9753H219.981V0.68457H0V74.9753Z" stroke="black"/>
<path fill-rule="evenodd" clip-rule="evenodd" d="M219.981 6.70947V74.9743H6.01855V81.0002H226V6.70947H219.981Z" fill="black"/>
<g clip-path="url(#clip1_0_226)">
<mask id="mask0_0_226" style="mask-type:alpha" maskUnits="userSpaceOnUse" x="14" y="0" width="61" height="75">
<path fill-rule="evenodd" clip-rule="evenodd" d="M14.2383 0H74.8927V74.9755H14.2383V0Z" fill="white"/>
</mask>
<g mask="url(#mask0_0_226)">
<path d="M50.7016 42.0088H46.6591C46.192 42.0088 45.8147 41.892 45.5272 41.6584C45.2398 41.4249 45.0242 41.1284 44.8804 40.7691L41.2691 31.4444H23.9403L20.329 40.7691C20.2032 41.0925 19.9876 41.38 19.6822 41.6315C19.3767 41.883 18.9994 42.0088 18.5503 42.0088H14.5078L29.9501 3.38944H35.2593L50.7016 42.0088ZM25.3956 27.6714H39.8138L33.7501 11.9595C33.3548 10.9893 32.9685 9.77659 32.5912 8.32129C32.3936 9.05792 32.196 9.74065 31.9983 10.3695C31.8187 10.9804 31.639 11.5194 31.4593 11.9865L25.3956 27.6714Z" fill="black"/>
<path d="M45.4951 48.6504L45.7318 48.5701L45.6742 48.4004H45.4951V48.6504ZM50.8032 64.2964L50.5664 64.3767L50.624 64.5464H50.8032V64.2964ZM57.6595 64.2964V64.5464H58.0088L57.8961 64.2157L57.6595 64.2964ZM40.704 14.5557L40.9406 14.475L40.8829 14.3057H40.704V14.5557ZM32.9627 14.5557V14.3057H32.7836L32.726 14.4753L32.9627 14.5557ZM16.0811 64.2964L15.8443 64.2161L15.7322 64.5464H16.0811V64.2964ZM22.7158 64.2964V64.5464H22.8966L22.9532 64.3747L22.7158 64.2964ZM27.8762 48.6504V48.4004H27.6954L27.6388 48.5721L27.8762 48.6504ZM29.2029 43.6323L28.9661 43.5522L28.8544 43.8823H29.2029V43.6323ZM34.0692 29.2405L34.3061 29.3206L34.3075 29.316L34.0692 29.2405ZM36.5762 20.2365V19.9865H36.3811L36.3337 20.1758L36.5762 20.2365ZM36.7226 20.2365L36.9647 20.1745L36.9166 19.9865H36.7226V20.2365ZM39.3034 29.3144L39.5401 29.234L39.5401 29.2338L39.3034 29.3144ZM44.1684 43.6323V43.8823H44.5174L44.4051 43.5518L44.1684 43.6323ZM45.2583 48.7307L50.5664 64.3767L51.0399 64.2161L45.7318 48.5701L45.2583 48.7307ZM50.8032 64.5464H57.6595V64.0464H50.8032V64.5464ZM57.8961 64.2157L40.9406 14.475L40.4673 14.6363L57.4229 64.3771L57.8961 64.2157ZM40.704 14.3057H32.9627V14.8057H40.704V14.3057ZM32.726 14.4753L15.8443 64.2161L16.3178 64.3768L33.1995 14.636L32.726 14.4753ZM16.0811 64.5464H22.7158V64.0464H16.0811V64.5464ZM22.9532 64.3747L28.1136 48.7287L27.6388 48.5721L22.4784 64.2181L22.9532 64.3747ZM27.8762 48.9004H45.4951V48.4004H27.8762V48.9004ZM29.4397 43.7123L34.306 29.3205L33.8324 29.1604L28.9661 43.5522L29.4397 43.7123ZM34.3075 29.316C35.2685 26.2832 36.0796 23.2517 36.8187 20.2972L36.3337 20.1758C35.5957 23.1254 34.7875 26.1459 33.8309 29.165L34.3075 29.316ZM36.5762 20.4865H36.7226V19.9865H36.5762V20.4865ZM36.4804 20.2985C37.217 23.1759 37.9566 26.1378 39.0668 29.3951L39.5401 29.2338C38.4373 25.9982 37.7025 23.056 36.9647 20.1745L36.4804 20.2985ZM39.0667 29.3948L43.9317 43.7127L44.4051 43.5518L39.5401 29.234L39.0667 29.3948ZM44.1684 43.3823H29.2029V43.8823H44.1684V43.3823Z" fill="black"/>
<path d="M74.2088 0.68457V74.9753" stroke="black"/>
</g>
</g>
<path d="M88.8342 21.8989H90.3373L87.7881 14.7997H86.1326L83.5834 21.8989H85.0764L85.5436 20.5481H88.367L88.8342 21.8989ZM87.9811 19.4106H85.9295L86.9553 16.445L87.9811 19.4106ZM95.198 17.0137C95.198 17.6536 94.8426 18.07 94.0504 18.07H92.8621V15.988H94.0504C94.8426 15.988 95.198 16.3841 95.198 17.0137ZM91.4402 14.8098V21.8989H92.8621V19.1364H93.5324L95.0965 21.8989H96.7418L95.0457 19.0247C96.1832 18.72 96.6605 17.8466 96.6605 16.9833C96.6605 15.795 95.8074 14.8098 94.1012 14.8098H91.4402ZM97.7513 18.3442C97.7513 20.4669 99.3052 21.9599 101.347 21.9599C102.921 21.9599 104.201 21.127 104.678 19.6645H103.043C102.708 20.3552 102.098 20.6903 101.336 20.6903C100.097 20.6903 99.2138 19.7763 99.2138 18.3442C99.2138 16.902 100.097 15.9981 101.336 15.9981C102.098 15.9981 102.708 16.3333 103.043 17.0137H104.678C104.201 15.5614 102.921 14.7184 101.347 14.7184C99.3052 14.7184 97.7513 16.2216 97.7513 18.3442ZM110.501 21.8989H111.923V14.8098H110.501V17.7247H107.464V14.8098H106.042V21.8989H107.464V18.8825H110.501V21.8989ZM113.472 21.8989H114.894V14.8098H113.472V21.8989ZM116.073 15.9575H117.962V21.8989H119.384V15.9575H121.273V14.8098H116.073V15.9575ZM126.574 14.7997H122.461V21.8989H126.574V20.7411H123.883V18.8622H126.269V17.7348H123.883V15.9575H126.574V14.7997ZM127.671 18.3442C127.671 20.4669 129.225 21.9599 131.266 21.9599C132.84 21.9599 134.12 21.127 134.597 19.6645H132.962C132.627 20.3552 132.018 20.6903 131.256 20.6903C130.017 20.6903 129.133 19.7763 129.133 18.3442C129.133 16.902 130.017 15.9981 131.256 15.9981C132.018 15.9981 132.627 16.3333 132.962 17.0137H134.597C134.12 15.5614 132.84 14.7184 131.266 14.7184C129.225 14.7184 127.671 16.2216 127.671 18.3442ZM135.586 15.9575H137.475V21.8989H138.897V15.9575H140.786V14.8098H135.586V15.9575ZM141.953 19.1872C141.953 21.056 143.233 21.97 144.787 21.97C146.341 21.97 147.681 21.056 147.681 19.1872V14.8098H146.249V19.1974C146.249 20.1724 145.721 20.6802 144.807 20.6802C143.903 20.6802 143.375 20.1724 143.375 19.1974V14.8098H141.953V19.1872ZM152.963 17.0137C152.963 17.6536 152.608 18.07 151.815 18.07H150.627V15.988H151.815C152.608 15.988 152.963 16.3841 152.963 17.0137ZM149.205 14.8098V21.8989H150.627V19.1364H151.297L152.862 21.8989H154.507L152.811 19.0247C153.948 18.72 154.426 17.8466 154.426 16.9833C154.426 15.795 153.572 14.8098 151.866 14.8098H149.205ZM159.975 14.7997H155.862V21.8989H159.975V20.7411H157.284V18.8622H159.67V17.7348H157.284V15.9575H159.975V14.7997Z" fill="black"/>
<path d="M88.7733 33.1426C88.8241 32.1676 88.1334 31.345 86.8029 31.345C85.5029 31.345 84.7209 32.0965 84.7209 33.0614C84.7209 33.5286 84.8631 33.9145 85.2389 34.3716C84.1928 34.8388 83.6748 35.6208 83.6748 36.5349C83.6748 37.8552 84.7107 38.7083 86.2951 38.7083C87.26 38.7083 88.042 38.4138 88.7022 37.8247L89.4741 38.5864H91.2209L89.5045 36.8903C89.6569 36.6567 89.7991 36.413 89.9412 36.1388L90.6522 34.8895H89.1694L88.5905 35.8544C88.5701 35.8849 88.56 35.9153 88.5397 35.9356L86.7522 34.1684C86.3053 33.7012 86.1022 33.3966 86.1022 33.0512C86.1022 32.7059 86.3764 32.452 86.7623 32.452C87.1381 32.452 87.4123 32.6856 87.392 33.1426H88.7733ZM86.3358 37.5302C85.5639 37.5302 85.0764 37.0528 85.0764 36.4536C85.0764 35.9356 85.3912 35.5091 86.0615 35.2145L87.8084 36.9411C87.392 37.327 86.9147 37.5302 86.3358 37.5302ZM97.1232 31.4973H94.645V38.5864H97.1232C99.388 38.5864 100.861 37.195 100.861 35.052C100.861 32.8989 99.388 31.4973 97.1232 31.4973ZM96.0669 37.3778V32.6958H97.0724C98.5654 32.6958 99.4083 33.5794 99.4083 35.052C99.4083 36.5247 98.5654 37.3778 97.0724 37.3778H96.0669ZM106.188 31.4872H102.075V38.5864H106.188V37.4286H103.497V35.5497H105.884V34.4223H103.497V32.645H106.188V31.4872ZM112.587 36.5349C112.587 34.0364 108.951 34.8286 108.951 33.4067C108.951 32.8278 109.367 32.5536 109.926 32.5739C110.535 32.5841 110.911 32.9497 110.941 33.4169H112.506C112.414 32.1372 111.419 31.3958 109.966 31.3958C108.504 31.3958 107.468 32.1676 107.468 33.4473C107.458 36.0169 111.114 35.0927 111.114 36.6263C111.114 37.1341 110.718 37.4895 110.048 37.4895C109.388 37.4895 109.012 37.1138 108.971 36.545H107.448C107.468 37.8856 108.605 38.6575 110.078 38.6575C111.693 38.6575 112.587 37.652 112.587 36.5349ZM113.969 38.5864H115.391V31.4973H113.969V38.5864ZM120.217 31.4059C118.165 31.4059 116.601 32.9091 116.601 35.0317C116.601 37.1544 118.165 38.6474 120.227 38.6474C122.116 38.6474 123.406 37.327 123.69 35.8849V34.6458H119.851V35.7325H122.288C122.075 36.738 121.374 37.3677 120.277 37.3677C118.957 37.3677 118.063 36.4739 118.063 35.0317C118.063 33.62 118.947 32.7161 120.217 32.7161C120.968 32.7161 121.557 33.0309 121.882 33.6302H123.517C123.06 32.2083 121.801 31.4059 120.217 31.4059ZM129.533 31.4872V36.3622L126.314 31.4872H124.892V38.5864H126.314V33.7216L129.533 38.5864H130.955V31.4872H129.533Z" fill="black"/>
<path d="M88.9764 53.2224C88.9764 50.7239 85.3404 51.5161 85.3404 50.0942C85.3404 49.5153 85.7568 49.2411 86.3154 49.2614C86.9248 49.2716 87.3006 49.6372 87.3311 50.1044H88.8951C88.8037 48.8247 87.8084 48.0833 86.3561 48.0833C84.8936 48.0833 83.8576 48.8551 83.8576 50.1348C83.8475 52.7044 87.5037 51.7802 87.5037 53.3138C87.5037 53.8216 87.1076 54.177 86.4373 54.177C85.7772 54.177 85.4014 53.8013 85.3608 53.2325H83.8373C83.8576 54.5731 84.9951 55.345 86.4678 55.345C88.0826 55.345 88.9764 54.3395 88.9764 53.2224ZM89.9833 49.3325H91.8724V55.2739H93.2943V49.3325H95.1834V48.1848H89.9833V49.3325ZM96.3505 52.5622C96.3505 54.431 97.6302 55.345 99.1841 55.345C100.738 55.345 102.079 54.431 102.079 52.5622V48.1848H100.647V52.5724C100.647 53.5474 100.118 54.0552 99.2044 54.0552C98.3005 54.0552 97.7724 53.5474 97.7724 52.5724V48.1848H96.3505V52.5622ZM106.081 48.1848H103.602V55.2739H106.081C108.345 55.2739 109.818 53.8825 109.818 51.7395C109.818 49.5864 108.345 48.1848 106.081 48.1848ZM105.024 54.0653V49.3833H106.03C107.523 49.3833 108.366 50.2669 108.366 51.7395C108.366 53.2122 107.523 54.0653 106.03 54.0653H105.024ZM111.032 55.2739H112.454V48.1848H111.032V55.2739ZM120.926 51.7091C120.926 49.5864 119.321 48.0833 117.3 48.0833C115.299 48.0833 113.664 49.5864 113.664 51.7091C113.664 53.8419 115.299 55.345 117.3 55.345C119.311 55.345 120.926 53.8419 120.926 51.7091ZM115.126 51.7091C115.126 50.2669 116.01 49.363 117.3 49.363C118.579 49.363 119.463 50.2669 119.463 51.7091C119.463 53.1513 118.579 54.0755 117.3 54.0755C116.01 54.0755 115.126 53.1513 115.126 51.7091ZM123.626 54.5122C123.626 54.045 123.261 53.6794 122.763 53.6794C122.245 53.6794 121.88 54.045 121.88 54.5122C121.88 54.9794 122.245 55.345 122.763 55.345C123.261 55.345 123.626 54.9794 123.626 54.5122Z" fill="black"/>
</g>
<defs>
<clipPath id="clip0_0_226">
<rect width="226" height="81" fill="white"/>
</clipPath>
<clipPath id="clip1_0_226">
<rect width="60.6545" height="74.9755" fill="white" transform="translate(14.2383)"/>
</clipPath>
</defs>
</svg>
