<svg width="147" height="106" viewBox="0 0 147 106" fill="none" xmlns="http://www.w3.org/2000/svg">
<path fill-rule="evenodd" clip-rule="evenodd" d="M29.9443 51.6409C24.7038 51.6409 20.4165 47.3603 20.4165 42.1281C20.4165 36.8958 24.7038 32.6152 29.9443 32.6152C35.1847 32.6152 39.4721 36.8958 39.4721 42.1281C39.4721 47.3603 35.1847 51.6409 29.9443 51.6409Z" fill="black"/>
<path fill-rule="evenodd" clip-rule="evenodd" d="M103.444 28.711C103.444 12.9196 90.2753 0 74.1807 0H74.1801C58.0854 0 44.9165 12.9196 44.9165 28.711V70.6667C44.9165 70.6667 103.439 64.2739 103.444 28.7156C103.444 28.7143 103.444 28.7123 103.444 28.711Z" fill="black"/>
<mask id="mask0_0_239" style="mask-type:alpha" maskUnits="userSpaceOnUse" x="0" y="57" width="40" height="49">
<path fill-rule="evenodd" clip-rule="evenodd" d="M0 57.0771H39.4722V106H0V57.0771Z" fill="white"/>
</mask>
<g mask="url(#mask0_0_239)">
<path fill-rule="evenodd" clip-rule="evenodd" d="M19.7362 91.3466C16.884 91.3466 14.5499 88.9958 14.5499 86.1232C14.5499 83.2506 16.884 80.8999 19.7362 80.8999C22.5884 80.8999 24.9225 83.2506 24.9225 86.1232C24.9225 88.9958 22.5884 91.3466 19.7362 91.3466ZM0 86.1187C0 86.12 0 86.1219 0 86.1232C0 97.0554 8.88162 106 19.7362 106C30.5908 106 39.4724 97.0554 39.4724 86.1232V57.0771C39.4724 57.0771 0.00516824 61.5028 0 86.1187Z" fill="black"/>
</g>
<path fill-rule="evenodd" clip-rule="evenodd" d="M49.7064 92.8917C48.6358 92.3063 47.7969 91.4986 47.1898 90.4661C46.5814 89.4349 46.2778 88.2707 46.2778 86.9749C46.2778 85.6791 46.5847 84.5149 47.1984 83.483C47.812 82.4511 48.6542 81.6428 49.7255 81.0574C50.7968 80.4727 51.9959 80.1797 53.324 80.1797C54.4006 80.1797 55.3843 80.3682 56.2733 80.7459C57.1628 81.1236 57.9141 81.6713 58.5278 82.3883L56.9495 83.8792C55.998 82.8474 54.8266 82.3314 53.436 82.3314C52.5345 82.3314 51.7266 82.5299 51.0128 82.9261C50.2984 83.3223 49.7413 83.8733 49.3403 84.5778C48.9393 85.2822 48.7392 86.0813 48.7392 86.9749C48.7392 87.8679 48.9393 88.6669 49.3403 89.3714C49.7413 90.0765 50.2984 90.6268 51.0128 91.023C51.7266 91.4193 52.5345 91.6177 53.436 91.6177C54.8266 91.6177 55.998 91.0958 56.9495 90.0514L58.5278 91.5608C57.9141 92.2785 57.1589 92.8255 56.264 93.2032C55.3685 93.5809 54.3822 93.7694 53.3049 93.7694C51.9768 93.7694 50.7778 93.4771 49.7064 92.8917Z" fill="black"/>
<path fill-rule="evenodd" clip-rule="evenodd" d="M68.9689 91.0236C69.6426 90.6267 70.1715 90.0737 70.5574 89.3626C70.9427 88.6514 71.135 87.8557 71.135 86.9746C71.135 86.0941 70.9427 85.2983 70.5574 84.5866C70.1715 83.8761 69.6426 83.3224 68.9689 82.9262C68.2951 82.53 67.5359 82.3315 66.6939 82.3315C65.8519 82.3315 65.0933 82.53 64.4202 82.9262C63.7452 83.3224 63.2163 83.8761 62.8311 84.5866C62.4458 85.2983 62.2541 86.0941 62.2541 86.9746C62.2541 87.8557 62.4458 88.6514 62.8311 89.3626C63.2163 90.0737 63.7452 90.6267 64.4202 91.0236C65.0933 91.4198 65.8519 91.6176 66.6939 91.6176C67.5359 91.6176 68.2951 91.4198 68.9689 91.0236ZM63.21 92.8923C62.175 92.3069 61.3633 91.4952 60.7737 90.4573C60.1828 89.4188 59.8887 88.2579 59.8887 86.9746C59.8887 85.6913 60.1828 84.5303 60.7737 83.4925C61.3633 82.4539 62.175 81.6423 63.21 81.0575C64.245 80.4721 65.4059 80.1797 66.6939 80.1797C67.982 80.1797 69.1428 80.4721 70.1778 81.0575C71.2134 81.6423 72.0251 82.4513 72.6154 83.4832C73.2043 84.5151 73.4998 85.6787 73.4998 86.9746C73.4998 88.2711 73.2043 89.4353 72.6154 90.4666C72.0251 91.4985 71.2134 92.3069 70.1778 92.8923C69.1428 93.4771 67.982 93.7694 66.6939 93.7694C65.4059 93.7694 64.245 93.4771 63.21 92.8923Z" fill="black"/>
<path fill-rule="evenodd" clip-rule="evenodd" d="M88.7901 93.7694L88.7709 84.7613L84.2754 92.2161H83.1411L78.6463 84.8777V93.7694H76.2222V80.1797H78.3141L83.7473 89.1878L89.0833 80.1797H91.1745L91.1944 93.7694H88.7901Z" fill="black"/>
<path fill-rule="evenodd" clip-rule="evenodd" d="M102.915 87.0129C103.46 86.5469 103.733 85.8801 103.733 85.0133C103.733 84.1465 103.46 83.4797 102.915 83.0137C102.37 82.5476 101.571 82.3149 100.518 82.3149H97.6943V87.7116H100.518C101.571 87.7116 102.37 87.479 102.915 87.0129ZM103.575 80.7621C104.411 81.1499 105.052 81.7071 105.498 82.4317C105.943 83.1563 106.167 84.017 106.167 85.0137C106.167 85.9975 105.943 86.8548 105.498 87.5855C105.052 88.3176 104.411 88.8769 103.575 89.2654C102.739 89.6532 101.757 89.8478 100.63 89.8478H97.6943V93.7694H95.2778V80.1797H100.63C101.757 80.1797 102.739 80.3736 103.575 80.7621Z" fill="black"/>
<path fill-rule="evenodd" clip-rule="evenodd" d="M115.312 88.6439L112.945 82.7036L110.596 88.6439H115.312ZM116.084 90.6248H109.807L108.57 93.7694H106.167L111.816 80.1797H114.111L119.778 93.7694H117.339L116.084 90.6248Z" fill="black"/>
<path fill-rule="evenodd" clip-rule="evenodd" d="M132.028 80.1797V93.7694H130.154L123.397 84.5674V93.7694H121.139V80.1797H123.012L129.769 89.3817V80.1797H132.028Z" fill="black"/>
<path fill-rule="evenodd" clip-rule="evenodd" d="M142.057 88.9742V93.7694H139.712V89.013L134.75 80.1797H137.258L140.957 86.7997L144.691 80.1797H147L142.057 88.9742Z" fill="black"/>
</svg>
