<svg width="156" height="124" viewBox="0 0 156 124" fill="none" xmlns="http://www.w3.org/2000/svg">
<mask id="mask0_0_198" style="mask-type:alpha" maskUnits="userSpaceOnUse" x="0" y="92" width="13" height="19">
<path fill-rule="evenodd" clip-rule="evenodd" d="M0 92.6592H12.3158V110.373H0V92.6592Z" fill="white"/>
</mask>
<g mask="url(#mask0_0_198)">
<path fill-rule="evenodd" clip-rule="evenodd" d="M8.31039 106.873C8.7708 106.463 9.001 105.865 9.001 105.079C9.001 104.293 8.76683 103.687 8.29848 103.26C7.83093 102.834 7.1673 102.621 6.30761 102.621H3.24589V107.487H6.33063C7.18953 107.487 7.84998 107.283 8.31039 106.873ZM3.24589 100.086H6.16949C6.98235 100.086 7.59993 99.8891 8.02303 99.4964C8.44454 99.1036 8.65569 98.5386 8.65569 97.8032C8.65569 97.067 8.44851 96.4977 8.03335 96.0962C7.61977 95.6957 6.98235 95.495 6.12344 95.495H3.24589V100.086ZM11.4301 102.758C12.0199 103.553 12.3159 104.485 12.3159 105.556C12.3159 107.044 11.8595 108.219 10.9458 109.081C10.033 109.943 8.70888 110.373 6.97441 110.373H0V92.6592H6.83708C8.47867 92.6592 9.74163 93.0528 10.6235 93.8393C11.5055 94.6248 11.9476 95.7288 11.9476 97.1503C11.9476 98.2551 11.6825 99.1583 11.153 99.8608C10.6235 100.563 9.92896 101.023 9.07006 101.24C10.0512 101.458 10.8387 101.964 11.4301 102.758Z" fill="#212121"/>
</g>
<path fill-rule="evenodd" clip-rule="evenodd" d="M21.1038 101.04H23.8295C25.7261 101.04 26.6744 100.145 26.6744 98.3548C26.6744 97.5018 26.4426 96.8373 25.9814 96.3605C25.5178 95.8829 24.8013 95.645 23.8295 95.645H21.1038V101.04ZM26.4394 110.373L22.5611 103.473H21.1038V110.373H17.7896V92.6592H24.1124C26.0398 92.6592 27.5084 93.161 28.5192 94.1646C29.5299 95.1683 30.0356 96.4903 30.0356 98.129C30.0356 99.4675 29.6863 100.588 28.9893 101.491C28.2922 102.395 27.2856 102.997 25.9693 103.298L30.1053 110.373H26.4394Z" fill="#212121"/>
<path fill-rule="evenodd" clip-rule="evenodd" d="M43.5638 104.054L41.0524 96.4915L38.5419 104.054H43.5638ZM44.4822 106.77H37.6476L36.4402 110.373H32.8423L39.1206 92.6592H43.0083L49.2633 110.373H45.6645L44.4822 106.77Z" fill="#212121"/>
<path fill-rule="evenodd" clip-rule="evenodd" d="M67.0529 110.373H63.8263L56.5952 98.3298V110.373H53.3687V92.6592H56.5952L63.8263 104.803V92.6592H67.0529V110.373Z" fill="#212121"/>
<path fill-rule="evenodd" clip-rule="evenodd" d="M83.05 105.707C83.9679 104.703 84.4269 103.298 84.4269 101.491C84.4269 99.6682 83.9679 98.2545 83.05 97.2508C82.1321 96.2472 80.8358 95.7454 79.1611 95.7454H77.0016V107.212H79.1611C80.8358 107.212 82.1321 106.71 83.05 105.707ZM86.6092 106.133C85.9625 107.472 85.0264 108.513 83.7992 109.257C82.5728 110.001 81.1147 110.373 79.4247 110.373H73.8945V92.6592H79.4247C81.1147 92.6592 82.5728 93.0226 83.7992 93.7511C85.0264 94.4787 85.9625 95.5066 86.6092 96.8373C87.255 98.1671 87.5787 99.7184 87.5787 101.491C87.5787 103.248 87.255 104.795 86.6092 106.133Z" fill="#212121"/>
<path fill-rule="evenodd" clip-rule="evenodd" d="M47.8945 0C47.8945 0 91.2208 16.4276 90.3008 40.1978H90.3156V80.3956C90.3156 80.3956 46.9894 63.9688 47.9093 40.1978H47.8945V0Z" fill="#212121"/>
<mask id="mask1_0_198" style="mask-type:alpha" maskUnits="userSpaceOnUse" x="127" y="49" width="29" height="22">
<path fill-rule="evenodd" clip-rule="evenodd" d="M127.263 49.0552H156V70.8574H127.263V49.0552Z" fill="white"/>
</mask>
<g mask="url(#mask1_0_198)">
<path fill-rule="evenodd" clip-rule="evenodd" d="M127.263 70.8574C135.652 65.5457 145.484 62.1024 156 61.1051V49.0552C149.917 51.2068 144.202 54.3022 139.083 58.2962C134.395 61.9557 130.436 66.1958 127.263 70.8574Z" fill="#212121"/>
</g>
<mask id="mask2_0_198" style="mask-type:alpha" maskUnits="userSpaceOnUse" x="95" y="9" width="61" height="115">
<path fill-rule="evenodd" clip-rule="evenodd" d="M95.7896 9.53857H156V124H95.7896V9.53857Z" fill="white"/>
</mask>
<g mask="url(#mask2_0_198)">
<path fill-rule="evenodd" clip-rule="evenodd" d="M123.664 74.9848C127.155 67.8711 132.077 61.4801 138.267 56.1949C143.612 51.6307 149.61 48.1418 156 45.7876V9.53857C156 9.53857 94.5054 32.9265 95.81 66.7694H95.7896V124C95.7896 124 98.5338 122.955 102.842 120.994C102.826 119.158 102.885 117.313 103.036 115.46C104.372 99.1267 112.163 84.8606 123.664 74.9848Z" fill="#212121"/>
</g>
<path fill-rule="evenodd" clip-rule="evenodd" d="M117.02 94.6796C117.331 90.7184 118.02 86.8523 119.053 83.1211C112.267 91.5362 107.818 102.162 106.892 113.967C106.807 115.043 106.762 116.116 106.737 117.187C110.041 115.516 113.885 113.438 117.923 110.991C116.908 105.693 116.585 100.215 117.02 94.6796Z" fill="#212121"/>
<mask id="mask3_0_198" style="mask-type:alpha" maskUnits="userSpaceOnUse" x="120" y="64" width="36" height="46">
<path fill-rule="evenodd" clip-rule="evenodd" d="M120.421 64.0439H156V109.011H120.421V64.0439Z" fill="white"/>
</mask>
<g mask="url(#mask3_0_198)">
<path fill-rule="evenodd" clip-rule="evenodd" d="M120.609 94.4392C120.197 99.3784 120.468 104.267 121.359 109.011C138 99.1759 156.702 83.979 155.98 65.6087H156V64.0439C143.889 65.367 132.836 70.6527 124.34 78.6517C122.336 83.6365 121.068 88.9422 120.609 94.4392Z" fill="#212121"/>
</g>
</svg>
