<svg width="163" height="100" viewBox="0 0 163 100" fill="none" xmlns="http://www.w3.org/2000/svg">
<g clip-path="url(#clip0_0_267)">
<path fill-rule="evenodd" clip-rule="evenodd" d="M90.72 5.136C87.357 1.728 82.797 0 77.165 0C72.176 0 68.371 1.165 65.853 3.464C63.31 5.785 62.02 8.928 62.02 12.804C62.02 15.995 63.017 18.6 64.982 20.544C66.947 22.481 69.632 23.463 72.959 23.463C76.198 23.463 78.85 22.578 80.841 20.833C82.872 19.054 83.901 16.48 83.901 13.182C83.901 11.072 83.284 9.051 82.064 7.179C81.38 6.13 80.526 5.21 79.508 4.431C82.182 4.483 84.616 5.404 86.751 7.172C88.925 8.975 89.98 11.228 89.98 14.064C89.98 17.244 88.511 19.589 85.487 21.23C82.258 22.984 77.204 24.541 70.476 25.855L65.558 26.757C64.677 27.002 63.258 27.291 61.336 27.621C51.685 29.323 44.181 32.317 39.034 36.519C33.779 40.808 31.115 46.994 31.115 54.906C31.115 60.62 32.826 65.116 36.2 68.27C39.556 71.412 44 73.004 49.414 73.004C54.768 73.004 59.03 71.975 62.082 69.945C65.26 67.834 66.871 64.555 66.871 60.2C66.871 56.928 65.911 54.305 64.017 52.402C62.119 50.502 59.47 49.538 56.142 49.538C52.906 49.538 50.219 50.445 48.159 52.23C46.056 54.052 44.99 56.647 44.99 59.947C44.99 63.811 46.176 66.742 48.523 68.699C45.521 68.667 42.833 67.76 40.533 65.998C38.238 64.238 37.123 62.094 37.123 59.443C37.123 56.518 38.644 54.277 41.772 52.594C45.106 50.799 50.751 49.05 58.536 47.396L66.116 45.881L72.683 44.47C74.354 46.021 75.443 47.801 75.922 49.772C76.462 52.005 76.736 54.41 76.736 56.923C76.736 61.19 75.32 64.874 72.525 67.868C69.667 70.933 65.976 73.267 61.558 74.803C57.089 76.357 52.471 77.144 47.837 77.144C37.425 77.144 29.485 75.375 24.241 71.885C19.045 68.429 16.519 63.039 16.519 55.409C16.519 51.045 17.297 47.311 18.833 44.309C20.265 41.511 22.332 38.901 24.985 36.539C27.246 38.681 29.262 39.725 31.124 39.725C32.203 39.725 33.124 39.388 33.862 38.724C34.631 38.034 35.02 37.117 35.02 35.997C35.02 34.662 34.616 33.553 33.816 32.697C32.274 31.053 29.767 30.986 25.356 32.337C23.538 29.136 22.617 25.538 22.617 21.627C22.617 16.176 23.848 11.996 26.273 9.208C28.697 6.417 31.692 5.059 35.432 5.059C36.7 5.059 37.837 5.143 38.836 5.311C37.511 6.109 36.374 7.188 35.436 8.542C33.963 10.671 33.217 13.037 33.217 15.578C33.217 18.702 34.172 21.146 36.057 22.843C37.912 24.509 40.318 25.356 43.212 25.356C46.112 25.356 48.614 24.377 50.65 22.445C52.695 20.501 53.732 17.936 53.732 14.821C53.732 11.661 52.859 9.034 51.138 7.017C49.464 5.054 47.445 3.605 45.143 2.714C43.624 2.11 42.007 1.646 40.333 1.338C38.663 1.036 36.484 0.882 33.857 0.882C30.134 0.882 26.428 1.471 22.839 2.63C19.2 3.809 16.113 5.718 13.663 8.303C11.154 10.952 9.881 14.418 9.881 18.601C9.881 22.79 11.139 26.215 13.619 28.782C15.552 30.784 18.026 32.561 20.99 34.076C18.632 34.96 16.139 36.196 13.548 37.766C10.045 39.889 6.883 43.038 4.154 47.128C1.398 51.257 0 56.377 0 62.342C0 68.981 1.702 74.805 5.058 79.65C8.41 84.491 13.363 88.253 19.782 90.833C26.141 93.389 33.848 94.685 42.686 94.685C50.348 94.685 57.283 93.365 63.299 90.761C69.358 88.14 74.162 84.34 77.577 79.467C81.005 74.577 82.745 68.815 82.745 62.342C82.745 57.965 82.07 53.931 80.741 50.35C79.654 47.43 78.245 45.083 76.539 43.346C82.545 41.382 87.215 38.579 90.437 34.996C93.982 31.053 95.78 25.747 95.78 19.231C95.78 13.286 94.077 8.544 90.72 5.136Z" stroke="black" stroke-width="0.5"/>
<path d="M57.7597 43.9453V26.9529C57.7597 25.6259 58.2336 24.4885 59.1814 23.5407C60.1368 22.5853 61.278 22.1076 62.6049 22.1076H67.4729C68.7998 22.1076 69.9372 22.5853 70.885 23.5407C71.8404 24.4961 72.3181 25.6335 72.3181 26.9529V43.9453H67.4729V34.2321H62.6049V43.9453H57.7597ZM62.6049 31.8209H67.4729V26.9529C67.4729 26.2932 67.2302 25.7283 66.745 25.2582C66.2673 24.7805 65.6986 24.5416 65.0389 24.5416C64.3716 24.5416 63.7992 24.7805 63.3215 25.2582C62.8438 25.7283 62.6049 26.2932 62.6049 26.9529V31.8209ZM77.152 43.9453V22.1076H86.8652C88.1921 22.1076 89.3295 22.5853 90.2773 23.5407C91.2327 24.4961 91.7104 25.6335 91.7104 26.9529V28.2722C91.7104 29.3565 91.3389 30.4029 90.5958 31.4114C89.8527 32.4123 88.6092 32.9127 86.8652 32.9127H89.2764C89.9437 32.9127 90.5162 33.1516 90.9939 33.6293C91.4716 34.107 91.7104 34.6795 91.7104 35.3467V43.9453H86.8652V36.6661C86.8652 35.9988 86.6226 35.4263 86.1373 34.9486C85.6596 34.4709 85.0909 34.2321 84.4312 34.2321H81.9972V43.9453H77.152ZM81.9972 31.8209H84.4312C85.0909 31.8209 85.6596 31.582 86.1373 31.1043C86.6226 30.619 86.8652 30.0465 86.8652 29.3869V26.9529C86.8652 26.2932 86.6226 25.7283 86.1373 25.2582C85.6596 24.7805 85.0909 24.5416 84.4312 24.5416H81.9972V31.8209ZM98.9555 43.9453V24.5416H94.1103V22.1076H108.669V24.5416H103.824V43.9453H98.9555ZM123.227 26.9529H120.816C120.604 25.3302 119.838 24.5189 118.518 24.5189C117.669 24.5189 117.028 24.7236 116.596 25.1331C116.164 25.5425 115.948 26.1529 115.948 26.9642C115.948 27.5708 116.187 28.1395 116.665 28.6703L121.805 34.4482C122.753 35.5098 123.227 36.6509 123.227 37.8717V39.1001C123.227 40.4119 122.753 41.5492 121.805 42.5122C120.858 43.4676 119.716 43.9453 118.382 43.9453H115.948C114.34 43.9453 113.131 43.5396 112.32 42.7283C111.508 41.917 111.103 40.7076 111.103 39.1001H113.537C113.522 39.2669 113.514 39.3996 113.514 39.4982C113.514 40.1578 113.768 40.6583 114.276 40.9995C114.784 41.3407 115.341 41.5113 115.948 41.5113C116.812 41.5113 117.434 41.3028 117.813 40.8858C118.192 40.4687 118.382 39.8621 118.382 39.066C118.382 38.4518 118.143 37.8831 117.665 37.3599L112.524 31.6048C111.577 30.5508 111.103 29.4096 111.103 28.1812V26.9529C111.103 25.6335 111.577 24.4961 112.524 23.5407C113.472 22.5853 114.613 22.1076 115.948 22.1076H118.382C121.415 22.1076 123.03 23.7227 123.227 26.9529Z" fill="black"/>
<path d="M72.3181 68.5376C72.1058 71.7677 70.4907 73.3828 67.4729 73.3828H62.6049C61.278 73.3828 60.1368 72.9089 59.1814 71.9611C58.2336 71.0057 57.7597 69.8645 57.7597 68.5376V56.3904C57.7597 55.0862 58.226 53.9526 59.1587 52.9896C60.0989 52.0266 61.2476 51.5451 62.6049 51.5451H67.4729C70.5211 51.5451 72.1361 53.1602 72.3181 56.3904H69.8841C69.6946 54.7829 68.8908 53.9791 67.4729 53.9791H65.0389C64.3716 53.9791 63.7992 54.218 63.3215 54.6957C62.8438 55.1658 62.6049 55.7307 62.6049 56.3904V68.5376C62.6049 69.1897 62.84 69.7546 63.3101 70.2323C63.7878 70.71 64.3641 70.9488 65.0389 70.9488H67.4729C68.8984 70.9488 69.7022 70.1451 69.8841 68.5376H72.3181ZM77.152 73.3828V51.5451H86.8652C88.1921 51.5451 89.3295 52.0228 90.2773 52.9782C91.2327 53.9336 91.7104 55.071 91.7104 56.3904V57.7097C91.7104 58.794 91.3389 59.8404 90.5958 60.8489C89.8527 61.8498 88.6092 62.3502 86.8652 62.3502H89.2764C89.9437 62.3502 90.5162 62.5891 90.9939 63.0668C91.4716 63.5445 91.7104 64.117 91.7104 64.7842V73.3828H86.8652V66.1036C86.8652 65.4363 86.6226 64.8638 86.1373 64.3861C85.6596 63.9084 85.0909 63.6696 84.4312 63.6696H81.9972V73.3828H77.152ZM81.9972 61.2584H84.4312C85.0909 61.2584 85.6596 61.0195 86.1373 60.5418C86.6226 60.0565 86.8652 59.484 86.8652 58.8244V56.3904C86.8652 55.7307 86.6226 55.1658 86.1373 54.6957C85.6596 54.218 85.0909 53.9791 84.4312 53.9791H81.9972V61.2584ZM96.5443 73.3828V56.3904C96.5443 55.0634 97.0182 53.926 97.966 52.9782C98.9214 52.0228 100.063 51.5451 101.39 51.5451H106.258C107.584 51.5451 108.722 52.0228 109.67 52.9782C110.625 53.9336 111.103 55.071 111.103 56.3904V73.3828H106.258V63.6696H101.39V73.3828H96.5443ZM101.39 61.2584H106.258V56.3904C106.258 55.7307 106.015 55.1658 105.53 54.6957C105.052 54.218 104.483 53.9791 103.824 53.9791C103.156 53.9791 102.584 54.218 102.106 54.6957C101.628 55.1658 101.39 55.7307 101.39 56.3904V61.2584ZM115.937 73.3828V51.5451H128.061V53.9791H120.782V61.2584H125.65V63.6696H120.782V73.3828H115.937ZM135.352 73.3828V53.9791H130.506V51.5451H145.065V53.9791H140.22V73.3828H135.352ZM159.623 56.3904H157.212C157 54.7677 156.234 53.9564 154.915 53.9564C154.065 53.9564 153.425 54.1611 152.992 54.5706C152.56 54.98 152.344 55.5904 152.344 56.4017C152.344 57.0083 152.583 57.577 153.061 58.1078L158.202 63.8857C159.149 64.9473 159.623 66.0884 159.623 67.3092V68.5376C159.623 69.8494 159.149 70.9867 158.202 71.9497C157.254 72.9051 156.113 73.3828 154.778 73.3828H152.344C150.737 73.3828 149.527 72.9771 148.716 72.1658C147.905 71.3545 147.499 70.1451 147.499 68.5376H149.933C149.918 68.7044 149.91 68.8371 149.91 68.9357C149.91 69.5953 150.164 70.0958 150.672 70.437C151.18 70.7782 151.737 70.9488 152.344 70.9488C153.209 70.9488 153.83 70.7403 154.209 70.3233C154.589 69.9062 154.778 69.2996 154.778 68.5035C154.778 67.8893 154.539 67.3206 154.062 66.7974L148.921 61.0423C147.973 59.9883 147.499 58.8471 147.499 57.6187V56.3904C147.499 55.071 147.973 53.9336 148.921 52.9782C149.868 52.0228 151.01 51.5451 152.344 51.5451H154.778C157.811 51.5451 159.426 53.1602 159.623 56.3904Z" fill="black"/>
<path d="M73.5911 91.5438C73.5911 89.1571 70.0669 89.7157 70.0669 88.4766C70.0669 88.0298 70.3818 87.8165 70.7982 87.8266C71.2653 87.8368 71.5904 88.111 71.6208 88.568H73.4997C73.4286 87.2071 72.3825 86.4352 70.8286 86.4352C69.3357 86.4352 68.2286 87.1868 68.2286 88.5376C68.2083 91.0665 71.7732 90.3556 71.7732 91.6759C71.7732 92.0923 71.4482 92.3462 70.9403 92.3462C70.4528 92.3462 70.1075 92.0821 70.0567 91.5337H68.2083C68.2591 92.9759 69.4575 93.7376 70.9911 93.7376C72.6568 93.7376 73.5911 92.7423 73.5911 91.5438ZM79.2982 93.6665H81.035V86.5368H79.2982V89.3298H76.5967V86.5368H74.8599V93.6665H76.5967V90.7313H79.2982V93.6665ZM89.5067 90.0813C89.5067 87.9384 87.8919 86.4352 85.8606 86.4352C83.8395 86.4352 82.1942 87.9384 82.1942 90.0813C82.1942 92.2243 83.8395 93.7376 85.8606 93.7376C87.8817 93.7376 89.5067 92.2243 89.5067 90.0813ZM83.9715 90.0813C83.9715 88.8118 84.7028 88.0094 85.8606 88.0094C86.9981 88.0094 87.7395 88.8118 87.7395 90.0813C87.7395 91.3306 86.9981 92.1532 85.8606 92.1532C84.7028 92.1532 83.9715 91.3306 83.9715 90.0813ZM92.4096 89.7259V87.9384H93.3542C94.0448 87.9384 94.3393 88.2837 94.3393 88.8321C94.3393 89.3805 94.0448 89.7259 93.3542 89.7259H92.4096ZM96.1065 88.8321C96.1065 87.5219 95.2331 86.5368 93.4862 86.5368H90.6729V93.6665H92.4096V91.1071H93.4862C95.3042 91.1071 96.1065 90.0102 96.1065 88.8321ZM104.621 88.2634C104.651 87.2782 103.93 86.3946 102.478 86.3946C101.056 86.3946 100.254 87.2071 100.254 88.2126C100.254 88.6696 100.386 89.0555 100.751 89.4923C99.7661 89.9595 99.2989 90.7212 99.2989 91.5946C99.2989 92.9149 100.345 93.7782 102 93.7782C102.935 93.7782 103.707 93.5243 104.357 93.0267L105.017 93.6665H107.038L105.322 91.9806C105.545 91.6454 105.758 91.2696 105.951 90.8431L106.439 89.9595H104.702L104.326 90.5993C104.286 90.7009 104.235 90.7923 104.194 90.8837L102.457 89.1876C102.082 88.7915 101.889 88.4969 101.889 88.2024C101.889 87.8977 102.132 87.6946 102.457 87.6946C102.762 87.6946 102.996 87.8774 102.986 88.2634H104.621ZM102.082 92.3767C101.391 92.3767 100.975 91.9704 100.975 91.4727C100.975 91.0665 101.218 90.711 101.706 90.4571L103.29 91.9907C102.945 92.2446 102.549 92.3767 102.082 92.3767ZM115.398 91.5438C115.398 89.1571 111.874 89.7157 111.874 88.4766C111.874 88.0298 112.189 87.8165 112.605 87.8266C113.072 87.8368 113.397 88.111 113.428 88.568H115.307C115.236 87.2071 114.19 86.4352 112.636 86.4352C111.143 86.4352 110.036 87.1868 110.036 88.5376C110.015 91.0665 113.58 90.3556 113.58 91.6759C113.58 92.0923 113.255 92.3462 112.747 92.3462C112.26 92.3462 111.915 92.0821 111.864 91.5337H110.015C110.066 92.9759 111.265 93.7376 112.798 93.7376C114.464 93.7376 115.398 92.7423 115.398 91.5438ZM116.281 87.9282H118.17V93.6665H119.907V87.9282H121.796V86.5368H116.281V87.9282ZM122.837 90.7923C122.837 92.7626 124.127 93.7376 125.782 93.7376C127.428 93.7376 128.809 92.7626 128.809 90.7923V86.5368H127.072V90.8024C127.072 91.6454 126.635 92.1329 125.813 92.1329C124.99 92.1329 124.574 91.6454 124.574 90.8024V86.5368H122.837V90.7923ZM132.9 86.5368H130.228V93.6665H132.9C135.175 93.6665 136.637 92.2142 136.637 90.1016C136.637 87.979 135.175 86.5368 132.9 86.5368ZM131.965 92.1634V88.0196H132.788C134.098 88.0196 134.87 88.7915 134.87 90.1016C134.87 91.4118 134.098 92.1634 132.788 92.1634H131.965ZM137.808 93.6665H139.544V86.5368H137.808V93.6665ZM148.021 90.0813C148.021 87.9384 146.406 86.4352 144.375 86.4352C142.354 86.4352 140.708 87.9384 140.708 90.0813C140.708 92.2243 142.354 93.7376 144.375 93.7376C146.396 93.7376 148.021 92.2243 148.021 90.0813ZM142.486 90.0813C142.486 88.8118 143.217 88.0094 144.375 88.0094C145.512 88.0094 146.254 88.8118 146.254 90.0813C146.254 91.3306 145.512 92.1532 144.375 92.1532C143.217 92.1532 142.486 91.3306 142.486 90.0813Z" fill="black"/>
</g>
<defs>
<clipPath id="clip0_0_267">
<rect width="162.326" height="99.6665" fill="white"/>
</clipPath>
</defs>
</svg>
