<svg width="169" height="123" viewBox="0 0 169 123" fill="none" xmlns="http://www.w3.org/2000/svg">
<g clip-path="url(#clip0_0_272)">
<path fill-rule="evenodd" clip-rule="evenodd" d="M27.3374 0V81.348L51.7414 48.809V32.539L27.3374 0Z" fill="black"/>
<path fill-rule="evenodd" clip-rule="evenodd" d="M141.226 0L116.822 32.539V81.348L141.226 48.809V0Z" fill="black"/>
<path fill-rule="evenodd" clip-rule="evenodd" d="M96.4847 0L84.2827 16.269L72.0797 0H35.4727L84.2827 65.079L116.822 21.689L133.092 0H96.4847Z" fill="black"/>
<path d="M7.31293 103.706C6.02139 103.706 4.85784 103.438 3.82227 102.903C2.78671 102.356 1.97222 101.599 1.37881 100.634C0.797034 99.6564 0.506146 98.551 0.506146 97.3176C0.506146 96.0842 0.797034 94.9847 1.37881 94.0189C1.97222 93.0416 2.78671 92.2852 3.82227 91.75C4.85784 91.2031 6.02139 90.9297 7.31293 90.9297C8.49976 90.9297 9.55859 91.1391 10.4894 91.558C11.4203 91.9769 12.1882 92.582 12.7933 93.3732L10.1927 95.6945C9.43642 94.7403 8.5463 94.2633 7.52237 94.2633C6.66134 94.2633 5.96903 94.5425 5.44543 95.101C4.92183 95.6479 4.66003 96.3868 4.66003 97.3176C4.66003 98.2485 4.92183 98.9931 5.44543 99.5516C5.96903 100.099 6.66134 100.372 7.52237 100.372C8.5463 100.372 9.43642 99.8949 10.1927 98.9408L12.7933 101.262C12.1882 102.053 11.4203 102.658 10.4894 103.077C9.55859 103.496 8.49976 103.706 7.31293 103.706ZM19.2185 100.354H18.1015V103.426H13.9825V91.209H19.8643C20.993 91.209 21.9762 91.3951 22.8139 91.7675C23.6517 92.1398 24.2974 92.675 24.7512 93.3732C25.205 94.0713 25.4319 94.8858 25.4319 95.8166C25.4319 96.6893 25.2341 97.4514 24.8385 98.103C24.4429 98.7546 23.8728 99.2724 23.1281 99.6564L25.6937 103.426H21.2955L19.2185 100.354ZM21.278 95.8166C21.278 95.3628 21.1384 95.0138 20.8591 94.7694C20.5799 94.5135 20.161 94.3855 19.6025 94.3855H18.1015V97.2478H19.6025C20.161 97.2478 20.5799 97.1256 20.8591 96.8813C21.1384 96.6253 21.278 96.2704 21.278 95.8166ZM37.1451 100.32V103.426H26.9873V91.209H36.9182V94.3156H31.0365V95.7468H36.2026V98.7139H31.0365V100.32H37.1451ZM47.056 101.297H42.4134L41.5931 103.426H37.4043L42.745 91.209H46.7942L52.1349 103.426H47.8763L47.056 101.297ZM45.9215 98.3299L44.7347 95.2581L43.5479 98.3299H45.9215ZM54.8343 94.4029H51.2564V91.209H62.5312V94.4029H58.9533V103.426H54.8343V94.4029ZM63.6011 91.209H67.72V103.426H63.6011V91.209ZM82.758 91.209L77.5918 103.426H73.5426L68.3764 91.209H72.8096L75.7243 98.3474L78.7088 91.209H82.758ZM93.3195 100.32V103.426H83.1617V91.209H93.0926V94.3156H87.2109V95.7468H92.377V98.7139H87.2109V100.32H93.3195Z" fill="black"/>
<g clip-path="url(#clip1_0_272)">
<mask id="mask0_0_272" style="mask-type:alpha" maskUnits="userSpaceOnUse" x="29" y="86" width="140" height="37">
<path fill-rule="evenodd" clip-rule="evenodd" d="M29.0371 86.4263H168.562V122.503H29.0371V86.4263Z" fill="white"/>
</mask>
<g mask="url(#mask0_0_272)">
<path d="M101.123 91.209H105.958C107.226 91.209 108.349 91.4708 109.326 91.9944C110.316 92.518 111.083 93.2452 111.63 94.176C112.177 95.0952 112.451 96.1424 112.451 97.3176C112.451 98.4928 112.177 99.5458 111.63 100.477C111.083 101.396 110.316 102.117 109.326 102.641C108.349 103.164 107.226 103.426 105.958 103.426H101.123V91.209ZM105.888 102.623C107.017 102.623 108.012 102.402 108.873 101.96C109.734 101.506 110.397 100.878 110.862 100.075C111.328 99.2724 111.561 98.3532 111.561 97.3176C111.561 96.2821 111.328 95.3628 110.862 94.56C110.397 93.7571 109.734 93.1346 108.873 92.6925C108.012 92.2387 107.017 92.0118 105.888 92.0118H102.014V102.623H105.888ZM123.973 102.623V103.426H115.543V91.209H123.711V92.0118H116.433V96.8289H122.943V97.6143H116.433V102.623H123.973ZM130.43 103.514C129.534 103.514 128.678 103.362 127.864 103.06C127.061 102.746 126.433 102.344 125.979 101.855L126.38 101.192C126.811 101.646 127.387 102.018 128.108 102.309C128.841 102.589 129.609 102.728 130.412 102.728C131.576 102.728 132.454 102.507 133.048 102.065C133.641 101.623 133.938 101.047 133.938 100.337C133.938 99.7902 133.781 99.3538 133.466 99.028C133.152 98.7022 132.763 98.4521 132.297 98.2775C131.832 98.103 131.203 97.9227 130.412 97.7365C129.516 97.5154 128.795 97.3002 128.248 97.0907C127.713 96.8813 127.253 96.5613 126.869 96.1308C126.497 95.6886 126.311 95.101 126.311 94.368C126.311 93.7746 126.468 93.2335 126.782 92.7448C127.096 92.2445 127.573 91.8489 128.213 91.558C128.865 91.2671 129.673 91.1217 130.639 91.1217C131.314 91.1217 131.977 91.2206 132.629 91.4184C133.28 91.6162 133.845 91.8838 134.322 92.2213L133.99 92.9368C133.501 92.5994 132.96 92.3434 132.367 92.1689C131.785 91.9944 131.209 91.9071 130.639 91.9071C129.51 91.9071 128.655 92.134 128.073 92.5878C127.492 93.0416 127.201 93.6291 127.201 94.3506C127.201 94.8974 127.358 95.3338 127.672 95.6596C127.986 95.9853 128.376 96.2355 128.841 96.41C129.307 96.5846 129.941 96.7707 130.744 96.9685C131.64 97.1896 132.355 97.4049 132.89 97.6143C133.426 97.8238 133.88 98.1437 134.252 98.5743C134.636 98.9931 134.828 99.5633 134.828 100.285C134.828 100.878 134.665 101.419 134.339 101.908C134.025 102.397 133.536 102.786 132.873 103.077C132.21 103.368 131.395 103.514 130.43 103.514ZM137.854 91.209H138.744V103.426H137.854V91.209ZM151.728 97.37H152.583V101.943C152.048 102.455 151.396 102.844 150.628 103.112C149.872 103.38 149.069 103.514 148.22 103.514C147.01 103.514 145.916 103.246 144.938 102.711C143.973 102.175 143.211 101.437 142.652 100.494C142.105 99.5516 141.832 98.4928 141.832 97.3176C141.832 96.1424 142.105 95.0836 142.652 94.1411C143.211 93.1986 143.973 92.4598 144.938 91.9245C145.916 91.3893 147.015 91.1217 148.237 91.1217C149.133 91.1217 149.953 91.2671 150.698 91.558C151.454 91.8373 152.1 92.2503 152.635 92.7972L152.077 93.3906C151.565 92.8787 150.989 92.5121 150.349 92.2911C149.721 92.0584 149.023 91.942 148.255 91.942C147.207 91.942 146.259 92.1747 145.41 92.6401C144.572 93.1056 143.915 93.7513 143.437 94.5774C142.96 95.3919 142.722 96.3053 142.722 97.3176C142.722 98.3183 142.96 99.2317 143.437 100.058C143.926 100.872 144.589 101.518 145.427 101.995C146.265 102.461 147.207 102.693 148.255 102.693C149.651 102.693 150.809 102.321 151.728 101.576V97.37ZM166.449 91.209V103.426H165.716L157.39 92.8147V103.426H156.5V91.209H157.251L165.558 101.821V91.209H166.449Z" fill="black"/>
<path d="M31.0976 115.261H29.0701V114.733H33.735V115.261H31.7075V120.502H31.0976V115.261ZM38.1991 118.961H34.9847L34.2924 120.502H33.6578L36.2952 114.733H36.8968L39.5343 120.502H38.8914L38.1991 118.961ZM37.9765 118.467L36.5919 115.368L35.2073 118.467H37.9765ZM44.6295 117.618H45.2147V119.818C44.9454 120.055 44.6267 120.236 44.2586 120.362C43.8905 120.489 43.5031 120.552 43.0965 120.552C42.5196 120.552 42.0003 120.426 41.5388 120.173C41.0772 119.92 40.7146 119.571 40.4508 119.126C40.1871 118.675 40.0552 118.173 40.0552 117.618C40.0552 117.063 40.1871 116.563 40.4508 116.118C40.7146 115.667 41.0772 115.316 41.5388 115.063C42.0003 114.81 42.5223 114.684 43.1047 114.684C43.5443 114.684 43.9481 114.755 44.3163 114.898C44.6844 115.035 44.9949 115.241 45.2476 115.516L44.8685 115.903C44.4124 115.453 43.8328 115.228 43.1295 115.228C42.6624 115.228 42.2393 115.332 41.8602 115.541C41.4866 115.744 41.1926 116.03 40.9783 116.398C40.764 116.761 40.6569 117.167 40.6569 117.618C40.6569 118.068 40.764 118.475 40.9783 118.838C41.1926 119.2 41.4866 119.486 41.8602 119.695C42.2338 119.904 42.6542 120.008 43.1212 120.008C43.7146 120.008 44.2174 119.86 44.6295 119.563V117.618ZM47.1008 114.733H47.7107V119.975H50.9415V120.502H47.1008V114.733ZM52.1142 114.733H52.7241V120.502H52.1142V114.733ZM59.5828 114.733V120.502H59.08L55.3712 115.821V120.502H54.7613V114.733H55.264L58.9811 119.415V114.733H59.5828ZM65.7056 119.975V120.502H61.6259V114.733H65.582V115.261H62.2358V117.313H65.2193V117.832H62.2358V119.975H65.7056ZM73.6795 117.618H74.2647V119.818C73.9955 120.055 73.6768 120.236 73.3087 120.362C72.9405 120.489 72.5532 120.552 72.1466 120.552C71.5696 120.552 71.0504 120.426 70.5888 120.173C70.1273 119.92 69.7646 119.571 69.5009 119.126C69.2372 118.675 69.1053 118.173 69.1053 117.618C69.1053 117.063 69.2372 116.563 69.5009 116.118C69.7646 115.667 70.1273 115.316 70.5888 115.063C71.0504 114.81 71.5724 114.684 72.1548 114.684C72.5944 114.684 72.9982 114.755 73.3664 114.898C73.7345 115.035 74.0449 115.241 74.2977 115.516L73.9186 115.903C73.4625 115.453 72.8828 115.228 72.1795 115.228C71.7125 115.228 71.2894 115.332 70.9103 115.541C70.5366 115.744 70.2427 116.03 70.0284 116.398C69.8141 116.761 69.707 117.167 69.707 117.618C69.707 118.068 69.8141 118.475 70.0284 118.838C70.2427 119.2 70.5366 119.486 70.9103 119.695C71.2839 119.904 71.7042 120.008 72.1713 120.008C72.7647 120.008 73.2675 119.86 73.6795 119.563V117.618ZM78.6729 120.552C78.1015 120.552 77.5822 120.426 77.1152 120.173C76.6536 119.915 76.291 119.563 76.0273 119.118C75.769 118.673 75.6399 118.173 75.6399 117.618C75.6399 117.063 75.769 116.563 76.0273 116.118C76.291 115.673 76.6536 115.324 77.1152 115.071C77.5822 114.813 78.1015 114.684 78.6729 114.684C79.2443 114.684 79.7581 114.81 80.2141 115.063C80.6757 115.316 81.0383 115.667 81.3021 116.118C81.5658 116.563 81.6977 117.063 81.6977 117.618C81.6977 118.173 81.5658 118.675 81.3021 119.126C81.0383 119.571 80.6757 119.92 80.2141 120.173C79.7581 120.426 79.2443 120.552 78.6729 120.552ZM78.6729 120.008C79.129 120.008 79.5411 119.906 79.9092 119.703C80.2773 119.494 80.5658 119.208 80.7746 118.846C80.9834 118.478 81.0878 118.068 81.0878 117.618C81.0878 117.167 80.9834 116.761 80.7746 116.398C80.5658 116.03 80.2773 115.744 79.9092 115.541C79.5411 115.332 79.129 115.228 78.6729 115.228C78.2169 115.228 77.802 115.332 77.4284 115.541C77.0602 115.744 76.769 116.03 76.5547 116.398C76.3459 116.761 76.2415 117.167 76.2415 117.618C76.2415 118.068 76.3459 118.478 76.5547 118.846C76.769 119.208 77.0602 119.494 77.4284 119.703C77.802 119.906 78.2169 120.008 78.6729 120.008ZM87.3045 119.975V120.502H83.2247V114.733H87.1809V115.261H83.8346V117.313H86.8182V117.832H83.8346V119.975H87.3045ZM90.4888 120.552C90.0602 120.552 89.6481 120.483 89.2525 120.346C88.8624 120.208 88.5602 120.027 88.3459 119.802L88.5849 119.332C88.7937 119.541 89.0712 119.711 89.4174 119.843C89.7635 119.969 90.1207 120.033 90.4888 120.033C91.0053 120.033 91.3927 119.939 91.6509 119.752C91.9092 119.56 92.0383 119.313 92.0383 119.011C92.0383 118.78 91.9669 118.596 91.824 118.458C91.6866 118.321 91.5163 118.217 91.313 118.145C91.1097 118.068 90.8267 117.986 90.4641 117.898C90.03 117.788 89.6839 117.684 89.4256 117.585C89.1674 117.48 88.9448 117.324 88.758 117.115C88.5767 116.906 88.486 116.623 88.486 116.266C88.486 115.975 88.563 115.711 88.7168 115.475C88.8707 115.233 89.1069 115.041 89.4256 114.898C89.7443 114.755 90.1399 114.684 90.6124 114.684C90.9421 114.684 91.2636 114.73 91.5767 114.824C91.8954 114.912 92.1702 115.035 92.4009 115.195L92.1949 115.681C91.9531 115.522 91.6949 115.403 91.4202 115.327C91.1454 115.244 90.8762 115.203 90.6124 115.203C90.1069 115.203 89.7251 115.302 89.4668 115.5C89.2141 115.692 89.0877 115.942 89.0877 116.25C89.0877 116.48 89.1564 116.667 89.2937 116.81C89.4366 116.947 89.6124 117.055 89.8212 117.132C90.0355 117.203 90.3212 117.283 90.6784 117.371C91.1015 117.475 91.4421 117.579 91.7004 117.684C91.9641 117.783 92.1866 117.936 92.368 118.145C92.5493 118.349 92.64 118.626 92.64 118.978C92.64 119.269 92.5603 119.535 92.4009 119.777C92.2471 120.013 92.0081 120.203 91.6839 120.346C91.3597 120.483 90.9614 120.552 90.4888 120.552ZM101.267 114.733V120.502H100.666V117.84H97.0558V120.502H96.4459V114.733H97.0558V117.305H100.666V114.733H101.267ZM107.39 119.975V120.502H103.31V114.733H107.267V115.261H103.92V117.313H106.904V117.832H103.92V119.975H107.39ZM112.923 120.502L111.605 118.648C111.456 118.664 111.303 118.673 111.143 118.673H109.594V120.502H108.984V114.733H111.143C111.88 114.733 112.456 114.909 112.874 115.261C113.292 115.612 113.5 116.096 113.5 116.711C113.5 117.162 113.385 117.544 113.154 117.857C112.929 118.164 112.605 118.387 112.182 118.524L113.591 120.502H112.923ZM111.127 118.153C111.698 118.153 112.135 118.027 112.437 117.774C112.739 117.522 112.891 117.167 112.891 116.711C112.891 116.244 112.739 115.887 112.437 115.64C112.135 115.387 111.698 115.261 111.127 115.261H109.594V118.153H111.127ZM119.18 119.975V120.502H115.1V114.733H119.056V115.261H115.71V117.313H118.693V117.832H115.71V119.975H119.18Z" fill="black"/>
</g>
</g>
</g>
<defs>
<clipPath id="clip0_0_272">
<rect width="168.562" height="122.502" fill="white"/>
</clipPath>
<clipPath id="clip1_0_272">
<rect width="139.525" height="36.0763" fill="white" transform="translate(29.0371 86.4263)"/>
</clipPath>
</defs>
</svg>
