<svg width="168" height="159" viewBox="0 0 168 159" fill="none" xmlns="http://www.w3.org/2000/svg">
<g clip-path="url(#clip0_0_260)">
<g clip-path="url(#clip1_0_260)">
<path d="M47.8281 19V3.61109H54.4936C56.2532 3.61109 57.7294 3.88696 58.9224 4.43869C60.1153 4.99043 61.0175 5.83294 61.6289 6.96623C62.2552 8.09952 62.5683 9.54596 62.5683 11.3055C62.5683 13.0502 62.2552 14.4967 61.6289 15.6449C61.0175 16.7782 60.1153 17.6207 58.9224 18.1724C57.7294 18.7241 56.2532 19 54.4936 19H47.8281ZM52.7713 15.3093H54.4041C54.941 15.3093 55.4032 15.2348 55.7909 15.0857C56.1935 14.9366 56.5216 14.7203 56.7751 14.437C57.0286 14.1537 57.215 13.8033 57.3343 13.3857C57.4536 12.9682 57.5132 12.4985 57.5132 11.9766V10.6345C57.5132 10.1126 57.4536 9.64289 57.3343 9.22536C57.215 8.80783 57.0286 8.4574 56.7751 8.17408C56.5216 7.89076 56.1935 7.67454 55.7909 7.52542C55.4032 7.3763 54.941 7.30175 54.4041 7.30175H52.7713V15.3093ZM65.4043 19V3.61109H78.713V7.30175H70.3476V9.42667H77.5052V12.9607H70.3476V15.3093H78.8696V19H65.4043ZM88.2674 19.2684C87.2086 19.2684 86.217 19.1864 85.2925 19.0224C84.3829 18.8733 83.5776 18.6123 82.8768 18.2395C82.1908 17.8518 81.6466 17.3224 81.2439 16.6514C80.8562 15.9655 80.6624 15.108 80.6624 14.0791C80.6624 14.0493 80.6624 14.012 80.6624 13.9673C80.6624 13.9076 80.6698 13.848 80.6847 13.7883H85.3596C85.3447 13.848 85.3372 13.9076 85.3372 13.9673C85.3372 14.012 85.3372 14.0568 85.3372 14.1015C85.3372 14.5488 85.4416 14.8918 85.6504 15.1304C85.8591 15.369 86.1499 15.533 86.5227 15.6225C86.9104 15.6971 87.3428 15.7343 87.82 15.7343C87.999 15.7343 88.1853 15.7343 88.3792 15.7343C88.588 15.7194 88.7818 15.6971 88.9608 15.6672C89.1546 15.6225 89.3261 15.5628 89.4752 15.4883C89.6392 15.4137 89.766 15.3168 89.8555 15.1975C89.9449 15.0633 89.9897 14.8993 89.9897 14.7054C89.9897 14.4221 89.8629 14.1984 89.6094 14.0344C89.3559 13.8704 89.013 13.7287 88.5805 13.6094C88.1481 13.4901 87.6634 13.3783 87.1266 13.2739C86.5898 13.1695 86.0306 13.0502 85.449 12.916C84.8675 12.7669 84.3083 12.5805 83.7715 12.3568C83.2347 12.1331 82.75 11.8498 82.3176 11.5069C81.8851 11.149 81.5422 10.7091 81.2887 10.1872C81.0352 9.65034 80.9084 9.00914 80.9084 8.26355C80.9084 7.36885 81.0948 6.60835 81.4676 5.98206C81.8404 5.35576 82.3474 4.84876 82.9886 4.46106C83.6447 4.07335 84.3829 3.79003 85.203 3.61109C86.0381 3.43215 86.9104 3.34268 87.82 3.34268C88.7445 3.34268 89.6094 3.43961 90.4147 3.63346C91.2348 3.8124 91.958 4.09572 92.5843 4.48343C93.2106 4.87113 93.7027 5.36322 94.0606 5.95969C94.4185 6.55616 94.6049 7.26447 94.6198 8.08461V8.35302H89.9897V8.26355C89.9897 7.99514 89.9226 7.74164 89.7884 7.50305C89.6542 7.26447 89.4379 7.07061 89.1397 6.9215C88.8564 6.77238 88.4761 6.69782 87.999 6.69782C87.5516 6.69782 87.1714 6.74256 86.8582 6.83203C86.56 6.9215 86.3363 7.04825 86.1872 7.21227C86.0381 7.36139 85.9635 7.52542 85.9635 7.70436C85.9635 7.98768 86.0903 8.21882 86.3438 8.39776C86.5972 8.5767 86.9402 8.72582 87.3727 8.84511C87.8051 8.9644 88.2897 9.07624 88.8266 9.18062C89.3634 9.28501 89.9226 9.4043 90.5041 9.53851C91.0857 9.6578 91.6449 9.82183 92.1817 10.0306C92.7185 10.2394 93.2031 10.5152 93.6356 10.8582C94.068 11.1863 94.411 11.5963 94.6645 12.0884C94.918 12.5805 95.0447 13.1844 95.0447 13.9002C95.0447 15.1677 94.7465 16.1966 94.15 16.9869C93.5685 17.7772 92.7633 18.3588 91.7343 18.7316C90.7203 19.0895 89.5647 19.2684 88.2674 19.2684ZM97.598 19V3.61109H102.541V19H97.598ZM112.978 19.2684C110.413 19.2684 108.49 18.5974 107.207 17.2553C105.94 15.9133 105.306 13.93 105.306 11.3055C105.306 9.54596 105.634 8.07716 106.29 6.89913C106.946 5.7211 107.901 4.83385 109.153 4.23738C110.406 3.64091 111.92 3.34268 113.694 3.34268C114.768 3.34268 115.774 3.46943 116.714 3.72293C117.668 3.96152 118.503 4.32685 119.219 4.81894C119.949 5.29612 120.516 5.90004 120.919 6.63072C121.321 7.36139 121.523 8.21136 121.523 9.18062H116.803C116.803 8.85257 116.721 8.55433 116.557 8.28592C116.408 8.01751 116.199 7.79383 115.931 7.61489C115.662 7.42104 115.349 7.27938 114.991 7.18991C114.648 7.08552 114.283 7.03333 113.895 7.03333C113.314 7.03333 112.799 7.11535 112.352 7.27938C111.905 7.42849 111.532 7.65963 111.234 7.97277C110.95 8.28592 110.734 8.65871 110.585 9.09115C110.436 9.52359 110.361 10.0231 110.361 10.5898V12.0213C110.361 12.7669 110.488 13.4081 110.741 13.9449C111.01 14.4668 111.405 14.8694 111.927 15.1528C112.464 15.4361 113.12 15.5778 113.895 15.5778C114.417 15.5778 114.894 15.5032 115.327 15.3541C115.774 15.1901 116.132 14.9589 116.4 14.6607C116.669 14.3625 116.803 14.0195 116.803 13.6318V13.5423H113.314V10.4108H121.523V19H118.973L118.481 17.479C118.018 17.8667 117.511 18.1948 116.96 18.4632C116.408 18.7316 115.804 18.9329 115.148 19.0671C114.492 19.2013 113.769 19.2684 112.978 19.2684ZM124.687 19V3.61109H128.892L133.679 9.13589C133.813 9.28501 133.992 9.50123 134.216 9.78455C134.439 10.0679 134.663 10.3587 134.887 10.6569C135.125 10.9402 135.304 11.1713 135.424 11.3503L135.535 11.3055C135.521 10.888 135.513 10.4779 135.513 10.0753C135.513 9.6578 135.513 9.34465 135.513 9.13589V3.61109H140.009V19H135.826L130.436 12.8489C130.182 12.5507 129.966 12.2823 129.787 12.0437C129.608 11.7902 129.437 11.5516 129.273 11.3279L129.161 11.3726C129.176 11.656 129.183 11.9393 129.183 12.2226C129.183 12.5059 129.183 12.7147 129.183 12.8489V19H124.687Z" fill="black"/>
</g>
<path d="M54.7396 50.6727C53.6809 50.6727 52.6893 50.5907 51.7648 50.4267C50.8551 50.2775 50.0499 50.0166 49.3491 49.6438C48.6631 49.2561 48.1188 48.7267 47.7162 48.0557C47.3285 47.3698 47.1347 46.5123 47.1347 45.4834C47.1347 45.4536 47.1347 45.4163 47.1347 45.3716C47.1347 45.3119 47.1421 45.2523 47.157 45.1926H51.8319C51.8169 45.2523 51.8095 45.3119 51.8095 45.3716C51.8095 45.4163 51.8095 45.4611 51.8095 45.5058C51.8095 45.9531 51.9139 46.2961 52.1226 46.5347C52.3314 46.7733 52.6222 46.9373 52.995 47.0268C53.3827 47.1013 53.8151 47.1386 54.2923 47.1386C54.4712 47.1386 54.6576 47.1386 54.8515 47.1386C55.0602 47.1237 55.2541 47.1013 55.433 47.0715C55.6269 47.0268 55.7984 46.9671 55.9475 46.8926C56.1115 46.818 56.2383 46.7211 56.3277 46.6018C56.4172 46.4676 56.4619 46.3036 56.4619 46.1097C56.4619 45.8264 56.3352 45.6027 56.0817 45.4387C55.8282 45.2747 55.4852 45.133 55.0528 45.0137C54.6203 44.8944 54.1357 44.7826 53.5989 44.6782C53.0621 44.5738 52.5029 44.4545 51.9213 44.3203C51.3398 44.1712 50.7806 43.9848 50.2438 43.7611C49.7069 43.5374 49.2223 43.2541 48.7899 42.9112C48.3574 42.5533 48.0145 42.1134 47.761 41.5915C47.5075 41.0546 47.3807 40.4134 47.3807 39.6678C47.3807 38.7731 47.5671 38.0126 47.9399 37.3864C48.3127 36.7601 48.8197 36.2531 49.4609 35.8654C50.117 35.4777 50.8551 35.1943 51.6753 35.0154C52.5103 34.8364 53.3827 34.747 54.2923 34.747C55.2168 34.747 56.0817 34.8439 56.8869 35.0378C57.7071 35.2167 58.4303 35.5 59.0566 35.8877C59.6829 36.2754 60.175 36.7675 60.5329 37.364C60.8907 37.9605 61.0771 38.6688 61.092 39.4889V39.7573H56.4619V39.6678C56.4619 39.3994 56.3948 39.1459 56.2606 38.9074C56.1264 38.6688 55.9102 38.4749 55.612 38.3258C55.3287 38.1767 54.9484 38.1021 54.4712 38.1021C54.0239 38.1021 53.6436 38.1469 53.3305 38.2363C53.0322 38.3258 52.8086 38.4525 52.6595 38.6166C52.5103 38.7657 52.4358 38.9297 52.4358 39.1087C52.4358 39.392 52.5625 39.6231 52.816 39.8021C53.0695 39.981 53.4125 40.1301 53.8449 40.2494C54.2774 40.3687 54.762 40.4805 55.2988 40.5849C55.8357 40.6893 56.3948 40.8086 56.9764 40.9428C57.558 41.0621 58.1172 41.2261 58.654 41.4349C59.1908 41.6437 59.6754 41.9195 60.1079 42.2625C60.5403 42.5905 60.8833 43.0006 61.1368 43.4927C61.3903 43.9848 61.517 44.5887 61.517 45.3045C61.517 46.572 61.2188 47.6009 60.6223 48.3912C60.0408 49.1815 59.2355 49.7631 58.2066 50.1359C57.1926 50.4938 56.037 50.6727 54.7396 50.6727ZM64.0703 50.4043V35.0154H69.0135V40.6297H74.4489V35.0154H79.3921V50.4043H74.4489V44.5664H69.0135V50.4043H64.0703ZM90.4524 50.6727C88.7077 50.6727 87.2166 50.3745 85.9789 49.778C84.7412 49.1815 83.7943 48.2943 83.1382 47.1163C82.4821 45.9233 82.154 44.4545 82.154 42.7098C82.154 40.9503 82.4821 39.4815 83.1382 38.3034C83.7943 37.1254 84.7412 36.2382 85.9789 35.6417C87.2166 35.0452 88.7077 34.747 90.4524 34.747C92.212 34.747 93.7106 35.0452 94.9483 35.6417C96.186 36.2382 97.1329 37.1254 97.789 38.3034C98.4451 39.4815 98.7731 40.9503 98.7731 42.7098C98.7731 44.4545 98.4451 45.9233 97.789 47.1163C97.1329 48.2943 96.186 49.1815 94.9483 49.778C93.7106 50.3745 92.212 50.6727 90.4524 50.6727ZM90.4524 46.9821C90.9892 46.9821 91.4589 46.9 91.8616 46.736C92.2791 46.5571 92.6221 46.311 92.8905 45.9979C93.1738 45.6847 93.3826 45.3119 93.5168 44.8795C93.651 44.4321 93.7181 43.9475 93.7181 43.4256V41.9941C93.7181 41.4722 93.651 40.995 93.5168 40.5626C93.3826 40.1152 93.1738 39.735 92.8905 39.4218C92.6221 39.1087 92.2791 38.8701 91.8616 38.706C91.4589 38.5271 90.9892 38.4376 90.4524 38.4376C89.9156 38.4376 89.4384 38.5271 89.0209 38.706C88.6183 38.8701 88.2827 39.1087 88.0143 39.4218C87.7459 39.735 87.5446 40.1152 87.4104 40.5626C87.2762 40.995 87.2091 41.4722 87.2091 41.9941V43.4256C87.2091 43.9475 87.2762 44.4321 87.4104 44.8795C87.5446 45.3119 87.7459 45.6847 88.0143 45.9979C88.2827 46.311 88.6183 46.5571 89.0209 46.736C89.4384 46.9 89.9156 46.9821 90.4524 46.9821ZM108.872 50.6727C107.127 50.6727 105.658 50.3745 104.465 49.778C103.287 49.1815 102.392 48.2943 101.781 47.1163C101.185 45.9233 100.886 44.4545 100.886 42.7098C100.886 40.0854 101.557 38.1021 102.899 36.7601C104.256 35.418 106.247 34.747 108.872 34.747C110.363 34.747 111.66 35.0005 112.764 35.5075C113.882 35.9996 114.747 36.7377 115.358 37.7219C115.97 38.706 116.275 39.9139 116.275 41.3454H111.556C111.556 40.7489 111.451 40.2345 111.243 39.8021C111.034 39.3696 110.728 39.0341 110.326 38.7955C109.938 38.5569 109.446 38.4376 108.849 38.4376C108.148 38.4376 107.582 38.5867 107.149 38.885C106.732 39.1832 106.426 39.6007 106.232 40.1376C106.038 40.6744 105.941 41.2932 105.941 41.9941V43.4256C105.941 44.1265 106.038 44.7453 106.232 45.2821C106.441 45.8189 106.754 46.2365 107.172 46.5347C107.589 46.8329 108.134 46.9821 108.805 46.9821C109.461 46.9821 109.997 46.8702 110.415 46.6465C110.847 46.4229 111.168 46.1023 111.377 45.6847C111.6 45.2523 111.712 44.7453 111.712 44.1637H116.275C116.275 45.5654 115.985 46.7509 115.403 47.7202C114.821 48.6894 113.979 49.4276 112.875 49.9346C111.772 50.4267 110.437 50.6727 108.872 50.6727ZM119.044 50.4043V35.0154H123.987V41.5915L129.468 35.0154H135.596L130.071 41.3454L135.708 50.4043H129.87L126.604 44.6558L123.987 47.1834V50.4043H119.044ZM137.71 50.4043V45.9531H142.451V50.4043H137.71Z" fill="black"/>
<path fill-rule="evenodd" clip-rule="evenodd" d="M0 93.0694H26.5973L0 158.067L65.9502 79.2112H31.0313L38.4008 9.73682L0 93.0694Z" fill="black"/>
<path d="M75.143 85.5435H76.9813L74.4016 78.4137H72.3906L69.8109 85.5435H71.6289L72.0555 84.2841H74.7164L75.143 85.5435ZM74.2696 82.9434H72.5125L73.386 80.3333L74.2696 82.9434ZM81.6844 80.7294C81.6844 81.288 81.3797 81.6231 80.7297 81.6231H79.6531V79.8559H80.7297C81.3797 79.8559 81.6844 80.2012 81.6844 80.7294ZM77.9164 78.4137V85.5435H79.6531V82.852H80.0696L81.5524 85.5435H83.5125L81.8672 82.72C82.9641 82.395 83.4516 81.552 83.4516 80.6583C83.4516 79.4192 82.5782 78.4137 80.8313 78.4137H77.9164ZM84.3059 79.8051H86.1949V85.5435H87.9317V79.8051H89.8207V78.4137H84.3059V79.8051ZM98.2025 80.1403C98.2329 79.1551 97.5118 78.2715 96.0595 78.2715C94.6376 78.2715 93.8353 79.0841 93.8353 80.0895C93.8353 80.5466 93.9673 80.9325 94.3329 81.3692C93.3478 81.8364 92.8806 82.5981 92.8806 83.4716C92.8806 84.7919 93.9267 85.6552 95.5821 85.6552C96.5165 85.6552 97.2884 85.4013 97.9384 84.9036L98.5986 85.5435H100.62L98.9032 83.8575C99.1267 83.5224 99.34 83.1466 99.5329 82.72L100.02 81.8364H98.2837L97.9079 82.4763C97.8673 82.5778 97.8165 82.6692 97.7759 82.7606L96.0392 81.0645C95.6634 80.6684 95.4704 80.3739 95.4704 80.0794C95.4704 79.7747 95.7142 79.5716 96.0392 79.5716C96.3439 79.5716 96.5775 79.7544 96.5673 80.1403H98.2025ZM95.6634 84.2536C94.9728 84.2536 94.5564 83.8474 94.5564 83.3497C94.5564 82.9434 94.8001 82.588 95.2876 82.3341L96.872 83.8677C96.5267 84.1216 96.1306 84.2536 95.6634 84.2536ZM106.371 78.4137H103.7V85.5435H106.371C108.646 85.5435 110.109 84.0911 110.109 81.9786C110.109 79.8559 108.646 78.4137 106.371 78.4137ZM105.437 84.0403V79.8966H106.259C107.57 79.8966 108.342 80.6684 108.342 81.9786C108.342 83.2888 107.57 84.0403 106.259 84.0403H105.437ZM115.597 78.4137H111.229V85.5435H115.597V84.152H112.966V82.588H115.292V81.2473H112.966V79.8051H115.597V78.4137ZM122.054 83.4208C122.054 81.0341 118.529 81.5927 118.529 80.3536C118.529 79.9067 118.844 79.6934 119.261 79.7036C119.728 79.7137 120.053 79.988 120.083 80.445H121.962C121.891 79.0841 120.845 78.3122 119.291 78.3122C117.798 78.3122 116.691 79.0637 116.691 80.4145C116.671 82.9434 120.236 82.2325 120.236 83.5528C120.236 83.9692 119.911 84.2231 119.403 84.2231C118.915 84.2231 118.57 83.9591 118.519 83.4106H116.671C116.722 84.8528 117.92 85.6146 119.454 85.6146C121.119 85.6146 122.054 84.6192 122.054 83.4208ZM123.273 85.5435H125.009V78.4137H123.273V85.5435ZM129.749 78.3325C127.616 78.3325 126.123 79.8356 126.123 81.9684C126.123 84.1013 127.626 85.5942 129.759 85.5942C131.638 85.5942 132.826 84.3653 133.192 83.1364V81.5216H129.414V82.8013H131.618C131.354 83.6036 130.755 84.0606 129.891 84.0606C128.642 84.0606 127.89 83.2888 127.89 81.9684C127.89 80.7294 128.632 79.9372 129.749 79.9372C130.399 79.9372 130.887 80.1911 131.151 80.6684H133.07C132.694 79.2059 131.455 78.3325 129.749 78.3325ZM138.946 78.4137V82.8317L136.041 78.4137H134.304V85.5435H136.041V81.1458L138.946 85.5435H140.682V78.4137H138.946Z" fill="black"/>
</g>
<defs>
<clipPath id="clip0_0_260">
<rect width="168" height="158.067" fill="white"/>
</clipPath>
<clipPath id="clip1_0_260">
<rect width="118.842" height="40.0667" fill="white" transform="translate(46.1729)"/>
</clipPath>
</defs>
</svg>
