<svg xmlns="http://www.w3.org/2000/svg" xmlns:xlink="http://www.w3.org/1999/xlink" viewBox="0 0 194.32 159.46"><defs><style>.cls-1,.cls-2,.cls-3,.cls-4{fill-rule:evenodd;}.cls-1{fill:url(#New_Gradient_Swatch_2);}.cls-2{fill:url(#New_Gradient_Swatch_3);}.cls-3{fill:url(#New_Gradient_Swatch_3-2);}.cls-4{opacity:0.3;}</style><linearGradient id="New_Gradient_Swatch_2" x1="-43.35" y1="79.73" x2="210.89" y2="79.73" gradientUnits="userSpaceOnUse"><stop offset="0.1" stop-color="#644698"/><stop offset="0.4" stop-color="#df3d8f"/><stop offset="0.6" stop-color="#e03135"/><stop offset="0.9" stop-color="#f9c338"/></linearGradient><linearGradient id="New_Gradient_Swatch_3" x1="168.98" y1="166.72" x2="109.51" y2="108.48" gradientUnits="userSpaceOnUse"><stop offset="0" stop-color="#fff"/><stop offset="1" stop-color="#fff" stop-opacity="0"/></linearGradient><linearGradient id="New_Gradient_Swatch_3-2" x1="192.32" y1="135.69" x2="65.32" y2="82.07" xlink:href="#New_Gradient_Swatch_3"/></defs><g id="Layer_2" data-name="Layer 2"><g id="Layer_1-2" data-name="Layer 1"><path class="cls-1" d="M8.22,49.5a5.7,5.7,0,0,0,5.95-5.42,5,5,0,0,0-.48-2.14C19.23,38,26.54,33.42,35,28.41c6.24-3.7,13.09-7.63,20.31-11.65-.77-8.69,10.32-13.86,17.6-8.4A11.47,11.47,0,0,0,60.5,5.12L53.05,1.37C44.78-2.79,35,3,35,12.05V23.79a261.26,261.26,0,0,0-23.8,15.58,6.44,6.44,0,0,0-3-.71,5.7,5.7,0,0,0-5.94,5.42A5.7,5.7,0,0,0,8.22,49.5Zm0-8.23a2.82,2.82,0,1,1,0,5.62,2.82,2.82,0,1,1,0-5.62ZM66,11a5.21,5.21,0,0,1,5.43,5,5.45,5.45,0,0,1-10.86,0A5.21,5.21,0,0,1,66,11Zm45.76,18.7a5.64,5.64,0,0,1,5.88,5.37,5.91,5.91,0,0,1-11.76,0A5.64,5.64,0,0,1,111.8,29.71Zm52.09,23.81a6.36,6.36,0,0,1-12.67,0,6.36,6.36,0,0,1,12.67,0Zm23.76,36.86L53.05,158A12.34,12.34,0,0,1,35,147c-30.3,9.09-47.22,7.36-24.45-7.86C-3.81,149.93-1.26,154,35,143.47V131.89c-22.56,11.27-25.87,15-15,13.09C8,147.9,2,147.29,35,127.36V123.3c33.82-20.08,85.85-46.61,115.53-60.68,5.79,3.74,13.93,2.17,17.57-3.44L187.65,69A11.89,11.89,0,0,1,187.65,90.38ZM35,63.16v3.06a270.67,270.67,0,0,0-23.2,15.13,6.39,6.39,0,0,0-3.41-1,5.45,5.45,0,1,0,0,10.85,5.71,5.71,0,0,0,6-5.43A5.17,5.17,0,0,0,14,84.13c5.5-3.86,12.68-8.38,20.95-13.29,18.53-11,42.53-23.93,65.32-35.7,0-8.68,10.75-13.53,18.26-8.55a12.31,12.31,0,0,0-17-.84L76.35,13.08A8.92,8.92,0,0,1,76.82,16c0,5.43-4.83,9.83-10.78,9.83A11.51,11.51,0,0,1,61,24.64c-9.3,5.12-18.14,10.13-26,14.79V43.5C2,63.43,8,64,19.93,61.11,9.11,63,12.42,59.3,35,48V59.61C-.84,70-3.75,66.16,10,55.64-12,70.55,4.9,72.18,35,63.16ZM8.37,88.61a2.83,2.83,0,1,1,0-5.63,2.83,2.83,0,1,1,0,5.63ZM35,105.6v2.05A254.84,254.84,0,0,0,11,123.36a6.36,6.36,0,0,0-2.8-.64,5.44,5.44,0,1,0,0,10.84,5.7,5.7,0,0,0,5.95-5.42,5,5,0,0,0-.56-2.29c5.55-3.92,12.88-8.55,21.36-13.58,31.94-19,80.12-43.67,110.38-58.21-.43-8.14,8.76-14.11,17.13-10.74-6-4.31-15-2.52-18.46,3.78L123.18,36.62c-.82,5.06-5.6,9-11.38,9a12.26,12.26,0,0,1-6.62-1.91C81,56.07,54.84,70.08,35,81.87v4.06c-33,19.93-27,20.54-15,17.62-10.82,1.92-7.51-1.82,15-13.09V102c-35.82,10.4-38.73,6.56-24.95-4C-12,113,4.9,114.61,35,105.6ZM8.23,131a2.82,2.82,0,1,1,0-5.62,2.82,2.82,0,1,1,0,5.62Z"/><path class="cls-2" d="M184.63,85.39,50,153c-4.46,2.24-8.82-1.42-8.82-5.69V119.64c33.72-19.54,81.38-43.79,109.29-57a13.23,13.23,0,0,0,12.85.7L184.63,74A6.42,6.42,0,0,1,184.63,85.39ZM105.18,43.66c-21.74,11.14-45.05,23.59-64,34.55v30.4c31.64-18.34,75.57-40.82,103.92-54.45L120.6,41.83A12.31,12.31,0,0,1,105.18,43.66ZM61,24.64c-6.91,3.81-13.56,7.55-19.75,11.13V67.18C58.73,57,80,45.63,100.3,35.14a9.63,9.63,0,0,1,.53-3.25L76.12,19.47C73.79,25,66.65,27.4,61,24.64ZM50,6.36c-4.46-2.24-8.82,1.42-8.82,5.69v12.7c4.47-2.59,9.19-5.27,14.07-8a9,9,0,0,1,2.11-6.7Z"/><path class="cls-3" d="M41.22,119.64c8.91-5.17,18.79-10.66,29-16.19a192.66,192.66,0,0,1-29,37.72ZM57.4,10.06,50,6.36c-4.46-2.24-8.82,1.42-8.82,5.69v12.7c4.47-2.59,9.19-5.27,14.07-8A9,9,0,0,1,57.4,10.06ZM41.22,108.61c11.23-6.51,24-13.54,37.1-20.51a178.15,178.15,0,0,0,12.55-37C73.53,60.13,56,69.62,41.22,78.21ZM61,24.64c-6.91,3.81-13.56,7.55-19.75,11.13V67.18c15.45-9,33.82-18.89,51.88-28.3q.75-5.1,1.2-10.27L76.12,19.47C73.79,25,66.65,27.4,61,24.64Z"/><path class="cls-4" d="M43.63,81.22C64,69.69,84.6,58.43,105.44,47.68c6.74,3.29,15.25.14,17.47-6.63.25,8.43-9.57,14.08-17.8,10.21C88.48,59.18,66.36,70.3,43.63,81.22ZM76.51,21.34c-2,5.74-9,8.65-15.07,6.4Q50.36,33.83,39.36,40.06c7.27-3.49,14.58-6.59,21.56-10C67.78,32.51,75.43,28.1,76.51,21.34Zm74.71,45.18c-36.64,17.55-74.12,36.79-108.9,57.2,33-18.47,80.63-39.67,109.51-53.21,8.08,3.07,17.15-2.45,16.91-10.6C166.51,66.72,158,69.86,151.22,66.52Z"/></g></g></svg>