<svg width="100%" height="100%" viewBox="0 0 48 43" fill="none" xmlns="http://www.w3.org/2000/svg">
<path fill-rule="evenodd" clip-rule="evenodd" d="M45.8983 11.0351C43.4752 13.5212 39.7286 15.6155 39.7286 15.6155L43.9352 17.8585V29.8249L37.1116 33.6577L37.2047 21.9725L14.3023 8.97867C14.3023 8.97867 17.219 7.24595 20.8458 5.23945C23.1529 3.96308 25.76 2.46174 28.0438 1.59354C32.9642 -0.277244 38.41 -0.121738 40.009 0.191348C45.6893 1.30345 47.5384 4.30434 47.8613 6.26768C48.2891 8.86764 47.4346 9.45876 45.8983 11.0351ZM35.522 27.4879V34.499L29.072 38.4252L28.9788 32.162L7.38485 19.4485L14.5828 15.1483L35.522 27.4879ZM28.9788 38.4252L22.6432 42.3307L22.1548 42.6319L0 29.9184L7.47831 25.7117L28.9788 38.4252ZM27.6706 8.1034C27.7853 8.03149 30.1404 6.19284 32.7962 5.44972C34.0009 5.11279 36.6352 4.78613 37.9218 6.39745C39.1399 7.92292 38.3881 8.83353 35.9285 10.3779C35.0721 10.9054 34.1845 11.3801 33.2706 11.7995C33.5554 11.5972 27.6706 8.1034 27.6706 8.1034Z" fill="url(#paint0_linear_323_4407)"/>
<path fill-rule="evenodd" clip-rule="evenodd" d="M37.251 33.5537L37.344 21.8354L43.9436 18.1153V29.7411L37.251 33.5537ZM29.2575 38.2044L29.1646 32.0662L35.6706 27.6017L35.5776 34.2979L29.2575 38.2044Z" fill="url(#paint1_linear_323_4407)"/>
<defs>
<linearGradient id="paint0_linear_323_4407" x1="47.9708" y1="42.631" x2="47.9708" y2="-0.00063272" gradientUnits="userSpaceOnUse">
<stop/>
<stop offset="1" stop-color="#3C3C3C"/>
</linearGradient>
<linearGradient id="paint1_linear_323_4407" x1="43.9439" y1="38.2044" x2="43.9439" y2="18.1153" gradientUnits="userSpaceOnUse">
<stop/>
<stop offset="1" stop-color="#3C3C3C"/>
</linearGradient>
</defs>
</svg>
