<svg width="1164" height="1002" viewBox="0 0 1164 1002" fill="none" xmlns="http://www.w3.org/2000/svg">
<g opacity="0.3">
<path fill-rule="evenodd" clip-rule="evenodd" d="M1111.02 278.422C1049.94 341.093 955.491 393.885 955.491 393.885L1061.53 450.429V752.08L889.522 848.699L891.869 554.135L314.537 226.582C314.537 226.582 388.063 182.904 479.489 132.323C537.647 100.148 603.367 62.3015 660.937 40.4158C784.973 -6.7436 922.251 -2.82355 962.561 5.06881C1105.75 33.1031 1152.36 108.751 1160.5 158.243C1171.29 223.784 1149.75 238.685 1111.02 278.422ZM849.452 693.168V869.908L686.857 968.88L684.508 810.995L140.16 490.509L321.607 382.109L849.452 693.168ZM684.508 968.881L524.797 1067.33L512.486 1074.92L-46 754.437L142.516 648.394L684.508 968.881ZM651.529 204.519C654.422 202.706 713.79 156.357 780.738 137.623C811.107 129.13 877.512 120.896 909.945 161.514C940.651 199.969 921.701 222.924 859.697 261.856C838.11 275.151 815.735 287.119 792.696 297.692C799.875 292.591 651.529 204.519 651.529 204.519Z" fill="url(#paint0_linear_0_481)"/>
<path fill-rule="evenodd" clip-rule="evenodd" d="M893.036 846.079L895.38 550.68L1061.74 456.901V749.968L893.036 846.079ZM691.533 963.314L689.189 808.581L853.196 696.038L850.852 864.838L691.533 963.314Z" fill="url(#paint1_linear_0_481)"/>
</g>
<defs>
<linearGradient id="paint0_linear_0_481" x1="1163.27" y1="1074.9" x2="1163.27" y2="0.229309" gradientUnits="userSpaceOnUse">
<stop stop-color="#F3F3F3"/>
<stop offset="1" stop-color="white"/>
</linearGradient>
<linearGradient id="paint1_linear_0_481" x1="1061.75" y1="963.314" x2="1061.75" y2="456.901" gradientUnits="userSpaceOnUse">
<stop stop-color="white"/>
<stop offset="1" stop-color="white"/>
</linearGradient>
</defs>
</svg>
