<?xml version="1.0" encoding="UTF-8" standalone="no"?>
<svg
   viewBox="0 0 576 512"
   version="1.1"
   id="svg4"
   sodipodi:docname="star-ligsht.svg"
   inkscape:version="1.1.2 (b8e25be833, 2022-02-05)"
   xmlns:inkscape="http://www.inkscape.org/namespaces/inkscape"
   xmlns:sodipodi="http://sodipodi.sourceforge.net/DTD/sodipodi-0.dtd"
   xmlns="http://www.w3.org/2000/svg"
   xmlns:svg="http://www.w3.org/2000/svg">
  <defs
     id="defs8" />
  <sodipodi:namedview
     id="namedview6"
     pagecolor="#ffffff"
     bordercolor="#666666"
     borderopacity="1.0"
     inkscape:pageshadow="2"
     inkscape:pageopacity="0.0"
     inkscape:pagecheckerboard="0"
     showgrid="false"
     inkscape:zoom="1.6757812"
     inkscape:cx="151.86946"
     inkscape:cy="254.80653"
     inkscape:window-width="1920"
     inkscape:window-height="1051"
     inkscape:window-x="-9"
     inkscape:window-y="-9"
     inkscape:window-maximized="1"
     inkscape:current-layer="svg4" />
  <!--! Font Awesome Pro 6.1.1 by @fontawesome - https://fontawesome.com License - https://fontawesome.com/license (Commercial License) Copyright 2022 Fonticons, Inc. -->
  <path
     d="M287.9 435.9L150.1 509.1C142.9 513.4 133.1 512.7 125.6 507.4C118.2 502.1 114.5 492.9 115.1 483.9L142.2 328.4L31.11 218.2C24.65 211.9 22.36 202.4 25.2 193.7C28.03 185.1 35.5 178.8 44.49 177.5L197.7 154.8L266.3 13.52C270.4 5.249 278.7 0 287.9 0C297.1 0 305.5 5.25 309.5 13.52L378.1 154.8L531.4 177.5C540.4 178.8 547.8 185.1 550.7 193.7C553.5 202.4 551.2 211.9 544.8 218.2L433.6 328.4L459.9 483.9C461.4 492.9 457.7 502.1 450.2 507.4C442.8 512.7 432.1 513.4 424.9 509.1L287.9 435.9zM226.5 168.8C221.9 178.3 212.9 184.9 202.4 186.5L64.99 206.8L164.8 305.6C172.1 312.9 175.5 323.4 173.8 333.7L150.2 473.2L272.8 407.7C282.3 402.6 293.6 402.6 303 407.7L425.6 473.2L402.1 333.7C400.3 323.4 403.7 312.9 411.1 305.6L510.9 206.8L373.4 186.5C362.1 184.9 353.1 178.3 349.3 168.8L287.9 42.32L226.5 168.8z"
     id="path2" />
  <path
     style="fill:#000000;stroke:none;stroke-width:0.596737"
     d="m 150.92262,470.67599 c 1.69505,-8.1462 23.62283,-140.17076 23.62283,-142.23023 0,-4.45405 -1.18115,-9.51955 -3.32601,-14.26394 -2.00562,-4.43639 -2.47606,-4.92547 -53.80087,-55.93311 -28.477648,-28.30168 -51.346465,-51.46252 -50.819591,-51.46854 0.526875,-0.006 10.865336,-1.48232 22.974359,-3.28069 12.109022,-1.79835 42.961862,-6.36459 68.561862,-10.14718 28.39542,-4.19564 48.00356,-7.36202 50.28474,-8.12013 4.77588,-1.58717 10.11664,-5.15614 13.60284,-9.09011 3.02948,-3.41858 2.12502,-1.61538 41.13337,-82.006862 13.41723,-27.651282 24.55651,-50.275058 24.75395,-50.275058 0.19744,0 14.54403,29.2326 31.88132,64.96134 23.4642,48.3551 32.14823,65.69356 33.97075,67.82573 3.1185,3.64833 8.51233,7.13871 13.33243,8.62749 2.07245,0.64011 27.60231,4.67993 56.73301,8.97735 29.13072,4.29744 60.08101,8.87151 68.77845,10.16461 8.69744,1.29311 16.21632,2.36047 16.70863,2.37193 0.4923,0.0115 -22.38785,23.17262 -50.84479,51.46926 -46.35087,46.08978 -51.92973,51.83626 -53.5626,55.17192 -2.21239,4.51949 -3.58487,10.06555 -3.58263,14.47699 10e-4,1.80513 5.34546,34.96851 11.87675,73.69641 6.53129,38.72789 11.80312,70.4863 11.71518,70.57425 -0.0879,0.0879 -28.06022,-14.74867 -62.16063,-32.97023 -34.1004,-18.22158 -63.34338,-33.59957 -64.98441,-34.17332 -4.16501,-1.45623 -15.52619,-1.45641 -19.69283,-3.3e-4 -1.64131,0.57358 -30.88443,15.94701 -64.9847,34.16317 -34.10027,18.21617 -62.11577,33.12031 -62.25668,33.12031 -0.1409,0 -0.10253,-0.73847 0.0853,-1.64103 z"
     id="path66" />
  <path
     style="fill:#000000;stroke-width:0.596737"
     d="m 133.96737,510.84772 c -10.66696,-2.96811 -18.4634,-13.0014 -18.51287,-23.82433 -0.008,-1.68851 6.08534,-38.10151 13.54014,-80.91779 L 142.54881,328.25782 85.484845,271.5415 c -61.620068,-61.24467 -59.305626,-58.70385 -60.78447,-66.72982 -1.817522,-9.86405 3.898446,-20.52572 13.347102,-24.89559 3.426045,-1.5845 9.973864,-2.64625 81.816673,-13.26682 l 78.09259,-11.54448 31.28147,-64.42419 c 17.20481,-35.433304 33.02741,-68.005434 35.16133,-72.38251 4.57404,-9.3822461 7.60806,-12.8464335 13.83442,-15.795894 3.64528,-1.72679426 4.55401,-1.9054594 9.69145,-1.9054594 5.14335,0 6.04388,0.17757419 9.71204,1.915097 2.48382,1.1765258 5.18396,3.0864199 7.00139,4.9523083 3.34405,3.4332091 0.22224,-2.7777028 45.07537,89.6785251 21.46036,44.236483 28.29945,57.822923 29.21353,58.035133 0.65641,0.1524 35.83403,5.39115 78.17249,11.64168 86.1484,12.71828 81.3515,11.74325 87.36682,17.75857 7.17931,7.1793 9.00566,17.32417 4.76733,26.48107 -1.61171,3.48209 -6.04919,8.0442 -58.85251,60.50536 l -57.10936,56.73929 13.279,78.71992 c 7.30344,43.29594 13.26888,79.96714 13.25652,81.49154 -0.0527,6.50714 -3.93527,14.01341 -9.40674,18.18664 -5.38173,4.10478 -13.36599,5.82374 -19.56663,4.21255 -2.44559,-0.63546 -25.10789,-12.44517 -71.8976,-37.46706 -37.57948,-20.09651 -69.02605,-36.80659 -69.88125,-37.13352 -1.40041,-0.53534 -8.5156,3.10342 -71.60839,36.62104 -38.52941,20.4685 -71.38753,37.56449 -73.01803,37.9911 -3.59742,0.94124 -6.88651,0.91664 -10.46202,-0.0783 z m 81.45454,-72.07576 c 32.82051,-17.53725 61.01632,-32.35885 62.65734,-32.9369 4.4106,-1.5536 12.31118,-1.90254 16.83197,-0.7434 4.84024,1.24105 4.64988,1.14284 72.34002,37.32306 31.97793,17.09212 58.25294,30.96533 58.38891,30.82935 0.13599,-0.13598 -5.17656,-32.42257 -11.80565,-71.74799 -13.12641,-77.86907 -12.8021,-75.20888 -10.13989,-83.17414 2.49446,-7.46336 -2.53341,-2.2112 89.06063,-93.03354 10.09231,-10.00728 18.34966,-18.34005 18.34966,-18.51728 0,-0.17723 -4.22938,-0.93274 -9.39861,-1.6789 -59.36769,-8.56954 -131.15421,-19.40775 -133.51981,-20.1586 -5.11005,-1.62195 -9.77192,-4.47946 -13.00408,-7.97089 -3.5414,-3.82547 -0.71803,1.77032 -40.13228,-79.540128 -14.75449,-30.438084 -26.96078,-55.344377 -27.12509,-55.34732 -0.16432,-0.0029 -10.49186,21.007235 -22.95011,46.689287 -43.57839,89.834711 -40.41268,83.626491 -44.96374,88.177551 -4.25125,4.25125 -8.31903,6.68401 -14.13705,8.45473 l -3.58042,1.08971 2.93385,-0.35302 c 5.93439,-0.71406 14.68818,-6.11236 18.20836,-11.22876 2.2775,-3.31024 9.93681,-18.62898 31.95562,-63.91177 28.598,-58.813226 32.11302,-65.939397 32.52491,-65.939397 0.21947,0 10.69115,21.146853 23.27038,46.993007 34.6881,71.27255 40.8766,83.436 43.98981,86.46169 3.39704,3.30155 8.05053,5.9328 12.46276,7.04688 5.32065,1.34347 94.59262,14.95091 133.80601,20.39562 l 7.3475,1.0202 -5.85566,6.01179 c -3.22062,3.30649 -26.42091,26.69046 -51.55621,51.96438 -48.47256,48.7399 -47.17054,47.28287 -49.19378,55.05061 -1.82159,6.99355 -2.27347,3.6472 12.51721,92.69429 5.09267,30.66038 9.38758,56.46809 9.54425,57.35045 l 0.28484,1.6043 -4.30408,-2.2967 C 382.88071,449.42038 319.2967,415.72114 309.40793,410.6152 l -12.82984,-6.62452 -8.65268,0.008 -8.65268,0.008 -7.45921,3.79796 c -8.81196,4.48672 -74.69263,39.41094 -115.70385,61.33614 l -5.00921,2.678 0.34244,-1.98903 c 11.67338,-67.80473 23.09971,-138.25565 23.1012,-142.43437 0.002,-4.47082 -1.30052,-9.90337 -3.33695,-13.92208 -2.00467,-3.95603 -7.01404,-9.14017 -58.97884,-61.03655 C 72.66196,212.92246 67.026015,207.07599 68.32634,206.89479 79.392728,205.3527 164.10215,192.7907 180.20982,190.303 c 19.17801,-2.96189 23.90954,-3.81826 21.13906,-3.826 -1.94419,-0.005 -135.745668,19.893 -136.148258,20.24743 -0.242222,0.21325 6.336799,7.10056 14.620047,15.30514 90.913141,90.04972 87.754811,86.84846 90.093151,91.31785 2.45827,4.69861 4.01263,10.38171 4.02608,14.72019 0.005,1.56584 -5.36181,34.6033 -11.92591,73.41659 -6.56411,38.81328 -11.93474,70.9017 -11.93474,71.30759 0,0.95353 -4.3187,3.20206 65.34266,-34.02065 z"
     id="path142" />
  <path
     style="fill:#000000;stroke-width:0.596737"
     d=""
     id="path181" />
  <path
     style="fill:#000000;stroke-width:0.596737"
     d=""
     id="path220" />
  <path
     style="fill:#000000;stroke-width:0.596737"
     d=""
     id="path259" />
  <path
     style="fill:#212121;stroke-width:0.596737;fill-opacity:1"
     d=""
     id="path298" />
  <path
     style="fill:#212121;fill-opacity:1;stroke-width:0.596737"
     d="M 133.96737,510.84772 C 123.3011,507.8798 115.50829,497.8521 115.4528,487.02339 c -0.009,-1.68851 6.08271,-38.10052 13.53636,-80.91558 l 13.55208,-77.84557 -57.089371,-56.71853 c -52.93751,-52.59364 -57.217265,-56.99457 -58.847897,-60.51402 -4.218696,-9.10539 -2.37573,-19.29611 4.784572,-26.45642 6.00389,-6.00389 1.227687,-5.03333 87.362036,-17.75249 42.33846,-6.25196 77.51609,-11.49705 78.1725,-11.65573 0.91018,-0.22004 7.56254,-13.42867 28.02612,-55.647532 45.15636,-93.1630281 42.97538,-88.822937 46.31188,-92.1594437 1.71105,-1.7110394 4.64013,-3.7508433 6.97288,-4.8558783 3.65012,-1.72908668 4.54718,-1.90488958 9.69145,-1.89930299 4.93465,0.005359 6.1274,0.220032 9.20772,1.65722379 4.61242,2.1520175 8.10755,5.0618574 10.33831,8.6070792 0.98901,1.57176 16.20786,32.530473 33.81968,68.79714 17.61182,36.266664 33.15063,68.087644 34.53068,70.713284 l 2.5092,4.7739 77.87413,11.50228 c 77.62586,11.46563 77.88779,11.50895 82.16149,13.5891 11.52987,5.61197 16.28792,19.10281 10.86846,30.81622 -1.6113,3.4826 -6.0405,8.0363 -58.84872,60.50286 l -57.10629,56.73682 13.27648,78.72239 c 7.30207,43.29732 13.2658,79.96964 13.25275,81.49404 -0.0558,6.51056 -3.93737,14.01404 -9.40801,18.18664 -5.37933,4.10296 -13.36277,5.82274 -19.56663,4.21504 -2.32154,-0.60162 -13.59464,-6.28797 -32.21461,-16.24961 -15.75385,-8.42827 -47.03736,-25.14448 -69.51892,-37.14714 l -40.87555,-21.82301 -10.44379,5.36721 c -5.74409,2.95196 -37.43121,19.70379 -70.41582,37.22628 -32.98462,17.52249 -61.30608,32.20825 -62.93658,32.63503 -3.59714,0.94154 -6.88618,0.91704 -10.46202,-0.078 z m 51.02097,-55.84446 c 17.06667,-9.10596 44.32262,-23.65722 60.56877,-32.33615 16.24615,-8.67892 30.88112,-16.25307 32.52214,-16.83144 4.41081,-1.55457 12.31035,-1.90336 16.83475,-0.74329 4.82177,1.23631 4.86203,1.25699 65.21608,33.49778 28.39,15.16577 54.77342,29.24936 58.62983,31.29686 3.85641,2.04749 7.01165,3.45993 7.01165,3.13873 0,-0.32119 -5.39759,-32.63443 -11.99465,-71.8072 -13.24889,-78.67069 -12.88703,-75.57405 -9.79211,-83.79651 0.82972,-2.20435 2.4811,-5.37924 3.66974,-7.0553 2.07272,-2.92269 2.08762,-2.97846 0.36414,-1.36294 -3.83722,3.59686 -6.71332,11.26903 -6.71332,17.90821 0,1.94062 0.9514,9.60448 2.11422,17.0308 2.15491,13.7623 20.28752,123.11109 20.92421,126.18357 l 0.34983,1.68816 -4.38411,-2.37468 C 404.54554,460.90118 312.75157,412.25678 303.44056,407.50745 l -6.86247,-3.50038 h -8.65268 -8.65268 l -6.86247,3.49707 c -3.77436,1.92338 -13.71003,7.12581 -22.07926,11.56095 -22.5489,11.94942 -88.44468,46.99526 -94.22641,50.11313 l -5.0143,2.70401 0.34732,-2.02037 c 9.32331,-54.23458 22.62064,-135.29449 22.38453,-136.45507 -0.14775,-0.72624 -23.81988,138.40807 -23.76353,139.67147 0.0258,0.57935 -1.91924,1.58586 34.92973,-18.075 z m -11.06245,-133.6606 c -0.39204,-1.80513 -1.45348,-4.92329 -2.35877,-6.92926 -2.03403,-4.50703 -5.00845,-7.60523 -62.3727,-64.96817 -36.863283,-36.86245 -42.166339,-42.38493 -40.86808,-42.55906 0.820513,-0.11005 25.79394,-3.7929 55.4965,-8.18411 59.20349,-8.75261 78.27802,-11.71852 77.88603,-12.11052 -0.3497,-0.3497 -135.953281,19.65509 -136.508398,20.13827 -0.242304,0.2109 6.202451,6.96179 14.321679,15.00197 89.739509,88.86578 88.062239,87.16578 90.391239,91.61646 2.51221,4.80077 3.95993,10.20285 4.14149,15.45362 l 0.1238,3.58042 0.22999,-3.87878 c 0.1265,-2.13334 -0.0908,-5.35571 -0.48278,-7.16084 z m 289.58146,-67.06777 c 26.17007,-25.93977 47.38406,-47.33774 47.14219,-47.55106 -0.5549,-0.48941 -135.45625,-20.39121 -136.30378,-20.1087 -1.03454,0.34484 52.75753,8.57685 111.99457,17.13895 11.48718,1.66035 21.28857,3.09087 21.78088,3.17893 0.52487,0.0939 -19.34462,20.50994 -48.03729,49.35869 -26.91282,27.05922 -47.85828,48.28684 -46.54546,47.1725 1.31282,-1.11436 23.79882,-23.24954 49.96889,-49.18931 z M 208.64576,185.30162 c 4.3779,-1.36049 9.16473,-4.42041 12.85488,-8.2173 3.00085,-3.08765 7.6632,-12.17101 32.87109,-64.04078 27.39022,-56.360299 33.12775,-67.989927 33.54313,-67.989927 0.21768,0 10.82697,21.415385 23.57621,47.589744 25.62258,52.603493 38.3554,78.321673 38.77629,78.321673 0.15231,0 0.0842,-0.50103 -0.15139,-1.11341 -1.00817,-2.62073 -61.92022,-127.759364 -62.19056,-127.765237 -0.1641,-0.0036 -10.35856,20.735331 -22.65434,46.086438 -43.46923,89.623659 -40.71757,84.226979 -45.26367,88.773079 -4.28258,4.28258 -8.40737,6.73565 -14.13327,8.40525 -1.96923,0.57421 -3.00451,1.06314 -2.30063,1.08652 0.7039,0.0234 2.98641,-0.48784 5.07226,-1.13605 z m 161.41743,0.23334 c -7.07103,-1.71172 -14.07469,-6.56219 -18.45279,-12.77972 -0.79115,-1.12353 -0.74693,-0.85964 0.17909,1.06892 2.96386,6.17257 13.35888,12.61546 20.27578,12.56704 0.82051,-0.006 -0.0804,-0.39105 -2.00208,-0.85624 z"
     id="path1374" />
</svg>
