<svg xmlns="http://www.w3.org/2000/svg" viewBox="0 0 300 300.61"><g id="Слой_2" data-name="Слой 2"><g id="Shapes"><polygon id="_04" data-name="04" points="233.38 25.24 170.28 124.32 251.09 39.06 173.93 127.64 266.54 55.37 177.04 131.46 279.38 73.8 179.54 135.7 289.34 93.94 181.39 140.26 296.19 115.33 182.54 145.05 299.77 137.51 182.96 149.96 300 159.98 182.64 154.88 296.88 182.23 181.59 159.69 290.48 203.76 179.84 164.29 280.95 224.1 177.42 168.59 268.49 242.79 174.39 172.47 253.38 259.42 170.82 175.86 235.96 273.61 166.78 178.67 216.62 285.04 162.36 180.86 195.8 293.47 157.67 182.36 173.95 298.69 152.8 183.14 151.56 300.61 147.88 183.19 129.14 299.16 143 182.51 107.19 294.39 138.28 181.11 86.19 286.4 133.82 179.02 66.62 275.37 129.72 176.28 48.91 261.55 126.07 172.97 33.46 245.24 122.96 169.15 20.61 226.81 120.46 164.91 10.66 206.67 118.61 160.34 3.81 185.27 117.46 155.55 0.23 163.09 117.04 150.65 0 140.63 117.36 145.73 3.12 118.38 118.41 140.92 9.52 96.85 120.16 136.31 19.05 76.5 122.58 132.02 31.51 57.81 125.61 128.14 46.62 41.19 129.18 124.75 64.04 27 133.22 121.93 83.38 15.56 137.64 119.75 104.2 7.14 142.33 118.25 126.05 1.91 147.2 117.47 148.44 0 152.12 117.41 170.86 1.45 157 118.1 192.81 6.22 161.72 119.5 213.81 14.21 166.18 121.59 233.38 25.24"/></g></g></svg>