<svg xmlns="http://www.w3.org/2000/svg" viewBox="0 0 300 300"><g id="Слой_2" data-name="Слой 2"><g id="Shapes"><path id="_05" data-name="05" d="M298.51,148.51H161.28L293.84,113a1.49,1.49,0,0,0,1.05-1.82,1.47,1.47,0,0,0-1.82-1.05L160.51,145.65,279.36,77a1.49,1.49,0,1,0-1.49-2.57L159,143.07l97-97a1.48,1.48,0,0,0-2.1-2.1l-97,97L225.54,22.12A1.48,1.48,0,0,0,223,20.64L154.35,139.49,189.87,6.93A1.49,1.49,0,0,0,187,6.16L151.49,138.72V1.49a1.49,1.49,0,0,0-3,0V138.72L113,6.16a1.49,1.49,0,0,0-1.82-1,1.47,1.47,0,0,0-1.05,1.82l35.52,132.56L77,20.64a1.48,1.48,0,0,0-2.57,1.48L143.07,141l-97-97a1.48,1.48,0,0,0-2.1,2.1l97,97L22.12,74.46A1.48,1.48,0,0,0,20.64,77l118.85,68.62L6.93,110.13a1.47,1.47,0,0,0-1.82,1.05,1.49,1.49,0,0,0,1,1.82l132.56,35.51H1.49a1.49,1.49,0,0,0,0,3H138.72L6.16,187a1.49,1.49,0,0,0,.38,2.92,1.31,1.31,0,0,0,.39,0l132.56-35.52L20.64,223a1.49,1.49,0,0,0-.54,2,1.46,1.46,0,0,0,1.28.74,1.4,1.4,0,0,0,.74-.2L141,156.93l-97,97a1.48,1.48,0,0,0,2.1,2.1l97-97L74.46,277.88a1.47,1.47,0,0,0,.54,2,1.42,1.42,0,0,0,.74.2,1.49,1.49,0,0,0,1.29-.74l68.62-118.85L110.13,293.07a1.47,1.47,0,0,0,1.05,1.82,1.65,1.65,0,0,0,.38.05,1.49,1.49,0,0,0,1.44-1.1l35.51-132.56V298.51a1.49,1.49,0,0,0,3,0V161.28L187,293.84a1.49,1.49,0,0,0,1.44,1.1,1.73,1.73,0,0,0,.38-.05,1.49,1.49,0,0,0,1.05-1.82L154.35,160.51,223,279.36a1.49,1.49,0,0,0,1.29.74,1.42,1.42,0,0,0,.74-.2,1.47,1.47,0,0,0,.54-2L156.93,159l97,97a1.48,1.48,0,0,0,2.1-2.1l-97-97,118.84,68.61a1.49,1.49,0,0,0,2-.54,1.49,1.49,0,0,0-.54-2L160.51,154.35l132.56,35.52a1.31,1.31,0,0,0,.39,0,1.49,1.49,0,0,0,.38-2.92L161.28,151.49H298.51a1.49,1.49,0,0,0,0-3Z"/></g></g></svg>