<svg xmlns="http://www.w3.org/2000/svg" viewBox="0 0 210.28 300"><g id="Слой_2" data-name="Слой 2"><g id="Shapes"><path id="_07" data-name="07" d="M39.24,300A21.43,21.43,0,0,1,37,257.26c48.56-5.21,78.52-10.17,97-14.18-9.41-4.26-20.69-9.57-33.74-16.41-9.52-5-31.82-16.69-51-28.84-11.55-7.29-20.25-13.62-26.6-19.35-4.9-4.41-19.81-17.85-14.45-35.65,1.77-5.84,7.23-16.16,24-19.62C38,122,45,121.58,54.25,121.82c14.9.38,33.2,2.47,52.58,4.69,13.44,1.54,27.28,3.12,39.37,4a178,178,0,0,0-29.55-14.65c-29.59-11.34-56.44-11.14-74.22-11a146.55,146.55,0,0,1-17.16-.47C8.17,102.42,2.7,92.07,1,86.08-.68,80.42-1.64,69.24,10.39,58c4.61-4.32,11.1-8.8,20.45-14.1C49.77,33.13,80,19.31,123.29,1.6a21.43,21.43,0,1,1,16.23,39.67C117.06,50.46,99.6,58,86,64.22a204.33,204.33,0,0,1,46,11.63,216.52,216.52,0,0,1,51.55,28.32c8.15,6.19,32.94,25,25.3,48.05-7.51,22.63-36.89,22.08-49.43,21.85-16.63-.32-37.38-2.69-57.45-5-6.27-.72-13.87-1.59-21.59-2.37,15.57,9.33,31.83,17.85,39.72,22,17.87,9.37,32.46,15.79,43.11,20.48,9.21,4.06,15.87,7,21.18,10.18,14,8.42,16.7,19,16.49,26.34-.68,23.86-30,32-42.53,35.47-24.42,6.76-62.62,12.88-116.79,18.7A22.63,22.63,0,0,1,39.24,300Z"/></g></g></svg>