<svg xmlns="http://www.w3.org/2000/svg" viewBox="0 0 210 328.99"><g id="Слой_2" data-name="Слой 2"><g id="Shapes"><path id="_08" data-name="08" d="M125.45,329a21.18,21.18,0,0,1-19.56-29.23,174.36,174.36,0,0,0,11.36-40.37c-20.09,5.9-39.71,4.89-57.7-3.13C24.76,240.74,6.62,204.46,1.66,178.1c-4.25-22.52-.28-41.31,11.16-52.9,12.72-12.89,33.67-16.08,59-9,20.37,5.7,40.32,17.13,54.73,31.36a110.76,110.76,0,0,1,25.25,38.87c2.17-2.46,4.16-4.91,5.94-7.29,9.68-13,12.36-30.24,7.53-48.63-4.38-16.73-22.16-59-92.3-90A21.17,21.17,0,0,1,90.08,1.81c61.26,27.08,103.59,70.07,116.15,118,8.16,31.12,3,61.21-14.58,84.71a174.24,174.24,0,0,1-30.55,31.28c.49,25.78-5,53.23-16.06,80.12A21.18,21.18,0,0,1,125.45,329ZM43,155.27c-1,3.11-1.47,11.54,2.41,23.47C50,192.8,60.66,210.39,76.8,217.59c12.57,5.61,26.43,3.25,39.44-3.07-3.33-14.69-9.83-27.35-19.44-36.83-8.33-8.23-20.61-15.56-32.86-19.63C52.44,154.24,45.51,154.69,43,155.27Z"/></g></g></svg>