<svg xmlns="http://www.w3.org/2000/svg" viewBox="0 0 224.17 300"><g id="Слой_2" data-name="Слой 2"><g id="Shapes"><path id="_09" data-name="09" d="M43.87,300l-7.64-42.79c43-7.67,73.69-14.09,95.61-19.3l-10.07-1.06c-24.66-2.58-50.15-5.25-70.53-9.39-12.17-2.47-21.55-5.29-28.68-8.62C5.7,211,1.09,199.76.19,191.73c-1.63-14.42,7.65-25.2,15.72-31.69,6.27-5,14.86-10.18,26.26-15.68,8.78-4.24,18.77-8.47,29.12-12.6l-.72,0c-11.77-.55-43-2-52.66-25.53C15,99,13.23,87.13,21.85,71.87c4.24-7.49,10.69-15.47,19.73-24.39C55.27,34,74.7,18.43,101,0l25,35.59C86.85,63,70.46,79.11,63.62,87.55a133.14,133.14,0,0,0,16.55.94c14.26.08,31.17-1.21,46.08-2.34,12.73-1,24.77-1.89,34.08-1.89h.13a70.9,70.9,0,0,1,14.85,1.27c15.7,3.41,19.84,14.48,20.9,19.08,1.14,5,2.17,17.72-12.94,28.14a103.36,103.36,0,0,1-16.31,8.7c-11.59,5.18-27.21,11-43.74,17.09-18.5,6.86-37.63,13.94-53.68,21.06-4.16,1.84-7.72,3.52-10.76,5,3,.64,6.54,1.3,10.56,2,16.9,2.82,37.26,5,57,7,20.83,2.18,40.5,4.24,55.79,7,9.36,1.72,16.27,3.57,21.73,5.81,7.12,2.92,19.21,10,20.28,24.53.56,7.59-1.85,18.5-16.5,27.39-6.63,4-15.81,7.82-28.89,11.93C150.94,279.06,106.83,288.76,43.87,300Z"/></g></g></svg>