<svg xmlns="http://www.w3.org/2000/svg" viewBox="0 0 282.53 303"><defs><style>.cls-1{fill:none;stroke:#000;stroke-miterlimit:10;stroke-width:3px;}</style></defs><g id="Слой_2" data-name="Слой 2"><g id="Shapes"><path id="_10" data-name="10" class="cls-1" d="M135.76,301.5c-17,0-33.6-3.05-48.08-9.18-25.22-10.68-46.61-32-61.86-61.53-13-25.14-21.12-55.12-23.59-86.71C-1.49,96.43,8.32,36.94,47,12.85,74.41-4.18,114-2,158.45,19c42.72,20.19,86,56.35,122,101.82l-33.61,26.56C214.9,107,177,75.18,140.14,57.76c-29.51-13.95-56.51-17.22-70.47-8.53C61.53,54.29,54.56,65.55,50,81c-5,16.9-6.78,38.13-5.09,59.78,2,25.58,8.73,50.59,19,70.41,7.4,14.34,20.43,33.23,40.49,41.72,19.9,8.43,48.74,7.46,71.79-2.41C190.8,244.19,201.3,235,205,225.27c10.41-27.59-20.8-84.68-95.29-115L125.83,70.6c42.8,17.41,78.55,44.65,100.67,76.69s28.82,65.9,18.55,93.11c-7.88,20.89-26.35,38.45-52,49.44A147,147,0,0,1,135.76,301.5Z"/></g></g></svg>