<svg xmlns="http://www.w3.org/2000/svg" viewBox="0 0 303 417.95"><defs><style>.cls-1{fill:none;stroke:#000;stroke-miterlimit:10;stroke-width:3px;}</style></defs><g id="Слой_2" data-name="Слой 2"><g id="Shapes"><path id="_11" data-name="11" class="cls-1" d="M239.39,415.83,223.86,400.3c-12.21-12.21-14.64-29.66-7.24-51.88,4.72-14.16,13-29.53,21-44.39,5.8-10.76,11.79-21.88,15.68-31.3A69.18,69.18,0,0,0,257,261.66,69.18,69.18,0,0,0,246,265.38c-9.42,3.89-20.54,9.88-31.3,15.67-14.86,8-30.23,16.28-44.39,21-22.22,7.41-39.67,5-51.88-7.23s-14.63-29.65-7.23-51.87c4.72-14.16,13-29.53,21-44.4,5.79-10.75,11.78-21.87,15.68-31.29a69.18,69.18,0,0,0,3.72-11.07,70.3,70.3,0,0,0-11.08,3.71c-9.41,3.9-20.53,9.89-31.29,15.68-14.86,8-30.23,16.28-44.39,21-22.22,7.41-39.67,5-51.88-7.23S-1.72,159.7,5.69,137.48c4.71-14.16,13-29.53,21-44.39,5.79-10.76,11.78-21.88,15.68-31.3,3.45-8.34,4.14-12.68,4.25-14.51L32.54,33.2,63.61,2.12,79.15,17.66c12.2,12.2,14.64,29.65,7.23,51.87-4.72,14.16-13,29.53-21,44.39-5.79,10.76-11.78,21.88-15.68,31.3A69.18,69.18,0,0,0,46,156.29a69.18,69.18,0,0,0,11.07-3.72c9.42-3.9,20.54-9.89,31.3-15.68,14.86-8,30.23-16.28,44.39-21,22.22-7.4,39.67-5,51.87,7.23s14.64,29.66,7.23,51.88c-4.72,14.15-13,29.52-21,44.39-5.79,10.76-11.78,21.88-15.68,31.29a70.3,70.3,0,0,0-3.71,11.08A69.18,69.18,0,0,0,162.52,258c9.42-3.9,20.54-9.89,31.3-15.68,14.86-8,30.23-16.28,44.39-21,22.22-7.4,39.67-5,51.87,7.23s14.64,29.66,7.24,51.88c-4.72,14.16-13,29.53-21,44.39-5.8,10.76-11.78,21.88-15.68,31.3-3.46,8.35-4.15,12.68-4.26,14.51l14.09,14.09Zm-193.94-255h0Z"/></g></g></svg>