<svg xmlns="http://www.w3.org/2000/svg" viewBox="0 0 253.83 268.22"><defs><style>.cls-1{fill:none;stroke:#000;stroke-miterlimit:10;stroke-width:3px;}</style></defs><g id="Слой_2" data-name="Слой 2"><g id="Shapes"><path id="_12" data-name="12" class="cls-1" d="M2.09,179.89l24.61-35.3c35.46,24.72,61.45,41.73,80.44,53.42l-6.31-7.79C85.38,171.15,69.4,151.43,58,134.27,51.24,124,46.65,115.48,44,108.16c-6.29-17.31-1.66-28.39,3.33-34.65,9-11.23,23-12.27,33.19-11.17,7.92.85,17.52,3.27,29.36,7.4,9.11,3.18,19.07,7.21,29.2,11.57l-.48-.53c-7.86-8.62-28.73-31.52-19-54.74,3-7.14,10.07-16.62,26.79-21.27,8.21-2.28,18.31-3.35,30.88-3.27,19.05.13,43.53,2.86,74.83,8.35l-7.44,42.39c-46.56-8.18-69.31-8.37-80-7.25a131.31,131.31,0,0,0,10.92,12.24c10,10.06,22.67,21,33.9,30.62,9.64,8.27,18.73,16.09,25.27,22.63a69.74,69.74,0,0,1,9.51,11.28c8.6,13.38,3.75,24,1.27,28-2.69,4.29-10.88,13.92-28.76,10.64a101.44,101.44,0,0,1-17.5-5.33c-11.75-4.49-26.73-11.37-42.59-18.66-17.75-8.15-36.1-16.58-52.32-22.84-4.2-1.62-7.87-2.94-11-4,1.68,2.58,3.67,5.49,6,8.77,9.85,13.81,22.61,29.56,35,44.79,13,16.11,25.39,31.33,34.12,44,5.35,7.76,8.89,13.89,11.15,19.28,2.94,7,6.46,20.43-3,31.36-4.92,5.71-14.25,11.66-30.72,7.64-7.47-1.83-16.55-5.6-28.59-11.88C91.71,240.19,54,216.1,2.09,179.89Z"/></g></g></svg>