<svg xmlns="http://www.w3.org/2000/svg" viewBox="0 0 299.04 303"><defs><style>.cls-1{fill:none;stroke:#000;stroke-miterlimit:10;stroke-width:3px;}</style></defs><g id="Слой_2" data-name="Слой 2"><g id="Shapes"><path id="_17" data-name="17" class="cls-1" d="M297.54,92.56c-.12,11.48-2.73,22-2.86,33.45-.53,5.64-1.13,11.3-1.84,17a459.66,459.66,0,0,1-9.08,51.1q-2.43,10.13-5.41,20c-2.34,6.52-4.65,13.09-7,19.67s-4.75,13.07-7.29,19.31c-6,11.89-13,30.28-25.14,35.82a18.49,18.49,0,0,1-13.93.52c-11.56-3.71-22.87-8.43-34.23-13-5.67-2.27-11.36-4.49-17.09-6.53a86.27,86.27,0,0,0-34-10.21,87.29,87.29,0,0,0-16.8.24,76.35,76.35,0,0,0-15.76,3.75,98.27,98.27,0,0,0-14.38,6.45,57.48,57.48,0,0,0-10.68,6.37c-3.43,2.52-6.75,5.34-10,8.17-9.27,7.38-17.36,18-30.12,16.69-27-2.3-42.35-31.65-40.25-57.3a156.17,156.17,0,0,1,2.39-18.67C6,220,6.89,214.33,9.39,209a92.33,92.33,0,0,1,8.06-12.66c3-4,6.23-7.81,9.62-11.55A104.62,104.62,0,0,0,43.7,173.13,91.2,91.2,0,0,0,56.65,159.4c13.85-16,18.22-34.52,17.92-53.72a127.6,127.6,0,0,0-1.88-19.46C71.58,66.43,52.46,46.58,65.2,27a16,16,0,0,1,10.74-5.81c3.22-.15,7.23.36,10,2,15.94,10.59,26.85,28.7,45.45,31.62,32.27,4.79,51.43-28.89,75.13-45.14C217.71,2.05,232.24-1.73,244.72,5A115.34,115.34,0,0,1,260,14.73c19.13,14.5,33,35,35.84,61A136.58,136.58,0,0,1,297.54,92.56Z"/></g></g></svg>