<svg xmlns="http://www.w3.org/2000/svg" viewBox="0 0 300 300"><g id="Слой_2" data-name="Слой 2"><g id="Shapes"><path id="_18" data-name="18" d="M237,92.69a32,32,0,0,1,3.66-15C245.41,68.49,252,61.06,252,50.07c0-11.67-8.17-16.34-28-16.93-14.6,0-25.11,5.26-35,14a29.63,29.63,0,0,1-9.82,5.49c-1.69-.45-3.42-.86-5.2-1.25a25.62,25.62,0,0,1-9.08-5.78C151.61,32.39,158.63,18,145.42,4.74c-8.26-8.26-17.34-5.78-31.79,7.85A46.92,46.92,0,0,0,101.39,32.3C99,39.71,100.83,50.69,95.83,57a17.14,17.14,0,0,1-3.58,3.1c-4.36,3.1-8.76,6.23-13.65,8.42a27.09,27.09,0,0,1-18.92,1.66C52.7,68.2,46,65,38.61,65c-9.93,0-17.52,6.42-17.52,23.94,0,6.63,2.53,12.79,6.13,18.26a48.91,48.91,0,0,0,5.66,7.51C35.19,117,38,119.22,39,122.54a14.7,14.7,0,0,1,.07,6c-1.18,8.66-4.07,18-11.13,23.63s-16.38,7.5-22.83,13.95c-7,7-7.84,16.92,4.54,29.31,5.27,5.26,12.16,7.49,19.3,8.83,5.5,1,13.54-.32,18.23,3a14,14,0,0,1,2.88,3c4.9,6.34,9.3,14.34,9.31,22.55,0,8.76-6.42,18.09-6.42,28.6,0,9.93,6.42,17.52,23.93,17.52,6.62,0,12.85-2.48,18.34-6a72.37,72.37,0,0,0,7.84-6c2-1.71,5-5.82,7.47-6.4a5.17,5.17,0,0,1,1.88,0c9,1.19,19.3,3,26,9.69,6.19,6.2,8.25,17.33,15.69,24.77,7,7,16.92,7.84,29.31-4.54,8.78-8.79,10-22.42,10.31-34.2a7.22,7.22,0,0,1,.68-3.57c2.07-3.49,9.37-3.77,12.92-3.77,18.68,0,23.94,15.18,42.62,15.18,11.67,0,16.34-8.18,16.93-28,0-14.59-5.26-25.1-14-35-2.19-2.47-5.73-7.24-5.56-10.74a11.22,11.22,0,0,1,1-3.66c4.11-10.05,12.26-15.84,22.52-18.46,9-2.3,17.62-3.78,24.48-10.65,8.26-8.25,5.78-17.34-7.85-31.78a46.89,46.89,0,0,0-20.17-12.39c-7.07-2.17-14.62-2.1-21.78-4.06a10,10,0,0,1-3.73-1.65,8.85,8.85,0,0,1-2.26-3.3A28.55,28.55,0,0,1,237,92.69Z"/></g></g></svg>