<svg xmlns="http://www.w3.org/2000/svg" viewBox="0 0 303 303"><defs><style>.cls-1{fill:none;stroke:#000;stroke-linecap:round;stroke-miterlimit:10;stroke-width:3px;}</style></defs><g id="Слой_2" data-name="Слой 2"><g id="Shapes"><g id="_22" data-name="22"><line class="cls-1" x1="151.5" y1="215.79" x2="151.5" y2="301.5"/><line class="cls-1" x1="158.22" y1="215.43" x2="167.18" y2="300.68"/><line class="cls-1" x1="164.87" y1="214.38" x2="182.69" y2="298.22"/><line class="cls-1" x1="171.37" y1="212.64" x2="197.85" y2="294.16"/><line class="cls-1" x1="177.65" y1="210.23" x2="212.51" y2="288.53"/><line class="cls-1" x1="183.64" y1="207.17" x2="226.5" y2="281.4"/><line class="cls-1" x1="189.29" y1="203.51" x2="239.67" y2="272.85"/><line class="cls-1" x1="194.52" y1="199.27" x2="251.87" y2="262.97"/><line class="cls-1" x1="199.27" y1="194.52" x2="262.97" y2="251.87"/><line class="cls-1" x1="203.51" y1="189.29" x2="272.85" y2="239.67"/><line class="cls-1" x1="207.17" y1="183.64" x2="281.4" y2="226.5"/><line class="cls-1" x1="210.23" y1="177.65" x2="288.53" y2="212.51"/><line class="cls-1" x1="212.64" y1="171.37" x2="294.16" y2="197.85"/><line class="cls-1" x1="214.38" y1="164.87" x2="298.22" y2="182.69"/><line class="cls-1" x1="215.43" y1="158.22" x2="300.68" y2="167.18"/><line class="cls-1" x1="215.79" y1="151.5" x2="301.5" y2="151.5"/><line class="cls-1" x1="215.43" y1="144.78" x2="300.68" y2="135.82"/><line class="cls-1" x1="214.38" y1="138.13" x2="298.22" y2="120.31"/><line class="cls-1" x1="212.64" y1="131.63" x2="294.16" y2="105.15"/><line class="cls-1" x1="210.23" y1="125.35" x2="288.53" y2="90.49"/><line class="cls-1" x1="207.17" y1="119.36" x2="281.4" y2="76.5"/><line class="cls-1" x1="203.51" y1="113.71" x2="272.85" y2="63.33"/><line class="cls-1" x1="199.27" y1="108.48" x2="262.97" y2="51.13"/><line class="cls-1" x1="194.52" y1="103.73" x2="251.87" y2="40.03"/><line class="cls-1" x1="189.29" y1="99.49" x2="239.67" y2="30.15"/><line class="cls-1" x1="183.64" y1="95.83" x2="226.5" y2="21.6"/><line class="cls-1" x1="177.65" y1="92.77" x2="212.51" y2="14.47"/><line class="cls-1" x1="171.37" y1="90.36" x2="197.85" y2="8.84"/><line class="cls-1" x1="164.87" y1="88.62" x2="182.69" y2="4.78"/><line class="cls-1" x1="158.22" y1="87.57" x2="167.18" y2="2.32"/><line class="cls-1" x1="151.5" y1="87.21" x2="151.5" y2="1.5"/><line class="cls-1" x1="144.78" y1="87.57" x2="135.82" y2="2.32"/><line class="cls-1" x1="138.13" y1="88.62" x2="120.31" y2="4.78"/><line class="cls-1" x1="131.63" y1="90.36" x2="105.15" y2="8.84"/><line class="cls-1" x1="125.35" y1="92.77" x2="90.49" y2="14.47"/><line class="cls-1" x1="119.36" y1="95.83" x2="76.5" y2="21.6"/><line class="cls-1" x1="113.71" y1="99.49" x2="63.33" y2="30.15"/><line class="cls-1" x1="108.48" y1="103.73" x2="51.13" y2="40.03"/><line class="cls-1" x1="103.73" y1="108.48" x2="40.03" y2="51.13"/><line class="cls-1" x1="99.49" y1="113.71" x2="30.15" y2="63.33"/><line class="cls-1" x1="95.83" y1="119.36" x2="21.6" y2="76.5"/><line class="cls-1" x1="92.77" y1="125.35" x2="14.47" y2="90.49"/><line class="cls-1" x1="90.36" y1="131.63" x2="8.84" y2="105.15"/><line class="cls-1" x1="88.62" y1="138.13" x2="4.78" y2="120.31"/><line class="cls-1" x1="87.57" y1="144.78" x2="2.32" y2="135.82"/><line class="cls-1" x1="87.21" y1="151.5" x2="1.5" y2="151.5"/><line class="cls-1" x1="87.57" y1="158.22" x2="2.32" y2="167.18"/><line class="cls-1" x1="88.62" y1="164.87" x2="4.78" y2="182.69"/><line class="cls-1" x1="90.36" y1="171.37" x2="8.84" y2="197.85"/><line class="cls-1" x1="92.77" y1="177.65" x2="14.47" y2="212.51"/><line class="cls-1" x1="95.83" y1="183.64" x2="21.6" y2="226.5"/><line class="cls-1" x1="99.49" y1="189.29" x2="30.15" y2="239.67"/><line class="cls-1" x1="103.73" y1="194.52" x2="40.03" y2="251.87"/><line class="cls-1" x1="108.48" y1="199.27" x2="51.13" y2="262.97"/><line class="cls-1" x1="113.71" y1="203.51" x2="63.33" y2="272.85"/><line class="cls-1" x1="119.36" y1="207.17" x2="76.5" y2="281.4"/><line class="cls-1" x1="125.35" y1="210.23" x2="90.49" y2="288.53"/><line class="cls-1" x1="131.63" y1="212.64" x2="105.15" y2="294.16"/><line class="cls-1" x1="138.13" y1="214.38" x2="120.31" y2="298.22"/><line class="cls-1" x1="144.78" y1="215.43" x2="135.82" y2="300.68"/></g></g></g></svg>