<svg xmlns="http://www.w3.org/2000/svg" viewBox="0 0 300 300"><defs><style>.cls-1{fill:#19181b;}</style></defs><g id="Слой_2" data-name="Слой 2"><g id="Shapes"><g id="_23" data-name="23"><path class="cls-1" d="M118.9,150a3.92,3.92,0,1,0-3.92,3.92A3.92,3.92,0,0,0,118.9,150Z"/><circle class="cls-1" cx="88.93" cy="150" r="5.64"/><circle class="cls-1" cx="62.89" cy="150" r="7.36"/><path class="cls-1" d="M45.91,150a9.08,9.08,0,1,0-9.07,9.07A9.07,9.07,0,0,0,45.91,150Z"/><path class="cls-1" d="M21.59,150a10.8,10.8,0,1,0-10.8,10.79A10.8,10.8,0,0,0,21.59,150Z"/><path class="cls-1" d="M188.94,150a3.92,3.92,0,1,0-3.92,3.92A3.91,3.91,0,0,0,188.94,150Z"/><circle class="cls-1" cx="211.07" cy="150" r="5.64"/><circle class="cls-1" cx="237.11" cy="150" r="7.36"/><path class="cls-1" d="M254.09,150a9.08,9.08,0,1,0,9.07-9.07A9.07,9.07,0,0,0,254.09,150Z"/><circle class="cls-1" cx="289.21" cy="150" r="10.79"/><path class="cls-1" d="M150,118.9a3.92,3.92,0,1,0-3.92-3.92A3.92,3.92,0,0,0,150,118.9Z"/><path class="cls-1" d="M150,83.29a5.64,5.64,0,1,0,5.64,5.64A5.65,5.65,0,0,0,150,83.29Z"/><path class="cls-1" d="M150,55.53a7.36,7.36,0,1,0,7.36,7.36A7.36,7.36,0,0,0,150,55.53Z"/><path class="cls-1" d="M150,27.76a9.08,9.08,0,1,0,9.07,9.08A9.08,9.08,0,0,0,150,27.76Z"/><path class="cls-1" d="M150,21.59a10.8,10.8,0,1,0-10.79-10.8A10.8,10.8,0,0,0,150,21.59Z"/><path class="cls-1" d="M150,188.94a3.92,3.92,0,1,0-3.92-3.92A3.91,3.91,0,0,0,150,188.94Z"/><path class="cls-1" d="M150,205.43a5.64,5.64,0,1,0,5.64,5.64A5.64,5.64,0,0,0,150,205.43Z"/><path class="cls-1" d="M150,229.76a7.36,7.36,0,1,0,7.36,7.35A7.36,7.36,0,0,0,150,229.76Z"/><path class="cls-1" d="M140.93,263.16a9.07,9.07,0,1,0,9.07-9.07A9.08,9.08,0,0,0,140.93,263.16Z"/><path class="cls-1" d="M150,278.41a10.8,10.8,0,1,0,10.79,10.8A10.8,10.8,0,0,0,150,278.41Z"/><path class="cls-1" d="M134.45,123.07a3.92,3.92,0,1,0-5.36-1.44A3.93,3.93,0,0,0,134.45,123.07Z"/><circle class="cls-1" cx="119.47" cy="97.11" r="5.64"/><path class="cls-1" d="M100.07,78.23a7.35,7.35,0,1,0,2.69-10A7.36,7.36,0,0,0,100.07,78.23Z"/><path class="cls-1" d="M85.56,56.54a9.08,9.08,0,1,0,3.32-12.4A9.09,9.09,0,0,0,85.56,56.54Z"/><path class="cls-1" d="M85.79,38.79a10.79,10.79,0,1,0-14.74-3.95A10.78,10.78,0,0,0,85.79,38.79Z"/><path class="cls-1" d="M165.55,176.93a3.92,3.92,0,1,0,5.36,1.44A3.93,3.93,0,0,0,165.55,176.93Z"/><circle class="cls-1" cx="180.53" cy="202.89" r="5.64"/><path class="cls-1" d="M199.93,221.77a7.35,7.35,0,1,0-2.69,10A7.36,7.36,0,0,0,199.93,221.77Z"/><path class="cls-1" d="M214.44,243.46a9.08,9.08,0,1,0-3.32,12.4A9.09,9.09,0,0,0,214.44,243.46Z"/><path class="cls-1" d="M214.21,261.21a10.79,10.79,0,1,0,14.74,4A10.79,10.79,0,0,0,214.21,261.21Z"/><path class="cls-1" d="M123.07,134.45a3.92,3.92,0,1,0-5.36,1.43A3.93,3.93,0,0,0,123.07,134.45Z"/><circle class="cls-1" cx="97.11" cy="119.47" r="5.64"/><path class="cls-1" d="M78.24,100.07a7.36,7.36,0,1,0,2.69,10.05A7.36,7.36,0,0,0,78.24,100.07Z"/><path class="cls-1" d="M47.46,101.28a9.08,9.08,0,1,0-3.32-12.4A9.09,9.09,0,0,0,47.46,101.28Z"/><path class="cls-1" d="M24.05,89.74A10.79,10.79,0,1,0,20.1,75,10.79,10.79,0,0,0,24.05,89.74Z"/><path class="cls-1" d="M182.29,164.12a3.92,3.92,0,1,0,1.44,5.35A3.93,3.93,0,0,0,182.29,164.12Z"/><circle class="cls-1" cx="202.89" cy="180.53" r="5.64"/><path class="cls-1" d="M229.12,187.19a7.35,7.35,0,1,0,2.69,10.05A7.35,7.35,0,0,0,229.12,187.19Z"/><path class="cls-1" d="M252.54,198.72a9.08,9.08,0,1,0,3.32,12.4A9.09,9.09,0,0,0,252.54,198.72Z"/><path class="cls-1" d="M276,210.26A10.79,10.79,0,1,0,279.9,225,10.79,10.79,0,0,0,276,210.26Z"/><path class="cls-1" d="M117.19,137.15A3.92,3.92,0,1,0,120,142,3.93,3.93,0,0,0,117.19,137.15Z"/><circle class="cls-1" cx="91.01" cy="134.19" r="5.64" transform="matrix(0.99, -0.14, 0.14, 0.99, -17.97, 14.14)"/><path class="cls-1" d="M67.76,120.35a7.36,7.36,0,1,0,5.2,9A7.35,7.35,0,0,0,67.76,120.35Z"/><path class="cls-1" d="M31.93,118.36A9.07,9.07,0,1,0,43,112,9.08,9.08,0,0,0,31.93,118.36Z"/><path class="cls-1" d="M18.33,103.55A10.79,10.79,0,1,0,26,116.76,10.78,10.78,0,0,0,18.33,103.55Z"/><path class="cls-1" d="M187.62,160.08a3.92,3.92,0,1,0-4.81,2.77A3.92,3.92,0,0,0,187.62,160.08Z"/><path class="cls-1" d="M207.53,171.25a5.64,5.64,0,1,0-4-6.9A5.63,5.63,0,0,0,207.53,171.25Z"/><path class="cls-1" d="M241.25,174.45a7.36,7.36,0,1,0-9,5.2A7.35,7.35,0,0,0,241.25,174.45Z"/><path class="cls-1" d="M268.07,181.64A9.07,9.07,0,1,0,257,188.05,9.08,9.08,0,0,0,268.07,181.64Z"/><path class="cls-1" d="M287.26,175.6a10.79,10.79,0,1,0,7.63,13.22A10.8,10.8,0,0,0,287.26,175.6Z"/><path class="cls-1" d="M117.19,162.85a3.92,3.92,0,1,0-4.81-2.77A3.92,3.92,0,0,0,117.19,162.85Z"/><circle class="cls-1" cx="91.01" cy="165.81" r="5.64" transform="translate(-85.95 232.59) rotate(-81.91)"/><path class="cls-1" d="M67.76,179.65a7.36,7.36,0,1,0-9-5.2A7.36,7.36,0,0,0,67.76,179.65Z"/><path class="cls-1" d="M49.46,176.94A9.07,9.07,0,1,0,43,188.05,9.08,9.08,0,0,0,49.46,176.94Z"/><path class="cls-1" d="M12.74,175.6A10.79,10.79,0,1,0,26,183.24,10.81,10.81,0,0,0,12.74,175.6Z"/><path class="cls-1" d="M184.84,144.72A3.92,3.92,0,1,0,180,142,3.92,3.92,0,0,0,184.84,144.72Z"/><path class="cls-1" d="M210.45,139.64a5.64,5.64,0,1,0-6.91-4A5.63,5.63,0,0,0,210.45,139.64Z"/><path class="cls-1" d="M236.05,134.56a7.36,7.36,0,1,0-9-5.2A7.35,7.35,0,0,0,236.05,134.56Z"/><path class="cls-1" d="M250.54,123.06A9.07,9.07,0,1,0,257,112,9.08,9.08,0,0,0,250.54,123.06Z"/><path class="cls-1" d="M287.26,124.4A10.79,10.79,0,1,0,274,116.76,10.81,10.81,0,0,0,287.26,124.4Z"/><circle class="cls-1" cx="125.24" cy="174.76" r="3.92"/><path class="cls-1" d="M110.81,197.17a5.64,5.64,0,1,0-8,0A5.65,5.65,0,0,0,110.81,197.17Z"/><path class="cls-1" d="M83.2,206.4a7.35,7.35,0,1,0,10.4,0A7.36,7.36,0,0,0,83.2,206.4Z"/><circle class="cls-1" cx="69.98" cy="230.02" r="9.07"/><circle class="cls-1" cx="51.57" cy="248.43" r="10.79"/><circle class="cls-1" cx="174.76" cy="125.24" r="3.92"/><path class="cls-1" d="M189.19,102.83a5.64,5.64,0,1,0,8,0A5.65,5.65,0,0,0,189.19,102.83Z"/><circle class="cls-1" cx="211.6" cy="88.4" r="7.36"/><circle class="cls-1" cx="230.02" cy="69.98" r="9.07"/><path class="cls-1" d="M256.07,59.2a10.8,10.8,0,1,0-15.27,0A10.81,10.81,0,0,0,256.07,59.2Z"/><path class="cls-1" d="M139.92,187.62a3.92,3.92,0,1,0-2.77-4.81A3.92,3.92,0,0,0,139.92,187.62Z"/><path class="cls-1" d="M135.65,203.54a5.64,5.64,0,1,0,4,6.91A5.63,5.63,0,0,0,135.65,203.54Z"/><path class="cls-1" d="M129.36,227a7.36,7.36,0,1,0,5.2,9A7.36,7.36,0,0,0,129.36,227Z"/><path class="cls-1" d="M123.06,250.54a9.07,9.07,0,1,0,6.42,11.11A9.07,9.07,0,0,0,123.06,250.54Z"/><path class="cls-1" d="M116.76,274a10.79,10.79,0,1,0,7.64,13.22A10.79,10.79,0,0,0,116.76,274Z"/><path class="cls-1" d="M160.08,112.38a3.92,3.92,0,1,0,2.77,4.81A3.92,3.92,0,0,0,160.08,112.38Z"/><path class="cls-1" d="M164.35,96.46a5.64,5.64,0,1,0-4-6.91A5.63,5.63,0,0,0,164.35,96.46Z"/><path class="cls-1" d="M170.64,73a7.36,7.36,0,1,0-5.2-9A7.36,7.36,0,0,0,170.64,73Z"/><path class="cls-1" d="M176.94,49.46a9.07,9.07,0,1,0-6.42-11.11A9.07,9.07,0,0,0,176.94,49.46Z"/><path class="cls-1" d="M183.24,26a10.79,10.79,0,1,0-7.64-13.22A10.79,10.79,0,0,0,183.24,26Z"/></g></g></g></svg>