<svg xmlns="http://www.w3.org/2000/svg" viewBox="0 0 300 300"><g id="Слой_2" data-name="Слой 2"><g id="Shapes"><path id="_24" data-name="24" d="M283.33,133.33a17.12,17.12,0,0,0-4,.49A577.75,577.75,0,0,1,155.8,148.45a577.19,577.19,0,0,1,114.29-49.1,17.9,17.9,0,0,0,3.71-1.58A16.67,16.67,0,0,0,257.14,68.9a17,17,0,0,0-3.23,2.43,577.69,577.69,0,0,1-99.67,74.43,577.69,577.69,0,0,1,74.43-99.67,17,17,0,0,0,2.43-3.23A16.67,16.67,0,0,0,202.23,26.2a17.53,17.53,0,0,0-1.58,3.71,577.19,577.19,0,0,1-49.1,114.29A577.75,577.75,0,0,1,166.18,20.68a17.2,17.2,0,0,0,.49-4,16.67,16.67,0,1,0-33.34,0,17.05,17.05,0,0,0,.49,4A577.75,577.75,0,0,1,148.45,144.2,577.19,577.19,0,0,1,99.35,29.91a17.38,17.38,0,0,0-1.58-3.71A16.67,16.67,0,0,0,68.9,42.86a17,17,0,0,0,2.43,3.23,577.69,577.69,0,0,1,74.43,99.67A577.69,577.69,0,0,1,46.09,71.33a17,17,0,0,0-3.23-2.43A16.67,16.67,0,0,0,26.2,97.77a17,17,0,0,0,3.71,1.58,577.19,577.19,0,0,1,114.29,49.1A577.75,577.75,0,0,1,20.68,133.82a17.2,17.2,0,0,0-4-.49,16.67,16.67,0,1,0,0,33.34,17.05,17.05,0,0,0,4-.49A577.75,577.75,0,0,1,144.2,151.55a577.19,577.19,0,0,1-114.29,49.1,17.38,17.38,0,0,0-3.71,1.58A16.67,16.67,0,0,0,42.86,231.1a17,17,0,0,0,3.23-2.43,577.69,577.69,0,0,1,99.67-74.43,577.69,577.69,0,0,1-74.43,99.67,17,17,0,0,0-2.43,3.23A16.67,16.67,0,0,0,97.77,273.8a17,17,0,0,0,1.58-3.71,577.19,577.19,0,0,1,49.1-114.29,577.75,577.75,0,0,1-14.63,123.52,17.2,17.2,0,0,0-.49,4,16.67,16.67,0,0,0,33.34,0,17.12,17.12,0,0,0-.49-4A577.75,577.75,0,0,1,151.55,155.8a577.19,577.19,0,0,1,49.1,114.29,17.9,17.9,0,0,0,1.58,3.71,16.67,16.67,0,0,0,28.87-16.66,17,17,0,0,0-2.43-3.23,577.69,577.69,0,0,1-74.43-99.67,577.69,577.69,0,0,1,99.67,74.43,17,17,0,0,0,3.23,2.43,16.67,16.67,0,0,0,16.66-28.87,17.53,17.53,0,0,0-3.71-1.58,577.19,577.19,0,0,1-114.29-49.1,577.75,577.75,0,0,1,123.52,14.63,17.2,17.2,0,0,0,4,.49,16.67,16.67,0,1,0,0-33.34Z"/></g></g></svg>