<svg xmlns="http://www.w3.org/2000/svg" viewBox="0 0 303 303"><defs><style>.cls-1{fill:none;stroke:#000;stroke-miterlimit:10;stroke-width:3px;}</style></defs><g id="Слой_2" data-name="Слой 2"><g id="Shapes"><g id="_27" data-name="27"><ellipse class="cls-1" cx="151.5" cy="151.5" rx="29.54" ry="150"/><ellipse class="cls-1" cx="151.5" cy="151.5" rx="150" ry="29.54"/><ellipse class="cls-1" cx="151.5" cy="151.5" rx="29.54" ry="150" transform="translate(-62.75 151.5) rotate(-45)"/><ellipse class="cls-1" cx="151.5" cy="151.5" rx="150" ry="29.54" transform="translate(-62.75 151.5) rotate(-45)"/><ellipse class="cls-1" cx="151.5" cy="151.5" rx="150" ry="29.54" transform="translate(-34.05 258.63) rotate(-75)"/><ellipse class="cls-1" cx="151.5" cy="151.5" rx="29.54" ry="150" transform="translate(-34.05 258.63) rotate(-75)"/><ellipse class="cls-1" cx="151.5" cy="151.5" rx="29.54" ry="150" transform="translate(-55.45 96.05) rotate(-30)"/><ellipse class="cls-1" cx="151.5" cy="151.5" rx="150" ry="29.54" transform="translate(-55.45 96.05) rotate(-30)"/><ellipse class="cls-1" cx="151.5" cy="151.5" rx="150" ry="29.54" transform="translate(-55.45 206.95) rotate(-60)"/><ellipse class="cls-1" cx="151.5" cy="151.5" rx="29.54" ry="150" transform="translate(-55.45 206.95) rotate(-60)"/><ellipse class="cls-1" cx="151.5" cy="151.5" rx="29.54" ry="150" transform="translate(-34.05 44.37) rotate(-15)"/><ellipse class="cls-1" cx="151.5" cy="151.5" rx="150" ry="29.54" transform="translate(-34.05 44.37) rotate(-15)"/><ellipse class="cls-1" cx="151.5" cy="151.5" rx="150" ry="29.54" transform="translate(-62.75 151.5) rotate(-45)"/><ellipse class="cls-1" cx="151.5" cy="151.5" rx="29.54" ry="150" transform="translate(-62.75 151.5) rotate(-45)"/><ellipse class="cls-1" cx="151.5" cy="151.5" rx="29.54" ry="150"/><ellipse class="cls-1" cx="151.5" cy="151.5" rx="150" ry="29.54"/></g></g></g></svg>