<svg xmlns="http://www.w3.org/2000/svg" viewBox="0 0 303 303"><defs><style>.cls-1{fill:none;stroke:#000;stroke-miterlimit:10;stroke-width:3px;}</style></defs><g id="Слой_2" data-name="Слой 2"><g id="Shapes"><g id="_28" data-name="28"><path class="cls-1" d="M225.43,106.18c0,3.83-.91,7.33-1,11.15-.17,1.88-.38,3.77-.61,5.66a153,153,0,0,1-3,17q-.81,3.38-1.8,6.68c-.78,2.17-1.55,4.36-2.34,6.55s-1.58,4.36-2.43,6.44c-2,4-4.34,10.09-8.38,11.94a6.12,6.12,0,0,1-4.64.18c-3.85-1.24-7.63-2.81-11.41-4.33-1.89-.76-3.79-1.5-5.7-2.18a28.69,28.69,0,0,0-11.32-3.4,29.1,29.1,0,0,0-5.6.08,25.47,25.47,0,0,0-5.25,1.25,32.25,32.25,0,0,0-4.79,2.15,18.58,18.58,0,0,0-3.56,2.12c-1.15.84-2.25,1.78-3.34,2.73-3.09,2.46-5.79,6-10,5.56-9-.77-14.12-10.55-13.42-19.1a51.08,51.08,0,0,1,.8-6.22,56.2,56.2,0,0,1,1.77-5.47,30.73,30.73,0,0,1,2.68-4.22c1-1.33,2.08-2.61,3.21-3.85a35,35,0,0,0,5.54-3.89,30.44,30.44,0,0,0,4.32-4.58c4.62-5.32,6.07-11.51,6-17.91a42.39,42.39,0,0,0-.62-6.48c-.37-6.6-6.75-13.22-2.5-19.75a5.37,5.37,0,0,1,3.58-1.94,6.43,6.43,0,0,1,3.33.66c5.31,3.53,9,9.57,15.15,10.54,10.75,1.6,17.14-9.63,25-15,3.74-2.52,8.58-3.78,12.74-1.54a37.78,37.78,0,0,1,5.08,3.25c6.38,4.83,11,11.66,11.95,20.34A45.85,45.85,0,0,1,225.43,106.18Z"/><path class="cls-1" d="M168,83.35c12.41,1.42,20.76-7.85,30.13-11.4,4.4-1.67,9.72-2.09,14.34.69a50.43,50.43,0,0,1,5.7,4,39.83,39.83,0,0,1,14.11,23.6,55.07,55.07,0,0,1,1,6.43c.33,4.36-.21,8.47-.3,12.9,0,2.17-.27,4.36-.47,6.57a120.23,120.23,0,0,1-3.75,21,84.87,84.87,0,0,1-2.59,8.1c-1,2.65-2.2,5.25-3.38,7.84a81.71,81.71,0,0,1-3.71,7.5c-2.83,4.82-6.46,11.19-11.57,13.62a9.66,9.66,0,0,1-5.62.84,141.23,141.23,0,0,1-14.2-2.8l-7.16-1.8a49.6,49.6,0,0,0-13.28-3.34,48.39,48.39,0,0,0-6.46-.29,40.32,40.32,0,0,0-6.06.64c-1.93.34-3.76.86-5.56,1.33a32.08,32.08,0,0,0-4.16,1.35c-1.35.56-2.66,1.2-4,1.8-3.6,1.65-6.85,4-11.39,2.89C120,182.43,114.23,171.8,114,162a65.58,65.58,0,0,1,.19-7.16,58.15,58.15,0,0,1,1.25-6.39,34.75,34.75,0,0,1,2.22-5.11c.85-1.63,1.79-3.22,2.8-4.78a57.14,57.14,0,0,0,5-5.53,70.83,70.83,0,0,0,4.18-6,51.26,51.26,0,0,0,7.68-21.28c.35-2.45.43-4.91.65-7.35.68-7.48-3.3-14.94,2.68-21.43A7.49,7.49,0,0,1,145,74.74a8.76,8.76,0,0,1,3.93.2C155.46,77.25,160.5,82.48,168,83.35Z"/><path class="cls-1" d="M165.92,73.12c14.06,1.24,24.39-6.06,35.22-7.76,5.07-.8,10.85-.39,15.93,2.94a58.85,58.85,0,0,1,6.32,4.78,50.58,50.58,0,0,1,16.29,26.86,69.62,69.62,0,0,1,1.41,7.26c.59,4.89.33,9.62.36,14.64,0,2.48-.16,5-.34,7.49a113.4,113.4,0,0,1-4.46,24.93,91,91,0,0,1-3.38,9.52c-1.34,3.11-2.85,6.14-4.42,9.12a85.92,85.92,0,0,1-5,8.58c-3.82,5.57-8.56,12.28-14.75,15.3a14.83,14.83,0,0,1-6.59,1.5,125.62,125.62,0,0,1-17-1.28c-2.85-.41-5.72-.9-8.63-1.43a92.28,92.28,0,0,0-15.23-3.27c-2.47-.32-4.91-.55-7.32-.66s-4.67-.08-6.87,0-4.28.35-6.33.52c-1.63.14-3.22.32-4.76.58s-3.08.6-4.57.87c-4.17.77-7.93,2.07-12.75.21-10.25-3.93-16.79-15.49-18-26.56a78.43,78.43,0,0,1-.42-8.09,69.5,69.5,0,0,1,.73-7.32,44.85,44.85,0,0,1,1.76-6c.7-1.93,1.51-3.83,2.38-5.71,1.6-2.31,3.11-4.71,4.57-7.16s2.72-4.87,4-7.34A109.66,109.66,0,0,0,123.55,101c.71-2.76,1.24-5.52,1.92-8.2,2.13-8.38.54-16.37,7.85-23.12a11,11,0,0,1,5.08-2.6,12.55,12.55,0,0,1,4.54-.25C150.61,68.11,157.17,72.36,165.92,73.12Z"/><path class="cls-1" d="M163.86,62.89c15.71,1.06,28-4.28,40.32-4.11A30.58,30.58,0,0,1,221.7,64a72.59,72.59,0,0,1,6.93,5.55,62.25,62.25,0,0,1,18.46,30.13,77.46,77.46,0,0,1,1.83,8.08,126.5,126.5,0,0,1,1,16.38c.07,2.78-.06,5.58-.2,8.4a114.06,114.06,0,0,1-5.17,28.88,97.34,97.34,0,0,1-4.18,10.95c-1.64,3.57-3.5,7-5.46,10.4a95.12,95.12,0,0,1-6.28,9.65c-4.83,6.33-10.67,13.38-17.94,17a21.6,21.6,0,0,1-7.57,2.16,118.44,118.44,0,0,1-19.79.25c-3.33-.24-6.69-.61-10.09-1.06-5.83-1.35-11.58-2.38-17.2-3.2-2.75-.4-5.48-.75-8.17-1s-5.21-.45-7.68-.59-4.8-.17-7.1-.3c-1.84-.1-3.62-.17-5.35-.19s-3.51,0-5.2,0c-4.73-.13-9,.1-14.11-2.47-10.88-5.48-18.15-18-20.22-30.3a85.54,85.54,0,0,1-1-9,81,81,0,0,1,.2-8.24,55.89,55.89,0,0,1,1.3-6.87c.55-2.24,1.22-4.45,2-6.65,1.37-2.88,2.72-5.82,4.07-8.79s2.59-5.81,3.92-8.72c4.32-9.46,7.9-18.93,11.1-28,1.09-3.07,2.06-6.13,3.2-9.06,3.59-9.25,4.37-17.78,13-24.81a15.92,15.92,0,0,1,5.84-2.93,18.19,18.19,0,0,1,5.14-.71C145.77,59,153.83,62.24,163.86,62.89Z"/><path class="cls-1" d="M161.8,52.65c17.37.89,31.64-2.49,45.41-.46a41.71,41.71,0,0,1,19.11,7.42,84.5,84.5,0,0,1,7.56,6.31A74.91,74.91,0,0,1,254.5,99.31a86,86,0,0,1,2.25,8.91,127,127,0,0,1,1.68,18.13c.13,3.07.06,6.18-.06,9.31a117.67,117.67,0,0,1-5.89,32.83,107.34,107.34,0,0,1-5,12.36,122.88,122.88,0,0,1-6.5,11.69,102.64,102.64,0,0,1-7.57,10.72c-5.83,7.08-12.78,14.48-21.12,18.66a30.41,30.41,0,0,1-8.54,2.82,119.66,119.66,0,0,1-22.59,1.78c-3.8-.07-7.66-.31-11.56-.68-6.5-1.13-12.91-2.15-19.15-3.14-3-.48-6.06-.95-9-1.39s-5.74-.82-8.48-1.21-5.32-.7-7.87-1.12l-6-.95c-2-.31-3.92-.63-5.81-1-5.28-1-10.09-1.85-15.47-5.14-11.53-7-19.51-20.43-22.49-34a95.68,95.68,0,0,1-1.63-10c-.16-3-.46-6.11-.32-9.17a69,69,0,0,1,.84-7.75c.4-2.54.93-5.06,1.56-7.58C77,140,78.14,136.47,79.4,133s2.44-6.75,3.78-10.11C87.48,112.1,91.7,101.49,96,91.49c1.46-3.38,2.89-6.72,4.48-9.91,5-10.1,8.19-19.18,18.2-26.5a22.23,22.23,0,0,1,6.58-3.26A26.5,26.5,0,0,1,131,50.65C140.93,49.92,150.5,52.11,161.8,52.65Z"/><path class="cls-1" d="M159.74,42.42c19,.71,35.27-.7,50.5,3.19A55.75,55.75,0,0,1,231,55.27a94.73,94.73,0,0,1,8.17,7.07A88.51,88.51,0,0,1,261.92,99a101,101,0,0,1,2.66,9.74,129.66,129.66,0,0,1,2.33,19.87c.19,3.37.18,6.79.08,10.23a122.86,122.86,0,0,1-6.6,36.77,113.89,113.89,0,0,1-5.77,13.79,127.3,127.3,0,0,1-7.53,13,111,111,0,0,1-8.86,11.79c-6.82,7.83-14.88,15.58-24.3,20.35a43.2,43.2,0,0,1-9.52,3.48,122.7,122.7,0,0,1-25.39,3.3q-6.41.15-13-.31c-7.18-.9-14.24-1.91-21.11-3.07q-5-.84-9.89-1.76c-3.18-.6-6.28-1.19-9.29-1.83s-5.84-1.21-8.64-1.92q-3.36-.85-6.54-1.73c-2.2-.61-4.35-1.23-6.44-1.92-5.83-1.91-11.16-3.81-16.82-7.81-12.16-8.6-20.9-22.89-24.76-37.77a105.06,105.06,0,0,1-2.23-10.89c-.37-3.32-.81-6.71-.85-10.09a86,86,0,0,1,.37-8.64c.26-2.84.65-5.67,1.15-8.52.92-4,1.94-8,3.1-12.05,1.11-3.84,2.3-7.68,3.64-11.48A317.88,317.88,0,0,1,82.21,86.73C84.05,83,85.92,79.4,88,76c6.5-10.94,12-20.58,23.37-28.19a31.54,31.54,0,0,1,7.33-3.59A36.33,36.33,0,0,1,125,42.56C136.1,40.84,147.17,42,159.74,42.42Z"/><path class="cls-1" d="M157.68,32.19c20.67.54,38.89,1.08,55.6,6.83a73.57,73.57,0,0,1,22.29,11.9,111,111,0,0,1,8.8,7.85,102.74,102.74,0,0,1,25,39.91,109.91,109.91,0,0,1,3.08,10.56,133.52,133.52,0,0,1,3,21.62c.25,3.67.29,7.39.22,11.14a128.82,128.82,0,0,1-7.32,40.72,122.31,122.31,0,0,1-6.56,15.21,131.2,131.2,0,0,1-8.57,14.25A121,121,0,0,1,243,225c-7.83,8.58-17,16.68-27.49,22a58.24,58.24,0,0,1-10.49,4.14A127.86,127.86,0,0,1,176.86,256a139.7,139.7,0,0,1-14.48.06c-7.86-.68-15.58-1.67-23.07-3q-5.46-1-10.75-2.14c-3.45-.76-6.82-1.56-10.1-2.44s-6.35-1.74-9.4-2.74q-3.68-1.22-7.15-2.5c-2.41-.9-4.76-1.84-7-2.85A78.16,78.16,0,0,1,76.68,230c-12.8-10.15-22.26-25.35-27-41.49a117.75,117.75,0,0,1-2.84-11.83c-.57-3.62-1.14-7.31-1.37-11-.18-3.16-.2-6.33-.09-9.52s.36-6.28.74-9.45c.69-4.58,1.55-9.15,2.61-13.68,1-4.32,2.16-8.63,3.51-12.86A212.41,212.41,0,0,1,68.43,82c2.22-4,4.53-7.92,7-11.63,8-11.77,15.83-22,28.55-29.88a44.65,44.65,0,0,1,8.08-3.93,53.52,53.52,0,0,1,7-2.07C131.29,31.77,143.83,31.87,157.68,32.19Z"/><path class="cls-1" d="M155.62,22c22.33.36,42.52,2.86,60.69,10.48A94.56,94.56,0,0,1,240.2,46.58a121.67,121.67,0,0,1,9.41,8.61,117.7,117.7,0,0,1,27.13,43.17c1.33,3.71,2.52,7.5,3.5,11.39a138,138,0,0,1,3.65,23.36c.3,4,.41,8,.36,12a135.16,135.16,0,0,1-8,44.68,132.2,132.2,0,0,1-7.35,16.63A136.3,136.3,0,0,1,259.24,222a128.78,128.78,0,0,1-11.42,13.93c-8.83,9.33-19.1,17.78-30.67,23.71a80.3,80.3,0,0,1-11.47,4.81,134.61,134.61,0,0,1-31,6.35,142.88,142.88,0,0,1-15.95.43,195.88,195.88,0,0,1-25-2.92q-5.9-1.08-11.6-2.51t-10.91-3.05c-3.47-1.09-6.87-2.26-10.17-3.56-2.64-1-5.22-2.14-7.75-3.27s-5.17-2.45-7.67-3.77A102.25,102.25,0,0,1,66.09,239c-13.44-11.72-23.62-27.83-29.3-45.23A130.31,130.31,0,0,1,33.34,181c-.77-3.91-1.47-7.91-1.88-11.94-.34-3.45-.53-6.91-.56-10.4s.08-6.9.33-10.39q.68-7.72,2.11-15.31c.92-4.81,2-9.57,3.38-14.25A176.68,176.68,0,0,1,54.65,77.2,147,147,0,0,1,63,64.72c9.42-12.6,19.64-23.37,33.72-31.57a65.93,65.93,0,0,1,8.84-4.26,76,76,0,0,1,7.55-2.53C126.48,22.7,140.5,21.75,155.62,22Z"/><path class="cls-1" d="M153.56,11.73c24,.18,46.14,4.65,65.78,14.12a120.44,120.44,0,0,1,25.48,16.38q5.25,4.44,10,9.38A133,133,0,0,1,284.16,98q2.23,6,3.91,12.22a146.11,146.11,0,0,1,4.31,25.1q.53,6.42.49,13a142.19,142.19,0,0,1-40.25,98.5,134,134,0,0,1-33.86,25.39,107.9,107.9,0,0,1-12.45,5.46,141.13,141.13,0,0,1-33.77,7.88,147.37,147.37,0,0,1-17.41.81,166.88,166.88,0,0,1-27-2.86c-4.22-.8-8.38-1.77-12.47-2.88s-7.89-2.3-11.71-3.67-7.38-2.78-10.94-4.37q-4.26-1.92-8.34-4-4.25-2.22-8.29-4.7A125.87,125.87,0,0,1,55.5,248a124.73,124.73,0,0,1-31.57-49,137.53,137.53,0,0,1-4.05-13.7c-1-4.21-1.83-8.51-2.41-12.86q-.75-5.6-1-11.29t-.09-11.32a152.1,152.1,0,0,1,4.87-32.57A158.49,158.49,0,0,1,40.87,72.44,148.34,148.34,0,0,1,50.46,59.1C61.32,45.67,73.9,34.34,89.35,25.84a95.85,95.85,0,0,1,9.59-4.59c2.68-1.1,5.42-2.11,8.16-3C121.67,13.63,137.16,11.62,153.56,11.73Z"/><circle class="cls-1" cx="151.5" cy="151.5" r="150"/></g></g></g></svg>