<svg xmlns="http://www.w3.org/2000/svg" viewBox="0 0 349.94 303"><defs><style>.cls-1{fill:none;stroke:#000;stroke-miterlimit:10;stroke-width:3px;}</style></defs><g id="Слой_2" data-name="Слой 2"><g id="Shapes"><g id="_29" data-name="29"><path class="cls-1" d="M150.41,226.3c-18,3.08-33.79,16.36-53.18,16.8C60.4,243.93,42,200.3,26,174,13.44,153.52-.94,128.24,1.85,103.23c3.85-34.39,35.51-42.34,65-44.82,17-1.43,34.09-.09,51-2.8,12.68-2,23.66-6.83,32.39-16.4,10.3-11.3,16.89-29.18,32.38-35.37,21.18-8.45,42.37,7.83,58.83,19.29,46.14,32.11,90.67,78,102.41,134.93,8.23,39.88,8.18,98.47-23.86,128.68a54,54,0,0,1-21.27,12.49c-27.36,8.35-53.11-7.71-72.48-25.67C203.65,252.6,186.27,220.16,150.41,226.3Z"/><path class="cls-1" d="M74.14,63.22c16-1.46,31.68.77,47.17-.86.77-.08,1.53-.17,2.29-.28,10.66-1.46,20.07-5.32,27.86-13,9.86-9.69,16.62-25.45,31.23-31.16a31.22,31.22,0,0,1,11.85-2.1c15.59.2,30.67,11.09,43,19.49,42.09,28.7,82.33,70.37,93.28,121.88,4.07,19.16,5.85,42.85,2.57,65.15-3.07,20.85-10.54,40.53-24.93,54.07A50.26,50.26,0,0,1,288.94,288c-21.6,6.73-42.24-2.92-59.05-16.05q-1.86-1.45-3.66-2.95-2-1.69-4-3.44c-21-18.74-37.2-47.63-69.85-43.06a61.81,61.81,0,0,0-8.09,1.69c-2.63.73-5.23,1.61-7.82,2.55-10.77,3.89-21.42,8.78-33.5,8.63A41.35,41.35,0,0,1,86,231.49C63.22,220.92,49.56,190.91,37.44,171c-8.48-13.9-17.76-30.1-21.18-46.89a61.09,61.09,0,0,1-1.07-18.58C18.5,73.91,46.79,65.67,74.14,63.22Z"/><path class="cls-1" d="M81.42,68c15-1.49,29.27,1.63,43.35,1.09.7,0,1.39-.07,2.08-.12,9.71-.68,18.42-3.63,25.83-10,9.43-8.08,16.36-21.71,30.09-27a30.58,30.58,0,0,1,10.95-1.86c14.4.16,28.4,9.72,39.86,17.35,38,25.31,74,62.73,84.14,108.83,3.9,17.72,5.42,39.51,2.29,60-2.93,19.15-9.86,37.28-23.15,49.76a46.56,46.56,0,0,1-17.7,10.53c-19.56,6.25-38.38-2.05-53.84-13.57-1.14-.86-2.26-1.72-3.37-2.6s-2.46-2-3.65-3c-19.35-16.54-34.46-41.9-63.87-38.87a66.48,66.48,0,0,0-7.5,1.15c-2.44.52-4.85,1.17-7.24,1.87-10,2.87-19.81,6.51-30.89,5.91a39.42,39.42,0,0,1-15.43-3.92C72.77,213.5,60.07,186.39,48.89,168c-7.78-12.78-16.19-27.64-19.32-43.08a58.15,58.15,0,0,1-1.05-17C31.31,79,56.23,70.45,81.42,68Z"/><path class="cls-1" d="M88.7,72.84c14-1.52,26.86,2.49,39.54,3,.63,0,1.25,0,1.87,0,8.75.08,16.77-1.94,23.8-7,9-6.47,16.08-18,28.94-22.75a29.49,29.49,0,0,1,10-1.63c13.23.12,26.13,8.35,36.76,15.22,33.94,21.94,65.69,55.08,75,95.78a149,149,0,0,1,2,54.86c-2.77,17.46-9.17,34-21.35,45.45a42.93,42.93,0,0,1-15.92,9.55c-17.51,5.76-34.52-1.17-48.63-11.1-1-.73-2.07-1.48-3.08-2.25s-2.25-1.73-3.34-2.61c-17.72-14.33-31.75-36.21-57.9-34.68-2.34.14-4.64.28-6.9.6s-4.46.75-6.67,1.21c-9.14,1.87-18.17,4.25-28.28,3.19a38.08,38.08,0,0,1-13.8-4C82.32,206.08,70.57,181.87,60.35,165c-7.09-11.67-14.62-25.17-17.47-39.28a55.68,55.68,0,0,1-1-15.51C44.11,84,65.67,75.23,88.7,72.84Z"/><path class="cls-1" d="M96,77.65c13.06-1.51,24.46,3.38,35.73,5l1.66.21c7.8.86,15.14-.25,21.78-4,8.59-4.87,15.81-14.24,27.79-18.54a28.58,28.58,0,0,1,9.14-1.4c12.05.08,23.86,7,33.65,13.08,29.83,18.59,57.4,47.43,65.87,82.73a129.09,129.09,0,0,1,1.71,49.72c-2.63,15.77-8.48,30.78-19.57,41.14a39.19,39.19,0,0,1-14.13,8.57c-15.46,5.28-30.67-.3-43.42-8.63q-1.41-.91-2.79-1.89c-1-.72-2-1.46-3-2.2-16.1-12.13-29.07-30.6-51.92-30.48-2.15,0-4.24-.07-6.31.05s-4.08.32-6.1.53c-8.33.87-16.53,2-25.67.47a37.11,37.11,0,0,1-12.16-4.1c-16.33-9.2-27.12-30.52-36.39-45.85-6.39-10.56-13.05-22.71-15.61-35.48a52.43,52.43,0,0,1-1-14C56.87,89.1,75.11,80.06,96,77.65Z"/><path class="cls-1" d="M103.25,82.46c12.08-1.54,22,4.25,31.92,6.92.48.13,1,.25,1.45.36a32.18,32.18,0,0,0,19.74-1c8.2-3.26,15.55-10.51,26.65-14.34a28.72,28.72,0,0,1,8.24-1.16c10.86,0,21.57,5.61,30.54,10.94,25.7,15.29,49.14,39.78,56.73,69.69A109.38,109.38,0,0,1,280,198.41c-2.48,14.07-7.8,27.52-17.78,36.83a36,36,0,0,1-12.35,7.6c-13.42,4.79-26.81.57-38.22-6.17q-1.26-.73-2.49-1.53c-.92-.58-1.82-1.19-2.72-1.8-14.48-9.91-26.43-25.07-45.94-26.28-2-.12-3.85-.4-5.73-.49s-3.69-.11-5.51-.15c-7.53-.14-14.89-.22-23.07-2.24a37,37,0,0,1-10.53-4.2c-14.21-8.7-24-27.16-32.35-41-5.69-9.45-11.47-20.25-13.75-31.67a49.85,49.85,0,0,1-1-12.45C69.66,94.17,84.54,84.84,103.25,82.46Z"/><path class="cls-1" d="M110.53,87.27c11.09-1.57,19.63,5.11,28.1,8.86.42.19.84.36,1.25.53a30.07,30.07,0,0,0,17.71,2c7.83-1.63,15.28-6.78,25.5-10.14a28.88,28.88,0,0,1,7.33-.92c9.69,0,19.29,4.25,27.43,8.8,21.54,12,40.94,32.11,47.6,56.63,3.25,12,3.66,26.15,1.15,39.43-2.34,12.38-7.11,24.27-16,32.52A32.46,32.46,0,0,1,240,231.56c-11.37,4.3-23,1.44-33-3.69-.74-.38-1.47-.77-2.2-1.18s-1.61-.91-2.4-1.39c-12.87-7.71-23.83-19.69-40-22.09-1.78-.26-3.46-.73-5.14-1s-3.31-.55-4.94-.82a117.83,117.83,0,0,1-20.45-5A37.73,37.73,0,0,1,123,192.1C111,183.87,102.09,168.3,94.72,156c-5-8.34-9.9-17.78-11.9-27.86a49.1,49.1,0,0,1-1-10.92C82.47,99.23,94,89.61,110.53,87.27Z"/><path class="cls-1" d="M117.81,92.08c10.11-1.63,17.22,6,24.29,10.81l1,.68a31.37,31.37,0,0,0,15.69,5c7.45.39,15-3,24.35-5.93a30.71,30.71,0,0,1,6.43-.69c8.51-.05,17,2.92,24.32,6.66,17.33,8.84,32.78,24.43,38.47,43.59,3.12,10.51,3.22,22.8.86,34.28-2.2,10.68-6.43,21-14.21,28.21a29.43,29.43,0,0,1-8.78,5.64c-9.33,3.82-19.1,2.32-27.8-1.22-.64-.26-1.28-.53-1.91-.82s-1.4-.64-2.09-1c-11.24-5.5-21.21-14.48-34-17.9-1.58-.42-3.06-1.07-4.54-1.57s-2.94-1-4.37-1.5a164.53,164.53,0,0,1-17.84-7.68,42.6,42.6,0,0,1-7.27-4.39c-10-7.77-17.85-20.44-24.27-31.24-4.29-7.22-8.34-15.31-10-24a47.84,47.84,0,0,1-.93-9.39C95.28,104.3,103.41,94.35,117.81,92.08Z"/><path class="cls-1" d="M125.09,96.89c9.13-1.66,14.83,6.81,20.47,12.75l.83.85A29.2,29.2,0,0,0,160,118.42c7.08,1.76,14.75.69,23.21-1.73a39.77,39.77,0,0,1,5.53-.45A51.44,51.44,0,0,1,210,120.77c13,5.75,24.69,16.73,29.33,30.53,3,9,2.78,19.47.58,29.14-2.05,9-5.75,17.77-12.42,23.9a27.49,27.49,0,0,1-7,4.66c-7.28,3.34-15.24,3.19-22.59,1.25-.54-.14-1.08-.29-1.62-.46s-1.19-.37-1.78-.57c-9.62-3.3-18.5-9.51-28-13.71-1.39-.61-2.66-1.4-3.95-2.11s-2.56-1.42-3.79-2.18c-5.14-3.17-10-6.61-15.24-10.4a57.68,57.68,0,0,1-5.64-4.48C130,169,123.1,159.26,117.63,150c-3.6-6.11-6.78-12.84-8.19-20.24a52.78,52.78,0,0,1-.91-7.86C108.1,109.36,112.84,99.13,125.09,96.89Z"/><path class="cls-1" d="M193.31,201.44c-.44,0-.88-.05-1.32-.1-8.54-.81-16.61-4.57-23.51-9.68q-1.72-1.28-3.36-2.65t-3.22-2.86c-4.27-4.26-8.55-8.6-12.62-13.11-1.36-1.5-2.7-3-4-4.57C136,157.14,125.69,146,122.76,130.53c-2-11-2.73-26.13,9.61-28.83,8.54-1.77,12.82,8.61,17.28,15.7a30.3,30.3,0,0,0,33.68,13.4c1.55-.11,3.09-.19,4.62-.22A54.23,54.23,0,0,1,206.06,133c8.73,2.86,16.73,9,20.19,17.49,3.07,7.54,2.35,16.12.29,24-1.9,7.29-5,14.51-10.63,19.58C209.88,199.51,201.46,201.91,193.31,201.44Z"/></g></g></g></svg>