<svg xmlns="http://www.w3.org/2000/svg" viewBox="0 0 335.85 303"><defs><style>.cls-1{fill:none;stroke:#000;stroke-miterlimit:10;stroke-width:3px;}</style></defs><g id="Слой_2" data-name="Слой 2"><g id="Shapes"><g id="_30" data-name="30"><ellipse class="cls-1" cx="167.93" cy="151.5" rx="172.05" ry="34.41" transform="translate(-47.24 221.18) rotate(-60)"/><ellipse class="cls-1" cx="167.93" cy="151.5" rx="166.99" ry="33.4" transform="translate(-52.17 203.53) rotate(-55.36)"/><ellipse class="cls-1" cx="167.93" cy="151.5" rx="163.1" ry="32.62" transform="translate(-55.81 184.55) rotate(-50.46)"/><ellipse class="cls-1" cx="167.93" cy="151.5" rx="160.46" ry="32.09" transform="translate(-57.86 164.54) rotate(-45.36)"/><ellipse class="cls-1" cx="167.93" cy="151.5" rx="159.12" ry="31.82" transform="translate(-58.11 143.92) rotate(-40.14)"/><ellipse class="cls-1" cx="167.93" cy="151.5" rx="159.12" ry="31.82" transform="translate(-56.46 123.19) rotate(-34.86)"/><ellipse class="cls-1" cx="167.93" cy="151.5" rx="160.46" ry="32.09" transform="translate(-52.95 102.87) rotate(-29.64)"/><ellipse class="cls-1" cx="167.93" cy="151.5" rx="163.1" ry="32.62" transform="translate(-47.75 83.43) rotate(-24.54)"/><ellipse class="cls-1" cx="167.93" cy="151.5" rx="166.99" ry="33.4" transform="translate(-41.16 65.27) rotate(-19.64)"/><ellipse class="cls-1" cx="167.93" cy="151.5" rx="172.05" ry="34.41" transform="translate(-33.49 48.62) rotate(-15)"/></g></g></g></svg>