<svg xmlns="http://www.w3.org/2000/svg" viewBox="0 0 293.9 303"><defs><style>.cls-1{fill:none;stroke:#000;stroke-linecap:round;stroke-width:3px;}</style></defs><g id="Слой_2" data-name="Слой 2"><g id="Shapes"><g id="_32" data-name="32"><path id="_144" data-name="144" class="cls-1" d="M233.94,1.79l4.77,15.29"/><path id="_143" data-name="143" class="cls-1" d="M78.53,4.46,91,14.46"/><path id="_142" data-name="142" class="cls-1" d="M104.72,29.3l10.65,12"/><path id="_141" data-name="141" class="cls-1" d="M78.84,29.92,90.73,40.65"/><path id="_140" data-name="140" class="cls-1" d="M1.91,83.27l14.23,7.36"/><path id="_139" data-name="139" class="cls-1" d="M131.83,105.53l7,14.42"/><path id="_138" data-name="138" class="cls-1" d="M211.77,182.22l-1.32,16"/><path id="_137" data-name="137" class="cls-1" d="M2.16,186.12l13.73,8.25"/><path id="_136" data-name="136" class="cls-1" d="M212.07,233.91l-1.92,15.9"/><path id="_135" data-name="135" class="cls-1" d="M106.13,234.89l7.86,14"/><path id="_134" data-name="134" class="cls-1" d="M158.67,259.91l3.83,15.55"/><path id="_133" data-name="133" class="cls-1" d="M27.75,263.08l13.06,9.27"/><path id="_132" data-name="132" class="cls-1" d="M238.41,285.77l-4.08,15.48"/><path id="_131" data-name="131" class="cls-1" d="M285.77,1.5l2.15,15.86"/><path id="_130" data-name="130" class="cls-1" d="M259.87,1.61l3.44,15.64"/><path id="_129" data-name="129" class="cls-1" d="M208,2l6.14,14.79"/><path id="_128" data-name="128" class="cls-1" d="M182.06,2.37l7.51,14.14"/><path id="_127" data-name="127" class="cls-1" d="M156.12,2.77,165,16.11"/><path id="_126" data-name="126" class="cls-1" d="M130.22,3.26l10.16,12.38"/><path id="_125" data-name="125" class="cls-1" d="M104.35,3.82l11.38,11.27"/><path id="_124" data-name="124" class="cls-1" d="M52.78,5.16l13.5,8.62"/><path id="_123" data-name="123" class="cls-1" d="M27.1,5.92,41.45,13"/><path id="_122" data-name="122" class="cls-1" d="M1.5,6.72l15,5.52"/><path id="_121" data-name="121" class="cls-1" d="M286.59,27.25l.53,16"/><path id="_120" data-name="120" class="cls-1" d="M260.64,27.31l1.91,15.89"/><path id="_119" data-name="119" class="cls-1" d="M208.65,27.63l4.86,15.26"/><path id="_118" data-name="118" class="cls-1" d="M182.64,27.91,189,42.61"/><path id="_117" data-name="117" class="cls-1" d="M156.63,28.29l7.86,14"/><path id="_116" data-name="116" class="cls-1" d="M130.66,28.75l9.29,13"/><path id="_115" data-name="115" class="cls-1" d="M53,30.61,66,40"/><path id="_114" data-name="114" class="cls-1" d="M1.65,32.19l14.74,6.23"/><path id="_113" data-name="113" class="cls-1" d="M287.4,53.09l-1.08,16"/><path id="_112" data-name="112" class="cls-1" d="M261.4,53.07l.41,16"/><path id="_111" data-name="111" class="cls-1" d="M235.35,53.14l2,15.89"/><path id="_110" data-name="110" class="cls-1" d="M209.28,53.28l3.61,15.61"/><path id="_109" data-name="109" class="cls-1" d="M183.19,53.52l5.27,15.13"/><path id="_108" data-name="108" class="cls-1" d="M157.12,53.86,164,68.32"/><path id="_107" data-name="107" class="cls-1" d="M131.08,54.29l8.45,13.61"/><path id="_106" data-name="106" class="cls-1" d="M105.08,54.82,115,67.38"/><path id="_105" data-name="105" class="cls-1" d="M79.14,55.43l11.3,11.34"/><path id="_104" data-name="104" class="cls-1" d="M53.27,56.13l12.53,10"/><path id="_103" data-name="103" class="cls-1" d="M27.48,56.89l13.59,8.46"/><path id="_102" data-name="102" class="cls-1" d="M288.2,79l-2.66,15.8"/><path id="_101" data-name="101" class="cls-1" d="M262.14,78.91l-1.06,16"/><path id="_100" data-name="100" class="cls-1" d="M236,78.9l.64,16"/><path id="_99" data-name="99" class="cls-1" d="M209.88,79l2.42,15.83"/><path id="_98" data-name="98" class="cls-1" d="M183.73,79.18l4.2,15.46"/><path id="_97" data-name="97" class="cls-1" d="M131.47,79.89l7.68,14"/><path id="_96" data-name="96" class="cls-1" d="M105.41,80.4l9.28,13"/><path id="_95" data-name="95" class="cls-1" d="M79.41,81,90.17,92.86"/><path id="_94" data-name="94" class="cls-1" d="M53.48,81.69l12.1,10.49"/><path id="_93" data-name="93" class="cls-1" d="M27.65,82.45l13.25,9"/><path id="_92" data-name="92" class="cls-1" d="M289,105l-4.19,15.47"/><path id="_91" data-name="91" class="cls-1" d="M262.85,104.82l-2.47,15.83"/><path id="_90" data-name="90" class="cls-1" d="M236.67,104.73l-.63,16"/><path id="_89" data-name="89" class="cls-1" d="M210.45,104.75l1.29,16"/><path id="_88" data-name="88" class="cls-1" d="M184.23,104.89l3.21,15.69"/><path id="_87" data-name="87" class="cls-1" d="M158,105.15l5.12,15.17"/><path id="_86" data-name="86" class="cls-1" d="M105.71,106l8.69,13.45"/><path id="_85" data-name="85" class="cls-1" d="M79.65,106.61l10.29,12.27"/><path id="_84" data-name="84" class="cls-1" d="M27.8,108.07l13,9.39"/><path id="_83" data-name="83" class="cls-1" d="M2,108.89l14,7.76"/><path id="_82" data-name="82" class="cls-1" d="M289.69,131.06l-5.62,15"/><path id="_81" data-name="81" class="cls-1" d="M263.51,130.77l-3.78,15.57"/><path id="_80" data-name="80" class="cls-1" d="M237.26,130.6l-1.8,15.92"/><path id="_79" data-name="79" class="cls-1" d="M211,130.55l.26,16"/><path id="_78" data-name="78" class="cls-1" d="M184.67,130.63,187,146.48"/><path id="_77" data-name="77" class="cls-1" d="M158.38,130.86l4.39,15.4"/><path id="_76" data-name="76" class="cls-1" d="M132.13,131.21l6.37,14.7"/><path id="_75" data-name="75" class="cls-1" d="M106,131.69l8.21,13.75"/><path id="_74" data-name="74" class="cls-1" d="M79.84,132.28l9.91,12.58"/><path id="_73" data-name="73" class="cls-1" d="M53.83,133l11.42,11.22"/><path id="_72" data-name="72" class="cls-1" d="M27.91,133.74l12.74,9.7"/><path id="_71" data-name="71" class="cls-1" d="M2.1,134.57,16,142.62"/><path id="_70" data-name="70" class="cls-1" d="M290.37,157.18l-7,14.42"/><path id="_69" data-name="69" class="cls-1" d="M264.12,156.77l-5,15.23"/><path id="_68" data-name="68" class="cls-1" d="M237.79,156.5l-2.85,15.77"/><path id="_67" data-name="67" class="cls-1" d="M211.42,156.38l-.62,16"/><path id="_66" data-name="66" class="cls-1" d="M185,156.41l1.62,15.94"/><path id="_65" data-name="65" class="cls-1" d="M158.68,156.6l3.8,15.56"/><path id="_64" data-name="64" class="cls-1" d="M132.36,156.94l5.91,14.89"/><path id="_63" data-name="63" class="cls-1" d="M80,158l9.64,12.79"/><path id="_62" data-name="62" class="cls-1" d="M53.92,158.69l11.23,11.42"/><path id="_61" data-name="61" class="cls-1" d="M28,159.47l12.6,9.88"/><path id="_60" data-name="60" class="cls-1" d="M2.15,160.31l13.75,8.21"/><path id="_59" data-name="59" class="cls-1" d="M291,183.33l-8.17,13.77"/><path id="_58" data-name="58" class="cls-1" d="M264.65,182.79l-6,14.84"/><path id="_57" data-name="57" class="cls-1" d="M238.23,182.42,234.51,198"/><path id="_56" data-name="56" class="cls-1" d="M185.3,182.22l1.09,16"/><path id="_55" data-name="55" class="cls-1" d="M158.87,182.39,162.29,198"/><path id="_54" data-name="54" class="cls-1" d="M132.51,182.71l5.62,15"/><path id="_53" data-name="53" class="cls-1" d="M106.22,183.18l7.67,14.07"/><path id="_52" data-name="52" class="cls-1" d="M80,183.78l9.52,12.88"/><path id="_51" data-name="51" class="cls-1" d="M54,184.48,65.11,196"/><path id="_50" data-name="50" class="cls-1" d="M28,185.26l12.55,10"/><path id="_49" data-name="49" class="cls-1" d="M291.52,209.51l-9.23,13.08"/><path id="_48" data-name="48" class="cls-1" d="M265.09,208.81l-6.9,14.45"/><path id="_47" data-name="47" class="cls-1" d="M238.56,208.33l-4.37,15.41"/><path id="_46" data-name="46" class="cls-1" d="M212,208.08,210.22,224"/><path id="_45" data-name="45" class="cls-1" d="M185.45,208l.8,16"/><path id="_44" data-name="44" class="cls-1" d="M132.54,208.53l5.56,15"/><path id="_43" data-name="43" class="cls-1" d="M106.23,209l7.66,14.06"/><path id="_42" data-name="42" class="cls-1" d="M80,209.61l9.54,12.86"/><path id="_41" data-name="41" class="cls-1" d="M53.94,210.33l11.2,11.45"/><path id="_40" data-name="40" class="cls-1" d="M28,211.12,40.58,221"/><path id="_39" data-name="39" class="cls-1" d="M2.14,212l13.78,8.16"/><path id="_38" data-name="38" class="cls-1" d="M292,235.66l-10.11,12.42"/><path id="_37" data-name="37" class="cls-1" d="M265.41,234.8l-7.54,14.13"/><path id="_36" data-name="36" class="cls-1" d="M238.75,234.21,234,249.51"/><path id="_35" data-name="35" class="cls-1" d="M185.44,233.86l.81,16"/><path id="_34" data-name="34" class="cls-1" d="M158.89,234l3.38,15.65"/><path id="_33" data-name="33" class="cls-1" d="M79.92,235.52l9.75,12.71"/><path id="_32-2" data-name="32" class="cls-1" d="M53.85,236.25l11.39,11.26"/><path id="_31" data-name="31" class="cls-1" d="M27.89,237.06l12.78,9.66"/><path id="_30" data-name="30" class="cls-1" d="M2.06,237.94,16,245.85"/><path id="_29" data-name="29" class="cls-1" d="M292.27,261.76l-10.73,11.88"/><path id="_28" data-name="28" class="cls-1" d="M265.54,260.7l-7.8,14"/><path id="_27" data-name="27" class="cls-1" d="M238.73,260,234,275.34"/><path id="_26" data-name="26" class="cls-1" d="M185.24,259.69l1.21,16"/><path id="_25" data-name="25" class="cls-1" d="M105.9,260.84l8.31,13.7"/><path id="_24" data-name="24" class="cls-1" d="M53.67,262.25,65.4,273.16"/><path id="_23" data-name="23" class="cls-1" d="M2,264l14.14,7.53"/><path id="_22" data-name="22" class="cls-1" d="M292.4,287.7l-11,11.65"/><path id="_21" data-name="21" class="cls-1" d="M265.42,286.45l-7.56,14.13"/><path id="_20" data-name="20" class="cls-1" d="M211.53,285.51l-.85,16"/><path id="_19" data-name="19" class="cls-1" d="M184.8,285.57l2.08,15.88"/><path id="_18" data-name="18" class="cls-1" d="M158.24,285.85l4.67,15.32"/><path id="_17" data-name="17" class="cls-1" d="M131.83,286.3l7,14.42"/><path id="_16" data-name="16" class="cls-1" d="M105.57,286.89l9,13.26"/><path id="_15" data-name="15" class="cls-1" d="M79.43,287.57l10.72,11.91"/><path id="_14" data-name="14" class="cls-1" d="M53.43,288.35l12.21,10.37"/><path id="_13" data-name="13" class="cls-1" d="M27.56,289.19,41,297.9"/><path id="_12" data-name="12" class="cls-1" d="M1.81,290.08,16.24,297"/><path id="_11" data-name="11" class="cls-1" d="M234.65,27.43,238,43.09"/><path id="_10" data-name="10" class="cls-1" d="M27.3,31.37l14,7.85"/><path id="_9" data-name="9" class="cls-1" d="M1.78,57.7l14.48,6.85"/><path id="_8" data-name="8" class="cls-1" d="M157.59,79.48l6,14.86"/><path id="_7" data-name="7" class="cls-1" d="M53.68,107.3,65.4,118.21"/><path id="_6" data-name="6" class="cls-1" d="M106.13,157.41l7.86,14"/><path id="_5" data-name="5" class="cls-1" d="M159,208.19l3.26,15.68"/><path id="_4" data-name="4" class="cls-1" d="M132.45,234.38l5.74,15"/><path id="_3" data-name="3" class="cls-1" d="M211.93,259.72l-1.65,15.93"/><path id="_2" data-name="2" class="cls-1" d="M132.22,260.3l6.2,14.77"/><path id="_1" data-name="1" class="cls-1" d="M79.73,261.5l10.14,12.4"/></g></g></g></svg>