<svg xmlns="http://www.w3.org/2000/svg" viewBox="0 0 296.28 300"><g id="Слой_2" data-name="Слой 2"><g id="Shapes"><g id="_33" data-name="33"><circle cx="285.97" cy="299.53" r="0.47"/><path d="M286,277.81a.48.48,0,0,0-.47.48.47.47,0,1,0,.94,0A.48.48,0,0,0,286,277.81Z"/><path d="M286,255.75a1.3,1.3,0,1,0,1.29,1.29A1.3,1.3,0,0,0,286,255.75Z"/><circle cx="285.97" cy="235.8" r="2.12"/><circle cx="285.97" cy="214.56" r="2.95"/><circle cx="285.97" cy="193.31" r="3.77"/><circle cx="285.97" cy="172.07" r="4.59"/><circle cx="285.97" cy="150.83" r="5.36"/><circle cx="285.97" cy="129.58" r="6.24"/><circle cx="285.97" cy="108.34" r="7.01"/><circle cx="285.97" cy="87.1" r="7.89"/><circle cx="285.97" cy="62.59" r="8.66"/><circle cx="285.97" cy="38.08" r="9.48"/><circle cx="285.97" cy="10.31" r="10.31"/><circle cx="255.34" cy="299.53" r="0.47"/><path d="M255.34,277.81a.48.48,0,0,0-.47.48.47.47,0,0,0,.94,0A.48.48,0,0,0,255.34,277.81Z"/><path d="M255.34,255.75a1.3,1.3,0,1,0,1.3,1.29A1.3,1.3,0,0,0,255.34,255.75Z"/><circle cx="255.34" cy="235.8" r="2.12"/><circle cx="255.34" cy="214.56" r="2.95"/><circle cx="255.34" cy="193.31" r="3.77"/><circle cx="255.34" cy="172.07" r="4.59"/><circle cx="255.34" cy="150.83" r="5.36"/><circle cx="255.34" cy="129.58" r="6.24"/><circle cx="255.34" cy="108.34" r="7.01"/><circle cx="255.34" cy="87.1" r="7.89"/><circle cx="255.34" cy="62.59" r="8.66"/><circle cx="255.34" cy="38.08" r="9.48"/><circle cx="255.34" cy="10.31" r="10.31"/><circle cx="224.71" cy="299.53" r="0.47"/><path d="M224.71,277.81a.48.48,0,0,0-.47.48.47.47,0,0,0,.94,0A.48.48,0,0,0,224.71,277.81Z"/><path d="M224.92,255.76a1.3,1.3,0,1,0-.41,2.56,1.29,1.29,0,0,0,1.48-1.48A1.31,1.31,0,0,0,224.92,255.76Z"/><path d="M225.13,233.72a2.12,2.12,0,1,0,1.66,1.66A2.12,2.12,0,0,0,225.13,233.72Z"/><path d="M225.21,211.65a2.95,2.95,0,1,0,2.41,2.41A2.95,2.95,0,0,0,225.21,211.65Z"/><path d="M225.2,189.57a3.77,3.77,0,1,0,3.25,3.25A3.78,3.78,0,0,0,225.2,189.57Z"/><path d="M225.31,167.51a4.6,4.6,0,1,0,4,4A4.61,4.61,0,0,0,225.31,167.51Z"/><path d="M225.26,145.49a5.36,5.36,0,1,0,4.78,4.79A5.36,5.36,0,0,0,225.26,145.49Z"/><path d="M225.35,123.37a6.25,6.25,0,1,0,5.57,5.58A6.25,6.25,0,0,0,225.35,123.37Z"/><path d="M225.28,101.35a7,7,0,1,0,6.42,6.42A7,7,0,0,0,225.28,101.35Z"/><path d="M225.35,79.23a7.89,7.89,0,1,0,7.23,7.23A7.89,7.89,0,0,0,225.35,79.23Z"/><path d="M225.41,54a8.66,8.66,0,1,0,7.93,7.93A8.66,8.66,0,0,0,225.41,54Z"/><path d="M225.33,28.62a9.48,9.48,0,1,0,8.85,8.85A9.47,9.47,0,0,0,225.33,28.62Z"/><path d="M225.38,0A10.31,10.31,0,1,0,235,9.64,10.32,10.32,0,0,0,225.38,0Z"/><circle cx="194.08" cy="299.53" r="0.47"/><path d="M194.08,277.81a.48.48,0,0,0-.47.48.47.47,0,0,0,.94,0A.48.48,0,0,0,194.08,277.81Z"/><path d="M194.08,255.75a1.3,1.3,0,1,0,1.3,1.29A1.29,1.29,0,0,0,194.08,255.75Z"/><circle cx="194.08" cy="235.8" r="2.12"/><circle cx="194.08" cy="214.56" r="2.95"/><circle cx="194.08" cy="193.31" r="3.77"/><circle cx="194.08" cy="172.07" r="4.59"/><circle cx="194.08" cy="150.83" r="5.36"/><circle cx="194.08" cy="129.58" r="6.24"/><circle cx="194.08" cy="108.34" r="7.01"/><circle cx="194.08" cy="87.1" r="7.89"/><circle cx="194.08" cy="62.59" r="8.66"/><circle cx="194.08" cy="38.08" r="9.48"/><circle cx="194.08" cy="10.31" r="10.31"/><circle cx="163.45" cy="299.53" r="0.47"/><path d="M163.45,277.81a.48.48,0,0,0-.47.48.47.47,0,0,0,.94,0A.48.48,0,0,0,163.45,277.81Z"/><path d="M163.45,255.75a1.3,1.3,0,1,0,1.3,1.29A1.29,1.29,0,0,0,163.45,255.75Z"/><circle cx="163.45" cy="235.8" r="2.12"/><circle cx="163.45" cy="214.56" r="2.95"/><circle cx="163.45" cy="193.31" r="3.77"/><circle cx="163.45" cy="172.07" r="4.59"/><circle cx="163.45" cy="150.83" r="5.36"/><circle cx="163.45" cy="129.58" r="6.24"/><circle cx="163.45" cy="108.34" r="7.01"/><circle cx="163.45" cy="87.1" r="7.89"/><circle cx="163.45" cy="62.59" r="8.66"/><circle cx="163.45" cy="38.08" r="9.48"/><circle cx="163.45" cy="10.31" r="10.31"/><circle cx="132.82" cy="299.53" r="0.47"/><path d="M132.82,277.81a.48.48,0,0,0-.47.48.47.47,0,0,0,.47.47.48.48,0,0,0,.48-.47A.49.49,0,0,0,132.82,277.81Z"/><path d="M133,255.76a1.3,1.3,0,1,0-.41,2.56,1.29,1.29,0,0,0,1.48-1.48A1.31,1.31,0,0,0,133,255.76Z"/><path d="M133.24,233.72a2.12,2.12,0,1,0,1.67,1.66A2.12,2.12,0,0,0,133.24,233.72Z"/><path d="M133.32,211.65a2.95,2.95,0,1,0,2.41,2.41A2.95,2.95,0,0,0,133.32,211.65Z"/><path d="M133.31,189.57a3.77,3.77,0,1,0,3.25,3.25A3.77,3.77,0,0,0,133.31,189.57Z"/><path d="M133.42,167.51a4.6,4.6,0,1,0,4,4A4.6,4.6,0,0,0,133.42,167.51Z"/><path d="M133.37,145.49a5.36,5.36,0,1,0,4.79,4.79A5.37,5.37,0,0,0,133.37,145.49Z"/><path d="M133.46,123.37A6.25,6.25,0,1,0,139,129,6.25,6.25,0,0,0,133.46,123.37Z"/><path d="M133.39,101.35a7,7,0,1,0,6.42,6.42A7,7,0,0,0,133.39,101.35Z"/><path d="M133.47,79.23a7.89,7.89,0,1,0,7.22,7.23A7.89,7.89,0,0,0,133.47,79.23Z"/><path d="M133.53,54a8.66,8.66,0,1,0,7.93,7.93A8.66,8.66,0,0,0,133.53,54Z"/><path d="M133.44,28.62a9.48,9.48,0,1,0,8.85,8.85A9.48,9.48,0,0,0,133.44,28.62Z"/><path d="M133.49,0a10.31,10.31,0,1,0,9.62,9.62A10.31,10.31,0,0,0,133.49,0Z"/><circle cx="102.2" cy="299.53" r="0.47"/><path d="M102.2,277.81a.49.49,0,0,0-.48.48.48.48,0,0,0,.48.47.47.47,0,0,0,.47-.47A.48.48,0,0,0,102.2,277.81Z"/><path d="M102.2,255.75a1.3,1.3,0,1,0,1.29,1.29A1.3,1.3,0,0,0,102.2,255.75Z"/><circle cx="102.2" cy="235.8" r="2.12"/><circle cx="102.2" cy="214.56" r="2.95"/><circle cx="102.2" cy="193.31" r="3.77"/><circle cx="102.2" cy="172.07" r="4.59"/><circle cx="102.2" cy="150.83" r="5.36"/><circle cx="102.2" cy="129.58" r="6.24"/><circle cx="102.2" cy="108.34" r="7.01"/><circle cx="102.2" cy="87.1" r="7.89"/><circle cx="102.2" cy="62.59" r="8.66"/><circle cx="102.2" cy="38.08" r="9.48"/><circle cx="102.2" cy="10.31" r="10.31"/><circle cx="71.57" cy="299.53" r="0.47"/><path d="M71.57,277.81a.48.48,0,0,0-.47.48.47.47,0,0,0,.94,0A.48.48,0,0,0,71.57,277.81Z"/><path d="M71.57,255.75A1.3,1.3,0,1,0,72.86,257,1.3,1.3,0,0,0,71.57,255.75Z"/><circle cx="71.57" cy="235.8" r="2.12"/><circle cx="71.57" cy="214.56" r="2.95"/><circle cx="71.57" cy="193.31" r="3.77"/><circle cx="71.57" cy="172.07" r="4.59"/><circle cx="71.57" cy="150.83" r="5.36"/><circle cx="71.57" cy="129.58" r="6.24"/><circle cx="71.57" cy="108.34" r="7.01"/><circle cx="71.57" cy="87.1" r="7.89"/><circle cx="71.57" cy="62.59" r="8.66"/><circle cx="71.57" cy="38.08" r="9.48"/><circle cx="71.57" cy="10.31" r="10.31"/><circle cx="40.94" cy="299.53" r="0.47"/><path d="M40.94,277.81a.48.48,0,0,0-.47.48.47.47,0,0,0,.94,0A.48.48,0,0,0,40.94,277.81Z"/><path d="M41.14,255.76a1.3,1.3,0,1,0,1.08,1.08A1.32,1.32,0,0,0,41.14,255.76Z"/><path d="M41.35,233.72A2.12,2.12,0,1,0,43,235.38,2.11,2.11,0,0,0,41.35,233.72Z"/><path d="M41.44,211.65a2.95,2.95,0,1,0,2.4,2.41A3,3,0,0,0,41.44,211.65Z"/><path d="M41.43,189.57a3.77,3.77,0,1,0,3.25,3.25A3.78,3.78,0,0,0,41.43,189.57Z"/><path d="M41.53,167.51a4.6,4.6,0,1,0,4,4A4.6,4.6,0,0,0,41.53,167.51Z"/><path d="M41.48,145.49a5.36,5.36,0,1,0,4.79,4.79A5.37,5.37,0,0,0,41.48,145.49Z"/><path d="M41.57,123.37A6.25,6.25,0,1,0,47.15,129,6.24,6.24,0,0,0,41.57,123.37Z"/><path d="M41.51,101.35a7,7,0,1,0,6.42,6.42A7,7,0,0,0,41.51,101.35Z"/><path d="M41.58,79.23a7.89,7.89,0,1,0,7.23,7.23A7.89,7.89,0,0,0,41.58,79.23Z"/><path d="M41.64,54a8.66,8.66,0,1,0,7.93,7.93A8.66,8.66,0,0,0,41.64,54Z"/><path d="M41.55,28.62a9.48,9.48,0,1,0,8.85,8.85A9.48,9.48,0,0,0,41.55,28.62Z"/><path d="M41.61,0a10.31,10.31,0,1,0,9.62,9.62A10.32,10.32,0,0,0,41.61,0Z"/><circle cx="10.31" cy="299.53" r="0.47"/><path d="M10.31,277.81a.48.48,0,0,0-.47.48.47.47,0,0,0,.94,0A.48.48,0,0,0,10.31,277.81Z"/><path d="M10.31,255.75A1.3,1.3,0,1,0,11.6,257,1.3,1.3,0,0,0,10.31,255.75Z"/><circle cx="10.31" cy="235.8" r="2.12"/><circle cx="10.31" cy="214.56" r="2.95"/><circle cx="10.31" cy="193.31" r="3.77"/><circle cx="10.31" cy="172.07" r="4.59"/><circle cx="10.31" cy="150.83" r="5.36"/><circle cx="10.31" cy="129.58" r="6.24"/><circle cx="10.31" cy="108.34" r="7.01"/><circle cx="10.31" cy="87.1" r="7.89"/><circle cx="10.31" cy="62.59" r="8.66"/><circle cx="10.31" cy="38.08" r="9.48"/><circle cx="10.31" cy="10.31" r="10.31"/></g></g></g></svg>