<svg xmlns="http://www.w3.org/2000/svg" viewBox="0 0 301.66 300"><g id="Слой_2" data-name="Слой 2"><g id="Shapes"><g id="_34" data-name="34"><polygon points="229.78 299.73 235.44 294.07 222.71 281.34 235.44 268.61 229.78 262.95 217.05 275.68 204.32 262.95 198.67 268.61 211.4 281.34 198.67 294.07 204.32 299.73 217.05 287 229.78 299.73"/><polygon points="169.31 294.07 156.58 281.34 169.31 268.61 163.65 262.95 150.92 275.68 138.19 262.95 132.53 268.61 145.26 281.34 132.53 294.07 138.19 299.73 150.92 287 163.65 299.73 169.31 294.07"/><polygon points="103.18 294.07 90.45 281.34 103.18 268.61 97.52 262.95 84.79 275.68 72.06 262.95 66.4 268.61 79.13 281.34 66.4 294.07 72.06 299.73 84.79 287 97.52 299.73 103.18 294.07"/><polygon points="37.05 294.07 24.32 281.34 37.05 268.61 31.39 262.95 18.66 275.68 5.93 262.95 0.27 268.61 13 281.34 0.27 294.07 5.93 299.73 18.66 287 31.39 299.73 37.05 294.07"/><polygon points="229.87 233.99 235.53 228.33 222.8 215.6 235.53 202.87 229.87 197.21 217.14 209.94 204.41 197.21 198.76 202.87 211.49 215.6 198.76 228.33 204.41 233.99 217.14 221.26 229.87 233.99"/><polygon points="169.4 228.33 156.67 215.6 169.4 202.87 163.74 197.21 151.01 209.94 138.28 197.21 132.63 202.87 145.36 215.6 132.63 228.33 138.28 233.99 151.01 221.26 163.74 233.99 169.4 228.33"/><polygon points="103.27 228.33 90.54 215.6 103.27 202.87 97.61 197.21 84.88 209.94 72.15 197.21 66.5 202.87 79.22 215.6 66.5 228.33 72.15 233.99 84.88 221.26 97.61 233.99 103.27 228.33"/><polygon points="37.14 228.33 24.41 215.6 37.14 202.87 31.48 197.21 18.75 209.94 6.02 197.21 0.36 202.87 13.09 215.6 0.36 228.33 6.02 233.99 18.75 221.26 31.48 233.99 37.14 228.33"/><polygon points="229.69 168.25 235.35 162.59 222.62 149.87 235.35 137.13 229.69 131.48 216.96 144.21 204.23 131.48 198.57 137.13 211.3 149.87 198.57 162.59 204.23 168.25 216.96 155.52 229.69 168.25"/><polygon points="169.22 162.59 156.49 149.87 169.22 137.13 163.56 131.48 150.83 144.21 138.1 131.48 132.44 137.13 145.17 149.87 132.44 162.59 138.1 168.25 150.83 155.52 163.56 168.25 169.22 162.59"/><polygon points="103.09 162.59 90.36 149.87 103.09 137.13 97.43 131.48 84.7 144.21 71.97 131.48 66.31 137.13 79.04 149.87 66.31 162.59 71.97 168.25 84.7 155.52 97.43 168.25 103.09 162.59"/><polygon points="36.96 162.59 24.23 149.87 36.96 137.13 31.3 131.48 18.57 144.21 5.84 131.48 0.18 137.13 12.91 149.87 0.18 162.59 5.84 168.25 18.57 155.52 31.3 168.25 36.96 162.59"/><polygon points="229.6 102.52 235.26 96.86 222.53 84.13 235.26 71.4 229.6 65.74 216.87 78.47 204.14 65.74 198.48 71.4 211.21 84.13 198.48 96.86 204.14 102.52 216.87 89.78 229.6 102.52"/><polygon points="169.13 96.86 156.4 84.13 169.13 71.4 163.47 65.74 150.74 78.47 138.01 65.74 132.35 71.4 145.08 84.13 132.35 96.86 138.01 102.52 150.74 89.78 163.47 102.52 169.13 96.86"/><polygon points="103 96.86 90.27 84.13 103 71.4 97.34 65.74 84.61 78.47 71.88 65.74 66.22 71.4 78.95 84.13 66.22 96.86 71.88 102.52 84.61 89.78 97.34 102.52 103 96.86"/><polygon points="36.87 96.86 24.14 84.13 36.87 71.4 31.21 65.74 18.48 78.47 5.75 65.74 0.09 71.4 12.82 84.13 0.09 96.86 5.75 102.52 18.48 89.78 31.21 102.52 36.87 96.86"/><polygon points="229.51 36.78 235.17 31.12 222.44 18.39 235.17 5.66 229.51 0 216.78 12.73 204.05 0 198.39 5.66 211.12 18.39 198.39 31.12 204.05 36.78 216.78 24.05 229.51 36.78"/><polygon points="169.04 31.12 156.31 18.39 169.04 5.66 163.38 0 150.65 12.73 137.92 0 132.26 5.66 144.99 18.39 132.26 31.12 137.92 36.78 150.65 24.05 163.38 36.78 169.04 31.12"/><polygon points="102.91 31.12 90.17 18.39 102.91 5.66 97.25 0 84.52 12.73 71.79 0 66.13 5.66 78.86 18.39 66.13 31.12 71.79 36.78 84.52 24.05 97.25 36.78 102.91 31.12"/><polygon points="36.77 31.12 24.05 18.39 36.77 5.66 31.12 0 18.39 12.73 5.66 0 0 5.66 12.73 18.39 0 31.12 5.66 36.78 18.39 24.05 31.12 36.78 36.77 31.12"/><polygon points="295.91 300 301.57 294.34 288.84 281.61 301.57 268.88 295.91 263.22 283.18 275.95 270.45 263.22 264.8 268.88 277.53 281.61 264.8 294.34 270.45 300 283.18 287.27 295.91 300"/><polygon points="296 234.26 301.66 228.6 288.93 215.87 301.66 203.14 296 197.49 283.27 210.22 270.55 197.49 264.89 203.14 277.62 215.87 264.89 228.6 270.55 234.26 283.27 221.53 296 234.26"/><polygon points="295.82 168.52 301.48 162.87 288.75 150.13 301.48 137.41 295.82 131.75 283.09 144.48 270.36 131.75 264.71 137.41 277.44 150.13 264.71 162.87 270.36 168.52 283.09 155.79 295.82 168.52"/><polygon points="295.73 102.79 301.39 97.13 288.66 84.4 301.39 71.67 295.73 66.01 283 78.74 270.27 66.01 264.62 71.67 277.34 84.4 264.62 97.13 270.27 102.79 283 90.06 295.73 102.79"/><polygon points="295.64 37.05 301.3 31.39 288.57 18.66 301.3 5.93 295.64 0.27 282.91 13 270.18 0.27 264.52 5.93 277.25 18.66 264.52 31.39 270.18 37.05 282.91 24.32 295.64 37.05"/></g></g></g></svg>