<svg xmlns="http://www.w3.org/2000/svg" viewBox="0 0 300 300"><g id="Слой_2" data-name="Слой 2"><g id="Shapes"><path id="_35" data-name="35" d="M150,0h0A150,150,0,0,0,0,150H0A150,150,0,0,0,150,300h0A150,150,0,0,0,300,150h0A150,150,0,0,0,150,0Zm15,127.12a3.6,3.6,0,0,1,5.56-2.67c5.06,3.54,12.67,5.82,22.47,4.46a42.22,42.22,0,0,0,10.12-2.55,3.67,3.67,0,0,1,4.91,4.24c-1,4.36-4,8.91-10,13.25-12.16,8.71-24.17,3.38-29.14-3.56C165.77,135.88,164.56,131.36,165,127.12Zm-58.71-9.81c1.32-1.33,3.31-1.69,4.41-2.8a6.87,6.87,0,0,0,1.67-4,2.63,2.63,0,0,0,0-.74c-.17-1-1.35-1.85-1.92-2.68a6.31,6.31,0,0,1-1.32-3.54c0-3.13,1.36-4.27,3.13-4.27s3,1,4.63,1.12a6.35,6.35,0,0,0,4.38-1.58,2.4,2.4,0,0,0,.75-.77,3.46,3.46,0,0,0,.23-1.75,9.22,9.22,0,0,1,.23-1.66,6,6,0,0,1,1.53-3.08c2.21-2.21,4-2.06,5.23-.81a14.11,14.11,0,0,1,2,3.31,4.82,4.82,0,0,0,2.6,2.18,14.61,14.61,0,0,0,2.78.66,3.4,3.4,0,0,0,.84.06c1.42-.16,2.58-1.77,3.81-2.41a8.44,8.44,0,0,1,4-.94c3.54.1,5,.93,5,3,0,3.34-2.71,4.27-2.71,7.6a4.55,4.55,0,0,0,.42,1.88c.17.27.34.54.5.81a5.22,5.22,0,0,0,1.93.55,8.87,8.87,0,0,1,6.18,2.65c2.43,2.57,2.87,4.19,1.4,5.66s-3.15,1.5-4.92,2.06a5.72,5.72,0,0,0-2.35,1.42,5,5,0,0,0-1.14,1.78,1.59,1.59,0,0,0-.14.7,1.83,1.83,0,0,0,.27.68c.65,1.15,1.61,2.1,2.23,3.26a8.4,8.4,0,0,1,1,4.11c-.1,3.53-.93,5-3,5-1.73,0-3-.9-4.42-1.74a5.53,5.53,0,0,0-5.17-.51,1.75,1.75,0,0,0-.58.33,3.47,3.47,0,0,0-.66,2.06,8.87,8.87,0,0,1-2.65,6.18c-2.57,2.43-4.19,2.87-5.66,1.4-2.36-2.35-1.11-4.93-3.46-7.29-.45-.44-1.41-1.33-2.11-1.15a1.29,1.29,0,0,0-.54.36c-1.52,1.45-3.39,3-5.61,3-3.12,0-4.26-1.36-4.26-3.13s1.14-3.54,1.14-5.1-1.07-3.21-2.06-4.5a1.05,1.05,0,0,0-.23-.24c-.39-.24-1.29-.1-1.75-.13a12.7,12.7,0,0,1-1.75-.24,6,6,0,0,1-3.07-1.54C104.92,120.33,105.07,118.56,106.32,117.31Zm127.16,69c-2.27,2.89-5.51,2.25-8.21.93-3.54-1.72-5.86-.91-7.75,1.66-12.32,16.87-31.87,20.55-53,21.28-1.91.07-3.84-.14-5.76-.22-24.57-.92-43.54-10.73-57.4-28.12A266.72,266.72,0,0,1,83.64,157.6c-2.65-4.24-3.43-9.42-4.53-14.25-.64-2.8-1.4-4.91-5.16-5.14a15.82,15.82,0,0,1-2.22-.51c-6.7-1.47-8.18-3.82-5.53-9.29A3.61,3.61,0,0,1,69,126.92q16.07,1.42,32.09,3.2c1.55.17,3.78.76,4.33,1.73a9.16,9.16,0,0,1,1.3,6.15c-.19.81-3.62,1.35-5.61,1.43-2.26.08-4.55-.64-6.84-.75-3.53-.16-4.38.81-2.59,3.5,5.74,8.68,11.39,17.43,17.73,25.78,4.49,5.92,9.39,11.83,15.25,16.72,13.93,11.61,31.08,15.37,49.4,11.39,8-1.74,15.3-6.3,22.36-10.31,2.76-1.57,4.5-5,5.77-7.87,2-4.49.88-6.56-3.71-9.31-1.89-1.14-4-2.07-5.93-3.12-3.92-2.09-4.46-4.24-2.1-8.09,1.75-2.84,4.39-3.7,8-1.56,11.56,6.84,22.94,13.9,34.24,21.06C235.62,178.72,235.72,183.42,233.48,186.28Z"/></g></g></svg>