<svg xmlns="http://www.w3.org/2000/svg" viewBox="0 0 315 315"><defs><style>.cls-1{fill:none;stroke:#000;stroke-miterlimit:10;stroke-width:15px;}</style></defs><g id="Слой_2" data-name="Слой 2"><g id="Shapes"><g id="_36" data-name="36"><path class="cls-1" d="M29.35,130.88C40.07,116.58,45.64,114,45,107.25c-1.63-15.73-33.86-19-33.63-30.4.14-7.08,12.67-11.58,44.35-24.5C101,33.84,88.11,17,116.86,10.89,157.73,2.15,211.5,8.66,232.1,49.94c8.92,17.89-5.68,36.77,17.44,50.41,11.1,6.54,21.86-4.48,42,6.9,16.84,9.51,18.67,35,13.16,53.16-7.37,24.24-27.29,23.86-35.34,48.34-7.06,21.46,5.93,28.79,1.22,45.28-10.15,35.53-72.84,13.25-149.38,47.25C70.14,324,42.76,279.17,38.85,252.94c-2.62-17.62,16.49-27.78,10-44.19C41.48,190.16,13,193.33,8.15,176.16,4.66,163.8,15.74,149,29.35,130.88Z"/><path d="M243.69,160c-12.94-4.05-26-8-39.08-11.65-4.09-1.14-6.46.38-7.42,3.63-1.31,4.4-.21,6.36,4.18,7.38,2.2.51,4.47.88,6.63,1.5,5.21,1.49,6.83,3.23,6.08,8.15-.48,3.16-1.3,7-3.59,9.22-5.86,5.79-11.82,12.18-19.2,16-16.92,8.71-34.71,9.53-51.4,1.81-7-3.25-13.39-7.76-19.34-12.38C112.14,177.09,104.31,170,96.4,163c-2.45-2.17-1.88-3.34,1.62-4.11,2.28-.49,4.71-.38,6.9-1.06,1.94-.6,5.16-2,5.13-2.88a9.24,9.24,0,0,0-2.89-5.68c-.79-.8-3.13-.8-4.7-.56Q86.29,151.19,70.17,154a3.69,3.69,0,0,0-2.37,2.2c-1.16,6.05.9,8,7.86,7.65a14.79,14.79,0,0,0,2.31-.08c3.74-.76,5,1.11,6.4,3.68,2.36,4.45,4.47,9.32,8.19,12.77a267.66,267.66,0,0,0,23.69,19.08c18.15,13.4,39.32,18,63.64,12.49,1.9-.43,3.84-.73,5.69-1.29,20.55-6.28,38.74-15,46.39-34.78,1.17-3,3.23-4.42,7.15-3.66,3,.58,6.34.36,7.8-3.08S247,161,243.69,160Z"/><path d="M109.78,140.41a13.33,13.33,0,0,0,1.78-.23c.46-.09,1.3-.46,1.75-.33a1,1,0,0,1,.29.17c1.31,1,2.75,2.21,3.2,3.88s-.27,3.46.22,5.29,1.94,2.76,5,1.94c2.17-.58,3.6-2.6,4.71-4.42a1.23,1.23,0,0,1,.43-.5c.64-.36,1.81.26,2.36.58,2.93,1.69,2.38,4.54,5.31,6.23,1.83,1.06,3.3.2,5.18-2.86a9,9,0,0,0,1-6.75,3.48,3.48,0,0,1,.1-2.19,2,2,0,0,1,.48-.48,5.66,5.66,0,0,1,5.2-.86c1.62.46,3.1,1,4.79.55,2-.55,2.48-2.19,1.65-5.69a8.5,8.5,0,0,0-2-3.76c-.91-1-2.1-1.66-3-2.61a1.35,1.35,0,0,1-.5-1.32,5.32,5.32,0,0,1,.66-2,5.83,5.83,0,0,1,1.93-2c1.58-1,3.28-1.58,4.28-3.3s.19-3.3-2.86-5.19a9.06,9.06,0,0,0-6.76-1,5.34,5.34,0,0,1-2,0c-.22-.22-.46-.44-.7-.66a4.59,4.59,0,0,1-.9-1.73c-.88-3.27,1.53-4.89.66-8.16-.55-2-2.2-2.47-5.69-1.64a8.33,8.33,0,0,0-3.7,2c-1,.94-1.76,2.83-3.11,3.36a3.29,3.29,0,0,1-.84.16,15.6,15.6,0,0,1-2.9.09,4.89,4.89,0,0,1-3.11-1.46,14.52,14.52,0,0,0-2.83-2.71c-1.56-.9-3.33-.58-4.91,2.16a6,6,0,0,0-.69,3.42,8.57,8.57,0,0,0,.2,1.68,3.55,3.55,0,0,1,.24,1.79,2.79,2.79,0,0,1-.53,1,6.46,6.46,0,0,1-3.88,2.69c-1.61.25-3.24-.3-4.84.12s-2.76,1.94-1.94,5a6.38,6.38,0,0,0,2.23,3.13c.77.66,2.15,1.18,2.58,2.12a2.3,2.3,0,0,1,.18.73,6.93,6.93,0,0,1-.58,4.37c-.79,1.37-2.64,2.25-3.59,3.9s-.58,3.32,2.17,4.91A6.1,6.1,0,0,0,109.78,140.41Z"/><path d="M201.09,136.71c4.8-5.85,6.54-11.1,6.33-15.62a3.72,3.72,0,0,0-5.92-2.86,42.87,42.87,0,0,1-9.25,5.15c-9.24,3.91-17.31,3.67-23.19,1.53a3.64,3.64,0,0,0-4.74,4.08c.65,4.28,3,8.39,7.27,11.88C178.28,146.36,191.46,148.44,201.09,136.71Z"/></g></g></g></svg>